<?xml version="1.0" encoding="UTF-8" standalone="no"?>
<!-- Generator: Adobe Illustrator 14.0.0, SVG Export Plug-In . SVG Version: 6.00 Build 43363)  -->

<svg
   version="1.1"
   id="Layer_1"
   x="0px"
   y="0px"
   width="528.14008"
   height="371.33578"
   viewBox="0 0 528.14008 371.33578"
   enable-background="new 0 0 576 402"
   xml:space="preserve"
   sodipodi:docname="Spindle_apparatus.svg"
   xmlns:inkscape="http://www.inkscape.org/namespaces/inkscape"
   xmlns:sodipodi="http://sodipodi.sourceforge.net/DTD/sodipodi-0.dtd"
   xmlns="http://www.w3.org/2000/svg"
   xmlns:svg="http://www.w3.org/2000/svg"><defs
   id="defs38" /><sodipodi:namedview
   id="namedview38"
   pagecolor="#ffffff"
   bordercolor="#000000"
   borderopacity="0.25"
   inkscape:showpageshadow="2"
   inkscape:pageopacity="0.0"
   inkscape:pagecheckerboard="0"
   inkscape:deskcolor="#d1d1d1" />
<g
   id="g38"
   transform="translate(-17.562025,-15.905781)">
	<g
   id="g31">
		<g
   id="g27">
			<path
   fill="none"
   stroke="#69bd45"
   stroke-width="3.8193"
   stroke-linecap="round"
   d="m 171.833,168.4 c 0,0 42.67,-112.551 143.559,-121.884"
   id="path1" />
			<g
   id="g6">
				<g
   id="g5">
					<g
   id="g4">
						<path
   fill="#00b5eb"
   stroke="#0f717c"
   stroke-width="1.5277"
   stroke-miterlimit="1"
   d="m 340.283,89.908 c 3.33,-7.132 3.973,-18.048 1.973,-33.1 -1.729,-12.993 -4.816,-24.296 -4.947,-24.773 -0.91,-3.318 -4.335,-5.268 -7.662,-4.357 -3.318,0.915 -5.267,4.343 -4.356,7.663 0.032,0.111 2.992,10.952 4.606,23.108 1.369,10.322 1.188,16.942 0.51,21.151 -2.05,-3.718 -4.451,-9.854 -6.645,-19.957 -2.59,-11.954 -3.482,-23.239 -3.494,-23.426 -0.263,-3.434 -3.262,-6.004 -6.692,-5.742 -3.432,0.265 -6.001,3.26 -5.738,6.689 0.035,0.494 0.949,12.175 3.715,24.987 3.204,14.838 7.498,24.899 13.039,30.486 -4.436,12.629 -4.496,30.042 -0.152,51.878 3.551,17.874 8.765,32.054 8.981,32.646 1.061,2.862 4.005,4.485 6.912,3.979 0.365,-0.066 0.736,-0.164 1.098,-0.298 3.231,-1.195 4.878,-4.781 3.682,-8.01 -0.052,-0.135 -5.085,-13.832 -8.447,-30.746 -3.076,-15.486 -3.76,-28.503 -2.063,-38.392 4.915,8.704 8.665,21.127 11.002,36.659 2.568,17.075 2.464,31.819 2.462,31.964 -0.033,3.445 2.729,6.259 6.173,6.292 0.389,0.005 0.767,-0.028 1.138,-0.09 2.905,-0.502 5.126,-3.023 5.156,-6.077 0.006,-0.637 0.122,-15.739 -2.575,-33.762 -3.296,-22.017 -9.231,-38.389 -17.676,-48.772 z"
   id="path2" />
						<g
   id="g3">
							<path
   fill="#d93d96"
   stroke="#c11f43"
   stroke-width="1.1458"
   stroke-miterlimit="1"
   d="m 329.324,92.291 c 0.322,1.868 -0.929,3.644 -2.794,3.972 -1.87,0.325 -3.649,-0.928 -3.972,-2.795 -0.328,-1.868 0.926,-3.646 2.794,-3.974 1.865,-0.325 3.643,0.928 3.972,2.797 z"
   id="path3" />
							<circle
   fill="#d93d96"
   stroke="#c11f43"
   stroke-width="1.1458"
   stroke-miterlimit="1"
   cx="339.09698"
   cy="90.588997"
   r="3.4349999"
   id="circle3" />
						</g>
					</g>
				</g>
			</g>
			<g
   id="g11">
				<g
   id="g10">
					<g
   id="g9">
						<path
   fill="#00b5eb"
   stroke="#0f717c"
   stroke-width="1.5277"
   stroke-miterlimit="1"
   d="m 350.921,297.469 c 5.365,-5.759 9.343,-15.942 12.084,-30.877 2.366,-12.892 2.915,-24.597 2.94,-25.089 0.154,-3.441 -2.504,-6.352 -5.948,-6.511 -3.437,-0.154 -6.349,2.506 -6.511,5.946 0,0.111 -0.527,11.336 -2.741,23.401 -1.884,10.241 -4.1,16.478 -6.043,20.275 -0.806,-4.167 -1.193,-10.741 -0.16,-21.031 1.219,-12.168 3.852,-23.181 3.898,-23.363 0.81,-3.349 -1.25,-6.714 -4.595,-7.522 -3.345,-0.811 -6.713,1.248 -7.524,4.592 -0.114,0.478 -2.848,11.87 -4.169,24.916 -1.53,15.104 -0.553,25.995 2.998,33.022 -8.115,10.641 -13.543,27.188 -16.148,49.294 -2.139,18.106 -1.551,33.195 -1.524,33.826 0.126,3.052 2.423,5.5 5.342,5.919 0.369,0.053 0.751,0.071 1.142,0.059 3.438,-0.146 6.111,-3.047 5.972,-6.487 -0.006,-0.145 -0.573,-14.725 1.449,-31.851 1.851,-15.678 5.214,-28.27 9.878,-37.161 1.993,9.802 1.727,22.775 -0.843,38.269 -2.822,17.037 -7.469,31.026 -7.516,31.166 -1.095,3.264 0.665,6.801 3.927,7.89 0.37,0.126 0.739,0.213 1.11,0.264 2.923,0.416 5.81,-1.294 6.781,-4.191 0.204,-0.604 4.972,-14.93 7.965,-32.91 3.661,-21.963 3.064,-39.364 -1.764,-51.846 z"
   id="path6" />
						<g
   id="g8">
							<path
   fill="#d93d96"
   stroke="#c11f43"
   stroke-width="1.1458"
   stroke-miterlimit="1"
   d="m 339.427,298.158 c -0.271,1.878 -2.008,3.186 -3.884,2.916 -1.878,-0.267 -3.188,-2.006 -2.919,-3.886 0.266,-1.874 2.005,-3.182 3.885,-2.915 1.876,0.27 3.18,2.005 2.918,3.885 z"
   id="path7" />
							<path
   fill="#d93d96"
   stroke="#c11f43"
   stroke-width="1.1458"
   stroke-miterlimit="1"
   d="m 352.646,300.036 c -0.266,1.88 -2.005,3.186 -3.885,2.921 -1.877,-0.27 -3.182,-2.009 -2.915,-3.884 0.265,-1.881 2.005,-3.187 3.885,-2.92 1.875,0.264 3.18,2.009 2.915,3.883 z"
   id="path8" />
						</g>
					</g>
				</g>
			</g>
			<path
   fill="none"
   stroke="#69bd45"
   stroke-width="3.8193"
   stroke-linecap="round"
   d="m 171.833,172.488 c 0,0 47.927,-99.729 135.983,-103.811"
   id="path11" />
			<path
   fill="none"
   stroke="#69bd45"
   stroke-width="3.8193"
   stroke-linecap="round"
   d="m 173.096,174.814 c 0,0 55.404,-43.155 84.854,-37.906"
   id="path12" />
			<path
   fill="none"
   stroke="#69bd45"
   stroke-width="3.8193"
   stroke-linecap="round"
   d="m 499.096,172.488 c 0,0 -38.492,-135.885 -142.296,-132.969"
   id="path13" />
			<path
   fill="none"
   stroke="#69bd45"
   stroke-width="3.8193"
   stroke-linecap="round"
   d="m 499.096,170.13 c 0,0 -43.277,-111.363 -138.562,-101.453"
   id="path14" />
			<path
   fill="none"
   stroke="#69bd45"
   stroke-width="3.8193"
   stroke-linecap="round"
   d="m 498.397,176.56 c 0,0 8.745,-67.653 -6.997,-99.728"
   id="path15" />
			<path
   fill="none"
   stroke="#69bd45"
   stroke-width="3.8193"
   stroke-linecap="round"
   d="m 500.223,175.705 c 0,0 37.979,-8.047 35.064,-40.125"
   id="path16" />
			<path
   fill="none"
   stroke="#69bd45"
   stroke-width="3.8193"
   stroke-linecap="round"
   d="m 501.519,178.901 c 0,0 62.953,14.577 35.222,66.481"
   id="path17" />
			<path
   fill="none"
   stroke="#69bd45"
   stroke-width="3.8193"
   stroke-linecap="round"
   d="m 170.181,172.771 c 0,0 -6.997,-56.475 10.496,-79.85"
   id="path18" />
			<path
   fill="none"
   stroke="#69bd45"
   stroke-width="3.8193"
   stroke-linecap="round"
   d="m 169.655,174.4 c 0,0 -21.363,5.362 -30.11,-22.395"
   id="path19" />
			<path
   fill="none"
   stroke="#69bd45"
   stroke-width="3.8193"
   stroke-linecap="round"
   d="m 169.655,175.986 c 0,0 -27.195,1.165 -26.028,37.902"
   id="path20" />
			<path
   fill="none"
   stroke="#69bd45"
   stroke-width="3.8193"
   stroke-linecap="round"
   d="m 497.953,178.901 c 0,0 -54.741,90.374 -123.794,78.138"
   id="path21" />
			<path
   fill="none"
   stroke="#69bd45"
   stroke-width="3.8193"
   stroke-linecap="round"
   d="m 171.833,177.151 c 0,0 62.165,76.77 152.758,83.782"
   id="path22" />
			<path
   fill="none"
   stroke="#69bd45"
   stroke-width="3.8193"
   stroke-linecap="round"
   d="m 499.096,181.233 c 0,0 20.415,107.889 -112.554,137.633"
   id="path23" />
			<path
   fill="none"
   stroke="#497f3b"
   stroke-width="6.1109"
   stroke-linecap="round"
   d="m 340.283,89.908 c 0,0 130.821,-0.238 158.813,84.907"
   id="path24" />
			<path
   fill="none"
   stroke="#497f3b"
   stroke-width="6.1109"
   stroke-linecap="round"
   d="m 324.591,92.638 c 0,0 -96.677,-1.8 -152.66,82.176"
   id="path25" />
			<path
   fill="none"
   stroke="#497f3b"
   stroke-width="6.1109"
   stroke-linecap="round"
   d="M 336.022,297.677 C 180.463,273.135 171.93,178.902 171.93,178.902"
   id="path26" />
			<path
   fill="none"
   stroke="#497f3b"
   stroke-width="6.1109"
   stroke-linecap="round"
   d="m 499.096,184.15 c 0,0 -51.717,107.028 -148.175,115.403"
   id="path27" />
		</g>
		<path
   fill="none"
   stroke="#69bd45"
   stroke-width="3.8193"
   stroke-linecap="round"
   d="m 174.736,176.56 c 0,0 92.324,21.106 179.04,11.759"
   id="path28" />
		<path
   fill="none"
   stroke="#69bd45"
   stroke-width="3.8193"
   stroke-linecap="round"
   d="m 496.109,176.56 c 0,0 -90.964,32.009 -180.718,28.506"
   id="path29" />
		<path
   fill="none"
   stroke="#69bd45"
   stroke-width="3.8193"
   stroke-linecap="round"
   d="m 174.736,178.901 c 0,0 63.996,44.857 164.363,36.679"
   id="path30" />
		<path
   fill="none"
   stroke="#69bd45"
   stroke-width="3.8193"
   stroke-linecap="round"
   d="m 493.986,178.901 c 0,0 -95.79,48.923 -168.047,49.433"
   id="path31" />
	</g>
	<g
   id="g32">
		<polygon
   points="155.756,150.616 164.313,160.745 164.321,147.485 161.376,150.551 137.337,84.794 135.946,85.302 159.985,151.06 "
   id="polygon31" />
	</g>
	<g
   id="g33">
		<polygon
   points="134.85,191.479 148.101,191.959 138.295,183.036 138.581,187.276 73.754,160.835 73.193,162.207 138.022,188.648 "
   id="polygon32" />
	</g>
	<g
   id="g34">
		<polygon
   points="419.931,42.046 408.763,49.195 421.907,50.948 419.257,47.625 487.607,32.463 487.285,31.017 418.934,46.18 "
   id="polygon33" />
	</g>
	<switch
   id="switch34"><text
     transform="translate(50.792,66.4365)"
     id="trsvg8-ja"
     systemLanguage="ja"><tspan
       x="0"
       y="0"
       font-family="MyriadPro-Regular"
       font-size="12.2218px"
       id="trsvg1-ja">微小管形成中心</tspan><tspan
       x="23.111"
       y="14.666"
       font-family="MyriadPro-Regular"
       font-size="12.2218px"
       id="trsvg2-ja">(MTOC)</tspan></text><text
     transform="translate(50.792,66.4365)"
     id="trsvg8"><tspan
       sodipodi:role="line"
       id="tspan39"
       x="0"
       y="0"
       style="font-style:normal;font-variant:normal;font-weight:normal;font-stretch:normal;font-size:12px;font-family:'.PingFang SC';-inkscape-font-specification:'.PingFang SC, Normal';font-variant-ligatures:normal;font-variant-caps:normal;font-variant-numeric:normal;font-variant-east-asian:normal">微管组织中心 (MTOC)</tspan></text></switch>
	<switch
   id="switch35"><text
     transform="translate(16.7065,156.5723)"
     font-family="MyriadPro-Regular"
     font-size="12.2218px"
     id="trsvg9-ja"
     systemLanguage="ja"><tspan
       id="trsvg3-ja">星状体微小管</tspan></text><text
     transform="translate(16.7065,156.5723)"
     font-family="MyriadPro-Regular"
     font-size="12.2218px"
     id="trsvg9"
     style="font-style:normal;font-variant:normal;font-weight:normal;font-stretch:normal;font-size:12.2218px;font-family:'.PingFang SC';-inkscape-font-specification:'.PingFang SC, Normal';font-variant-ligatures:normal;font-variant-caps:normal;font-variant-numeric:normal;font-variant-east-asian:normal"><tspan
       id="trsvg3"
       style="font-style:normal;font-variant:normal;font-weight:normal;font-stretch:normal;font-size:12.2218px;font-family:'.PingFang SC';-inkscape-font-specification:'.PingFang SC, Normal';font-variant-ligatures:normal;font-variant-caps:normal;font-variant-numeric:normal;font-variant-east-asian:normal">星射线</tspan></text></switch>
	<switch
   id="switch36"><text
     transform="translate(434.4854,25.9521)"
     font-family="MyriadPro-Regular"
     font-size="12.2218px"
     id="trsvg10-ja"
     systemLanguage="ja"><tspan
       id="trsvg4-ja">極微小管</tspan></text><text
     transform="translate(434.4854,25.9521)"
     font-family="MyriadPro-Regular"
     font-size="12.2218px"
     id="trsvg10"
     style="font-style:normal;font-variant:normal;font-weight:normal;font-stretch:normal;font-size:12.2218px;font-family:'.PingFang SC';-inkscape-font-specification:'.PingFang SC, Normal';font-variant-ligatures:normal;font-variant-caps:normal;font-variant-numeric:normal;font-variant-east-asian:normal"><tspan
       id="trsvg4"
       style="font-style:normal;font-variant:normal;font-weight:normal;font-stretch:normal;font-size:12.2218px;font-family:'.PingFang SC';-inkscape-font-specification:'.PingFang SC, Normal';font-variant-ligatures:normal;font-variant-caps:normal;font-variant-numeric:normal;font-variant-east-asian:normal">极微管</tspan></text></switch>
	<g
   id="g36">
		<polygon
   points="441.149,273.911 427.946,272.68 437.231,282.147 437.187,277.895 500.408,307.973 501.044,306.636 437.82,276.56 "
   id="polygon36" />
	</g>
	<switch
   id="switch37"><text
     transform="translate(430.7402,321.7959)"
     id="trsvg11-ja"
     systemLanguage="ja"><tspan
       x="0"
       y="0"
       font-family="MyriadPro-Regular"
       font-size="12.2218px"
       id="trsvg5-ja">キネトコア微小管</tspan><tspan
       x="43.375"
       y="14.666"
       font-family="MyriadPro-Regular"
       font-size="12.2218px"
       id="trsvg6-ja">(K繊維)</tspan></text><text
     transform="translate(430.7402,321.7959)"
     id="trsvg11"><tspan
       style="font-style:normal;font-variant:normal;font-weight:normal;font-stretch:normal;font-size:12px;font-family:'.PingFang SC';-inkscape-font-specification:'.PingFang SC, Normal';font-variant-ligatures:normal;font-variant-caps:normal;font-variant-numeric:normal;font-variant-east-asian:normal"
       id="tspan42">牵引丝</tspan></text></switch>
	<g
   id="g37">
		<polygon
   points="314.089,309.381 324.433,301.082 311.176,300.737 314.166,303.762 247.82,326.118 248.292,327.521 314.64,305.162 "
   id="polygon37" />
	</g>
	<switch
   id="switch38"><text
     transform="translate(202.2773,341.6563)"
     font-family="MyriadPro-Regular"
     font-size="12.2218px"
     id="trsvg12-ja"
     systemLanguage="ja"><tspan
       id="trsvg7-ja">キネトコア</tspan></text><text
     transform="translate(202.2773,341.6563)"
     font-family="MyriadPro-Regular"
     font-size="12.2218px"
     id="trsvg12"
     style="font-style:normal;font-variant:normal;font-weight:normal;font-stretch:normal;font-size:12.2218px;font-family:'.PingFang SC';-inkscape-font-specification:'.PingFang SC, Normal';font-variant-ligatures:normal;font-variant-caps:normal;font-variant-numeric:normal;font-variant-east-asian:normal"><tspan
       sodipodi:role="line"
       id="tspan41"
       x="0"
       y="0">着丝点</tspan></text></switch>
</g>
</svg>
