<?xml version="1.0" encoding="UTF-8"?>
<svg width="300pt" xmlns:xlink="http://www.w3.org/1999/xlink" xmlns="http://www.w3.org/2000/svg" height="300pt" viewBox="0 0 300 300" >
 <g transform="translate(141.791, 140.742)" style="fill:none; stroke:#000000; stroke-width:0.59904; stroke-linecap:round; stroke-linejoin:round; stroke-dasharray:none;" >
  <path d="M0 0 C0 0 14.4 0 14.4 0 " />
 </g>
 <g transform="translate(152.55, 112)" style="fill:#000000; fill-rule:evenodd; stroke:none; stroke-width:0.59904; stroke-linecap:butt; stroke-linejoin:miter; stroke-dasharray:none;" >
  <path d="M3.511 0 C1.42 0 0 1.54 0 3.82 C0 6.1 1.42 7.641 3.52 7.641 C4.4 7.641 5.19 7.371 5.781 6.871 C6.571 6.201 7.041 5.071 7.041 3.881 C7.041 1.53 5.651 0 3.511 0 Z M3.511 0.82 C5.091 0.82 6.111 2.02 6.111 3.86 C6.111 5.621 5.06 6.821 3.52 6.821 C1.971 6.821 0.931 5.621 0.931 3.82 C0.931 2.02 1.971 0.82 3.511 0.82 Z" />
 </g>
 <g transform="translate(134.471, 128.262)" style="fill:none; stroke:#000000; stroke-width:0.59904; stroke-linecap:round; stroke-linejoin:round; stroke-dasharray:none;" >
  <path d="M7.32 12.48 C7.32 12.48 0 0 0 0 " />
 </g>
 <g transform="translate(156.191, 128.262)" style="fill:none; stroke:#000000; stroke-width:0.59904; stroke-linecap:round; stroke-linejoin:round; stroke-dasharray:none;" >
  <path d="M0 12.48 C0 12.48 6.96 0 6.96 0 " />
 </g>
 <g transform="translate(159.191, 121.302)" style="fill:none; stroke:#000000; stroke-width:0.59904; stroke-linecap:round; stroke-linejoin:round; stroke-dasharray:none;" >
  <path d="M3.96 6.96 C3.96 6.96 0 0 0 0 " />
 </g>
 <g transform="translate(141.791, 116.022)" style="fill:none; stroke:#000000; stroke-width:0.59904; stroke-linecap:round; stroke-linejoin:round; stroke-dasharray:none;" >
  <path d="M8.88 0 C8.88 0 0 0 0 0 " />
 </g>
 <g transform="translate(134.471, 116.022)" style="fill:none; stroke:#000000; stroke-width:0.59904; stroke-linecap:round; stroke-linejoin:round; stroke-dasharray:none;" >
  <path d="M7.32 0 C7.32 0 0 12.24 0 12.24 " />
 </g>
 <g transform="translate(173.8, 124.25)" style="fill:#000000; fill-rule:evenodd; stroke:none; stroke-width:0.59904; stroke-linecap:butt; stroke-linejoin:miter; stroke-dasharray:none;" >
  <path d="M3.511 0 C1.42 0 0 1.54 0 3.82 C0 6.1 1.42 7.641 3.52 7.641 C4.4 7.641 5.19 7.371 5.781 6.871 C6.571 6.201 7.041 5.071 7.041 3.881 C7.041 1.53 5.651 0 3.511 0 Z M3.511 0.82 C5.091 0.82 6.111 2.02 6.111 3.86 C6.111 5.621 5.06 6.821 3.52 6.821 C1.971 6.821 0.931 5.621 0.931 3.82 C0.931 2.02 1.971 0.82 3.511 0.82 Z" />
 </g>
 <g transform="translate(163.151, 128.262)" style="fill:none; stroke:#000000; stroke-width:0.59904; stroke-linecap:round; stroke-linejoin:round; stroke-dasharray:none;" >
  <path d="M0 0 C0 0 8.88 0 8.88 0 " />
 </g>
 <g transform="translate(131.05, 149)" style="fill:#000000; fill-rule:evenodd; stroke:none; stroke-width:0.59904; stroke-linecap:butt; stroke-linejoin:miter; stroke-dasharray:none;" >
  <path d="M3.511 0 C1.42 0 0 1.54 0 3.82 C0 6.1 1.42 7.641 3.52 7.641 C4.4 7.641 5.19 7.371 5.781 6.871 C6.571 6.201 7.041 5.071 7.041 3.881 C7.041 1.53 5.651 0 3.511 0 Z M3.511 0.82 C5.091 0.82 6.111 2.02 6.111 3.86 C6.111 5.621 5.06 6.821 3.52 6.821 C1.971 6.821 0.931 5.621 0.931 3.82 C0.931 2.02 1.971 0.82 3.511 0.82 Z" />
 </g>
 <g transform="translate(136.392, 140.502)" style="fill:#000000; fill-rule:evenodd; stroke:none; stroke-width:0.12; stroke-linecap:butt; stroke-linejoin:miter; stroke-dasharray:none;" >
  <path d="M5.759 0.36 C5.759 0.36 5.159 0 5.159 0 C5.159 0 0 6.72 0 6.72 C0 6.72 1.079 7.44 1.079 7.44 C1.079 7.44 2.279 8.04 2.279 8.04 C2.279 8.04 5.759 0.36 5.759 0.36 Z" />
 </g>
 <g transform="translate(136.392, 140.502)" style="fill:none; stroke:#000000; stroke-width:0.1; stroke-linecap:round; stroke-linejoin:round; stroke-dasharray:none;" >
  <path d="M5.759 0.36 C5.759 0.36 5.159 0 5.159 0 C5.159 0 0 6.72 0 6.72 C0 6.72 1.079 7.44 1.079 7.44 C1.079 7.44 2.279 8.04 2.279 8.04 C2.279 8.04 5.759 0.36 5.759 0.36 Z" />
 </g>
 <g transform="translate(133.871, 102.342)" style="fill:#000000; fill-rule:evenodd; stroke:none; stroke-width:0.12; stroke-linecap:butt; stroke-linejoin:miter; stroke-dasharray:none;" >
  <path d="M7.68 13.799 C7.68 13.799 8.28 13.44 8.28 13.44 C8.28 13.44 1.561 0 1.561 0 C1.561 0 0.72 1.2 0.72 1.2 C0.72 1.2 0 2.52 0 2.52 C0 2.52 7.68 13.799 7.68 13.799 Z" />
 </g>
 <g transform="translate(133.871, 102.342)" style="fill:none; stroke:#000000; stroke-width:0.1; stroke-linecap:round; stroke-linejoin:round; stroke-dasharray:none;" >
  <path d="M7.68 13.799 C7.68 13.799 8.28 13.44 8.28 13.44 C8.28 13.44 1.561 0 1.561 0 C1.561 0 0.72 1.2 0.72 1.2 C0.72 1.2 0 2.52 0 2.52 C0 2.52 7.68 13.799 7.68 13.799 Z" />
 </g>
 <g transform="translate(116.55, 124.5)" style="fill:#000000; fill-rule:evenodd; stroke:none; stroke-width:0.1; stroke-linecap:butt; stroke-linejoin:miter; stroke-dasharray:none;" >
  <path d="M3.511 0 C1.42 0 0 1.54 0 3.82 C0 6.1 1.42 7.641 3.52 7.641 C4.4 7.641 5.19 7.371 5.781 6.871 C6.571 6.201 7.041 5.071 7.041 3.881 C7.041 1.53 5.651 0 3.511 0 Z M3.511 0.82 C5.091 0.82 6.111 2.02 6.111 3.86 C6.111 5.621 5.06 6.821 3.52 6.821 C1.971 6.821 0.931 5.621 0.931 3.82 C0.931 2.02 1.971 0.82 3.511 0.82 Z" />
 </g>
 <g transform="translate(133.272, 127.902)" style="fill:none; stroke:#000000; stroke-width:0.59904; stroke-linecap:round; stroke-linejoin:round; stroke-dasharray:none;" >
  <path d="M0 0.84 C0 0.84 0 0 0 0 " />
 </g>
 <g transform="translate(130.871, 127.542)" style="fill:none; stroke:#000000; stroke-width:0.59904; stroke-linecap:round; stroke-linejoin:round; stroke-dasharray:none;" >
  <path d="M0 1.44 C0 1.44 0 0 0 0 " />
 </g>
 <g transform="translate(128.471, 127.302)" style="fill:none; stroke:#000000; stroke-width:0.59904; stroke-linecap:round; stroke-linejoin:round; stroke-dasharray:none;" >
  <path d="M0 1.92 C0 1.92 0 0 0 0 " />
 </g>
 <g transform="translate(126.071, 127.062)" style="fill:none; stroke:#000000; stroke-width:0.59904; stroke-linecap:round; stroke-linejoin:round; stroke-dasharray:none;" >
  <path d="M0 2.4 C0 2.4 0 0 0 0 " />
 </g>
 <g transform="translate(159.55, 149)" style="fill:#000000; fill-rule:evenodd; stroke:none; stroke-width:0.59904; stroke-linecap:butt; stroke-linejoin:miter; stroke-dasharray:none;" >
  <path d="M3.511 0 C1.42 0 0 1.54 0 3.82 C0 6.1 1.42 7.641 3.52 7.641 C4.4 7.641 5.19 7.371 5.781 6.871 C6.571 6.201 7.041 5.071 7.041 3.881 C7.041 1.53 5.651 0 3.511 0 Z M3.511 0.82 C5.091 0.82 6.111 2.02 6.111 3.86 C6.111 5.621 5.06 6.821 3.52 6.821 C1.971 6.821 0.931 5.621 0.931 3.82 C0.931 2.02 1.971 0.82 3.511 0.82 Z" />
 </g>
 <g transform="translate(156.312, 141.462)" style="fill:none; stroke:#000000; stroke-width:0.59904; stroke-linecap:round; stroke-linejoin:round; stroke-dasharray:none;" >
  <path d="M0.839 0 C0.839 0 0 0.48 0 0.48 " />
 </g>
 <g transform="translate(157.272, 143.502)" style="fill:none; stroke:#000000; stroke-width:0.59904; stroke-linecap:round; stroke-linejoin:round; stroke-dasharray:none;" >
  <path d="M1.319 0 C1.319 0 0 0.84 0 0.84 " />
 </g>
 <g transform="translate(158.232, 145.542)" style="fill:none; stroke:#000000; stroke-width:0.59904; stroke-linecap:round; stroke-linejoin:round; stroke-dasharray:none;" >
  <path d="M1.919 0 C1.919 0 0 1.08 0 1.08 " />
 </g>
 <g transform="translate(138.3, 87.2501)" style="fill:#000000; fill-rule:evenodd; stroke:none; stroke-width:0.59904; stroke-linecap:butt; stroke-linejoin:miter; stroke-dasharray:none;" >
  <path d="M3.511 0 C1.42 0 0 1.54 0 3.82 C0 6.1 1.42 7.641 3.52 7.641 C4.4 7.641 5.19 7.371 5.781 6.871 C6.571 6.201 7.041 5.071 7.041 3.881 C7.041 1.53 5.651 0 3.511 0 Z M3.511 0.82 C5.091 0.82 6.111 2.02 6.111 3.86 C6.111 5.621 5.06 6.821 3.52 6.821 C1.971 6.821 0.931 5.621 0.931 3.82 C0.931 2.02 1.971 0.82 3.511 0.82 Z" />
 </g>
 <g transform="translate(134.591, 96.5821)" style="fill:none; stroke:#000000; stroke-width:0.59904; stroke-linecap:round; stroke-linejoin:round; stroke-dasharray:none;" >
  <path d="M0 6.96 C0 6.96 4.08 0 4.08 0 " />
 </g>
 <g transform="translate(134.591, 78.8221)" style="fill:none; stroke:#000000; stroke-width:0.59904; stroke-linecap:round; stroke-linejoin:round; stroke-dasharray:none;" >
  <path d="M4.2 7.319 C4.2 7.319 0 0 0 0 " />
 </g>
 <g transform="translate(134.591, 66.3421)" style="fill:none; stroke:#000000; stroke-width:0.59904; stroke-linecap:round; stroke-linejoin:round; stroke-dasharray:none;" >
  <path d="M0 12.48 C0 12.48 7.2 0 7.2 0 " />
 </g>
 <g transform="translate(116.8, 75.0001)" style="fill:#000000; fill-rule:evenodd; stroke:none; stroke-width:0.59904; stroke-linecap:butt; stroke-linejoin:miter; stroke-dasharray:none;" >
  <path d="M3.511 0 C1.42 0 0 1.54 0 3.82 C0 6.1 1.42 7.641 3.52 7.641 C4.4 7.641 5.19 7.371 5.781 6.871 C6.571 6.201 7.041 5.071 7.041 3.881 C7.041 1.53 5.651 0 3.511 0 Z M3.511 0.82 C5.091 0.82 6.111 2.02 6.111 3.86 C6.111 5.621 5.06 6.821 3.52 6.821 C1.971 6.821 0.931 5.621 0.931 3.82 C0.931 2.02 1.971 0.82 3.511 0.82 Z" />
 </g>
 <g transform="translate(125.591, 77.6221)" style="fill:none; stroke:#000000; stroke-width:0.59904; stroke-linecap:round; stroke-linejoin:round; stroke-dasharray:none;" >
  <path d="M9.721 0 C9.721 0 0 0 0 0 " />
 </g>
 <g transform="translate(125.591, 80.1411)" style="fill:none; stroke:#000000; stroke-width:0.59904; stroke-linecap:round; stroke-linejoin:round; stroke-dasharray:none;" >
  <path d="M9.841 0 C9.841 0 0 0 0 0 " />
 </g>
 <g transform="translate(141.791, 66.3421)" style="fill:none; stroke:#000000; stroke-width:0.59904; stroke-linecap:round; stroke-linejoin:round; stroke-dasharray:none;" >
  <path d="M0 0 C0 0 14.28 0 14.28 0 " />
 </g>
 <g transform="translate(143.471, 63.8221)" style="fill:none; stroke:#000000; stroke-width:0.59904; stroke-linecap:round; stroke-linejoin:round; stroke-dasharray:none;" >
  <path d="M0 0 C0 0 10.921 0 10.921 0 " />
 </g>
 <g transform="translate(156.191, 54.1011)" style="fill:none; stroke:#000000; stroke-width:0.59904; stroke-linecap:round; stroke-linejoin:round; stroke-dasharray:none;" >
  <path d="M0 12.241 C0 12.241 7.081 0 7.081 0 " />
 </g>
 <g transform="translate(156.071, 41.6221)" style="fill:none; stroke:#000000; stroke-width:0.59904; stroke-linecap:round; stroke-linejoin:round; stroke-dasharray:none;" >
  <path d="M7.201 12.479 C7.201 12.479 0 0 0 0 " />
 </g>
 <g transform="translate(154.751, 44.3821)" style="fill:none; stroke:#000000; stroke-width:0.59904; stroke-linecap:round; stroke-linejoin:round; stroke-dasharray:none;" >
  <path d="M5.521 9.6 C5.521 9.6 0 0 0 0 " />
 </g>
 <g transform="translate(141.671, 41.6221)" style="fill:none; stroke:#000000; stroke-width:0.59904; stroke-linecap:round; stroke-linejoin:round; stroke-dasharray:none;" >
  <path d="M14.52 0 C14.52 0 0 0 0 0 " />
 </g>
 <g transform="translate(134.591, 41.6221)" style="fill:none; stroke:#000000; stroke-width:0.59904; stroke-linecap:round; stroke-linejoin:round; stroke-dasharray:none;" >
  <path d="M7.08 0 C7.08 0 0 12.479 0 12.479 " />
 </g>
 <g transform="translate(137.591, 44.2621)" style="fill:none; stroke:#000000; stroke-width:0.59904; stroke-linecap:round; stroke-linejoin:round; stroke-dasharray:none;" >
  <path d="M5.4 0 C5.4 0 0 9.6 0 9.6 " />
 </g>
 <g transform="translate(134.591, 54.1011)" style="fill:none; stroke:#000000; stroke-width:0.59904; stroke-linecap:round; stroke-linejoin:round; stroke-dasharray:none;" >
  <path d="M0 0 C0 0 7.2 12.241 7.2 12.241 " />
 </g>
 <g transform="translate(130.8, 25.5)" style="fill:#000000; fill-rule:evenodd; stroke:none; stroke-width:0.59904; stroke-linecap:butt; stroke-linejoin:miter; stroke-dasharray:none;" >
  <path d="M3.511 0 C1.42 0 0 1.54 0 3.8203 C0 6.1001 1.42 7.6411 3.52 7.6411 C4.4 7.6411 5.19 7.3711 5.781 6.8711 C6.571 6.2011 7.041 5.0711 7.041 3.8808 C7.041 1.5302 5.651 0 3.511 0 Z M3.511 0.8203 C5.091 0.8203 6.111 2.0205 6.111 3.8603 C6.111 5.6211 5.06 6.8211 3.52 6.8211 C1.971 6.8211 0.931 5.6211 0.931 3.8203 C0.931 2.0205 1.971 0.8203 3.511 0.8203 Z" />
 </g>
 <g transform="translate(124.25, 25.6201)" style="fill:#000000; fill-rule:evenodd; stroke:none; stroke-width:0.59904; stroke-linecap:butt; stroke-linejoin:miter; stroke-dasharray:none;" >
  <path d="M4.681 3.9707 C4.681 3.9707 4.681 7.291 4.681 7.291 C4.681 7.291 5.61 7.291 5.61 7.291 C5.61 7.291 5.61 0 5.61 0 C5.61 0 4.681 0 4.681 0 C4.681 0 4.681 3.1504 4.681 3.1504 C4.681 3.1504 0.93 3.1504 0.93 3.1504 C0.93 3.1504 0.93 0 0.93 0 C0.93 0 0 0 0 0 C0 0 0 7.291 0 7.291 C0 7.291 0.941 7.291 0.941 7.291 C0.941 7.291 0.941 3.9707 0.941 3.9707 C0.941 3.9707 4.681 3.9707 4.681 3.9707 Z" />
 </g>
 <g transform="translate(137.591, 34.7821)" style="fill:none; stroke:#000000; stroke-width:0.59904; stroke-linecap:round; stroke-linejoin:round; stroke-dasharray:none;" >
  <path d="M4.08 6.84 C4.08 6.84 0 0 0 0 " />
 </g>
 <g transform="translate(157.3, 22.5)" style="fill:#000000; fill-rule:evenodd; stroke:none; stroke-width:0.59904; stroke-linecap:butt; stroke-linejoin:miter; stroke-dasharray:none;" >
  <path d="M3.511 0 C1.42 0 0 1.54 0 3.8203 C0 6.1006 1.42 7.6411 3.52 7.6411 C4.4 7.6411 5.19 7.3711 5.781 6.8711 C6.571 6.2011 7.041 5.0713 7.041 3.8808 C7.041 1.5302 5.651 0 3.511 0 Z M3.511 0.8203 C5.091 0.8203 6.111 2.0205 6.111 3.8603 C6.111 5.6211 5.06 6.8213 3.52 6.8213 C1.971 6.8213 0.931 5.6211 0.931 3.8203 C0.931 2.0205 1.971 0.8203 3.511 0.8203 Z" />
 </g>
 <g transform="translate(165.75, 22.6201)" style="fill:#000000; fill-rule:evenodd; stroke:none; stroke-width:0.59904; stroke-linecap:butt; stroke-linejoin:miter; stroke-dasharray:none;" >
  <path d="M4.681 3.9707 C4.681 3.9707 4.681 7.291 4.681 7.291 C4.681 7.291 5.61 7.291 5.61 7.291 C5.61 7.291 5.61 0 5.61 0 C5.61 0 4.681 0 4.681 0 C4.681 0 4.681 3.1504 4.681 3.1504 C4.681 3.1504 0.93 3.1504 0.93 3.1504 C0.93 3.1504 0.93 0 0.93 0 C0.93 0 0 0 0 0 C0 0 0 7.291 0 7.291 C0 7.291 0.941 7.291 0.941 7.291 C0.941 7.291 0.941 3.9707 0.941 3.9707 C0.941 3.9707 4.681 3.9707 4.681 3.9707 Z" />
 </g>
 <g transform="translate(156.191, 31.5421)" style="fill:none; stroke:#000000; stroke-width:0.59904; stroke-linecap:round; stroke-linejoin:round; stroke-dasharray:none;" >
  <path d="M0 10.08 C0 10.08 3 0 3 0 " />
 </g>
 <g transform="translate(174.05, 50.2501)" style="fill:#000000; fill-rule:evenodd; stroke:none; stroke-width:0.59904; stroke-linecap:butt; stroke-linejoin:miter; stroke-dasharray:none;" >
  <path d="M3.511 0 C1.42 0 0 1.54 0 3.82 C0 6.1 1.42 7.641 3.52 7.641 C4.4 7.641 5.19 7.371 5.781 6.871 C6.571 6.201 7.041 5.071 7.041 3.881 C7.041 1.53 5.651 0 3.511 0 Z M3.511 0.82 C5.091 0.82 6.111 2.02 6.111 3.86 C6.111 5.621 5.06 6.821 3.52 6.821 C1.971 6.821 0.931 5.621 0.931 3.82 C0.931 2.02 1.971 0.82 3.511 0.82 Z" />
 </g>
 <g transform="translate(163.272, 54.1011)" style="fill:none; stroke:#000000; stroke-width:0.59904; stroke-linecap:round; stroke-linejoin:round; stroke-dasharray:none;" >
  <path d="M0 0 C0 0 8.879 0 8.879 0 " />
 </g>
 <g transform="translate(180.671, 41.7421)" style="fill:none; stroke:#000000; stroke-width:0.59904; stroke-linecap:round; stroke-linejoin:round; stroke-dasharray:none;" >
  <path d="M0 6.96 C0 6.96 4.08 0 4.08 0 " />
 </g>
 <g transform="translate(184.751, 41.7421)" style="fill:none; stroke:#000000; stroke-width:0.59904; stroke-linecap:round; stroke-linejoin:round; stroke-dasharray:none;" >
  <path d="M0 0 C0 0 14.28 0 14.28 0 " />
 </g>
 <g transform="translate(174.55, 21)" style="fill:#000000; fill-rule:evenodd; stroke:none; stroke-width:0.59904; stroke-linecap:butt; stroke-linejoin:miter; stroke-dasharray:none;" >
  <path d="M3.511 0 C1.42 0 0 1.54 0 3.8203 C0 6.1006 1.42 7.6416 3.52 7.6416 C4.4 7.6416 5.19 7.3711 5.781 6.8711 C6.571 6.2011 7.041 5.0713 7.041 3.8808 C7.041 1.5302 5.651 0 3.511 0 Z M3.511 0.8203 C5.091 0.8203 6.111 2.0205 6.111 3.8603 C6.111 5.6211 5.06 6.8213 3.52 6.8213 C1.971 6.8213 0.931 5.6211 0.931 3.8203 C0.931 2.0205 1.971 0.8203 3.511 0.8203 Z" />
 </g>
 <g transform="translate(181.511, 29.5019)" style="fill:none; stroke:#000000; stroke-width:0.59904; stroke-linecap:round; stroke-linejoin:round; stroke-dasharray:none;" >
  <path d="M5.04 12.2402 C5.04 12.2402 0 0 0 0 " />
 </g>
 <g transform="translate(178.511, 30.7021)" style="fill:none; stroke:#000000; stroke-width:0.59904; stroke-linecap:round; stroke-linejoin:round; stroke-dasharray:none;" >
  <path d="M5.28 12.84 C5.28 12.84 0 0 0 0 " />
 </g>
 <g transform="translate(199.031, 41.7421)" style="fill:none; stroke:#000000; stroke-width:0.59904; stroke-linecap:round; stroke-linejoin:round; stroke-dasharray:none;" >
  <path d="M0 0 C0 0 7.08 12.48 7.08 12.48 " />
 </g>
 <g transform="translate(202.031, 41.9821)" style="fill:none; stroke:#000000; stroke-width:0.59904; stroke-linecap:round; stroke-linejoin:round; stroke-dasharray:none;" >
  <path d="M0 0 C0 0 5.4 9.6 5.4 9.6 " />
 </g>
 <g transform="translate(206.111, 54.2221)" style="fill:none; stroke:#000000; stroke-width:0.59904; stroke-linecap:round; stroke-linejoin:round; stroke-dasharray:none;" >
  <path d="M0 0 C0 0 14.281 0 14.281 0 " />
 </g>
 <g transform="translate(220.392, 41.7421)" style="fill:none; stroke:#000000; stroke-width:0.59904; stroke-linecap:round; stroke-linejoin:round; stroke-dasharray:none;" >
  <path d="M0 12.48 C0 12.48 7.199 0 7.199 0 " />
 </g>
 <g transform="translate(219.071, 41.8621)" style="fill:none; stroke:#000000; stroke-width:0.59904; stroke-linecap:round; stroke-linejoin:round; stroke-dasharray:none;" >
  <path d="M0 9.6 C0 9.6 5.52 0 5.52 0 " />
 </g>
 <g transform="translate(220.392, 29.3818)" style="fill:none; stroke:#000000; stroke-width:0.59904; stroke-linecap:round; stroke-linejoin:round; stroke-dasharray:none;" >
  <path d="M7.199 12.3603 C7.199 12.3603 0 0 0 0 " />
 </g>
 <g transform="translate(206.111, 29.3818)" style="fill:none; stroke:#000000; stroke-width:0.59904; stroke-linecap:round; stroke-linejoin:round; stroke-dasharray:none;" >
  <path d="M14.281 0 C14.281 0 0 0 0 0 " />
 </g>
 <g transform="translate(207.791, 31.9021)" style="fill:none; stroke:#000000; stroke-width:0.59904; stroke-linecap:round; stroke-linejoin:round; stroke-dasharray:none;" >
  <path d="M10.92 0 C10.92 0 0 0 0 0 " />
 </g>
 <g transform="translate(199.031, 29.3818)" style="fill:none; stroke:#000000; stroke-width:0.59904; stroke-linecap:round; stroke-linejoin:round; stroke-dasharray:none;" >
  <path d="M7.08 0 C7.08 0 0 12.3603 0 12.3603 " />
 </g>
 <g transform="translate(224.05, 13)" style="fill:#000000; fill-rule:evenodd; stroke:none; stroke-width:0.59904; stroke-linecap:butt; stroke-linejoin:miter; stroke-dasharray:none;" >
  <path d="M3.511 0 C1.42 0 0 1.54 0 3.8203 C0 6.1006 1.42 7.6416 3.52 7.6416 C4.4 7.6416 5.19 7.3711 5.781 6.8711 C6.571 6.2011 7.041 5.0713 7.041 3.8808 C7.041 1.5302 5.651 0 3.511 0 Z M3.511 0.8203 C5.091 0.8203 6.111 2.0205 6.111 3.8603 C6.111 5.6211 5.06 6.8213 3.52 6.8213 C1.971 6.8213 0.931 5.6211 0.931 3.8203 C0.931 2.0205 1.971 0.8203 3.511 0.8203 Z" />
 </g>
 <g transform="translate(232.25, 13.1201)" style="fill:#000000; fill-rule:evenodd; stroke:none; stroke-width:0.59904; stroke-linecap:butt; stroke-linejoin:miter; stroke-dasharray:none;" >
  <path d="M4.681 3.9707 C4.681 3.9707 4.681 7.291 4.681 7.291 C4.681 7.291 5.61 7.291 5.61 7.291 C5.61 7.291 5.61 0 5.61 0 C5.61 0 4.681 0 4.681 0 C4.681 0 4.681 3.1504 4.681 3.1504 C4.681 3.1504 0.93 3.1504 0.93 3.1504 C0.93 3.1504 0.93 0 0.93 0 C0.93 0 0 0 0 0 C0 0 0 7.291 0 7.291 C0 7.291 0.941 7.291 0.941 7.291 C0.941 7.291 0.941 3.9707 0.941 3.9707 C0.941 3.9707 4.681 3.9707 4.681 3.9707 Z" />
 </g>
 <g transform="translate(220.392, 22.4218)" style="fill:none; stroke:#000000; stroke-width:0.59904; stroke-linecap:round; stroke-linejoin:round; stroke-dasharray:none;" >
  <path d="M0 6.96 C0 6.96 3.96 0 3.96 0 " />
 </g>
 <g transform="translate(224.05, 62.7501)" style="fill:#000000; fill-rule:evenodd; stroke:none; stroke-width:0.59904; stroke-linecap:butt; stroke-linejoin:miter; stroke-dasharray:none;" >
  <path d="M3.511 0 C1.42 0 0 1.54 0 3.82 C0 6.1 1.42 7.641 3.52 7.641 C4.4 7.641 5.19 7.371 5.781 6.871 C6.571 6.201 7.041 5.071 7.041 3.881 C7.041 1.53 5.651 0 3.511 0 Z M3.511 0.82 C5.091 0.82 6.111 2.02 6.111 3.86 C6.111 5.621 5.06 6.821 3.52 6.821 C1.971 6.821 0.931 5.621 0.931 3.82 C0.931 2.02 1.971 0.82 3.511 0.82 Z" />
 </g>
 <g transform="translate(232.25, 62.8701)" style="fill:#000000; fill-rule:evenodd; stroke:none; stroke-width:0.59904; stroke-linecap:butt; stroke-linejoin:miter; stroke-dasharray:none;" >
  <path d="M4.681 3.971 C4.681 3.971 4.681 7.291 4.681 7.291 C4.681 7.291 5.61 7.291 5.61 7.291 C5.61 7.291 5.61 0 5.61 0 C5.61 0 4.681 0 4.681 0 C4.681 0 4.681 3.15 4.681 3.15 C4.681 3.15 0.93 3.15 0.93 3.15 C0.93 3.15 0.93 0 0.93 0 C0.93 0 0 0 0 0 C0 0 0 7.291 0 7.291 C0 7.291 0.941 7.291 0.941 7.291 C0.941 7.291 0.941 3.971 0.941 3.971 C0.941 3.971 4.681 3.971 4.681 3.971 Z" />
 </g>
 <g transform="translate(220.392, 54.2221)" style="fill:none; stroke:#000000; stroke-width:0.59904; stroke-linecap:round; stroke-linejoin:round; stroke-dasharray:none;" >
  <path d="M0 0 C0 0 4.199 7.32 4.199 7.32 " />
 </g>
 <g transform="translate(180.312, 115.902)" style="fill:none; stroke:#000000; stroke-width:0.59904; stroke-linecap:round; stroke-linejoin:round; stroke-dasharray:none;" >
  <path d="M0 7.32 C0 7.32 4.319 0 4.319 0 " />
 </g>
 <g transform="translate(184.631, 115.902)" style="fill:none; stroke:#000000; stroke-width:0.59904; stroke-linecap:round; stroke-linejoin:round; stroke-dasharray:none;" >
  <path d="M0 0 C0 0 14.4 0 14.4 0 " />
 </g>
 <g transform="translate(173.8, 99.5001)" style="fill:#000000; fill-rule:evenodd; stroke:none; stroke-width:0.59904; stroke-linecap:butt; stroke-linejoin:miter; stroke-dasharray:none;" >
  <path d="M3.511 0 C1.42 0 0 1.54 0 3.82 C0 6.1 1.42 7.641 3.52 7.641 C4.4 7.641 5.19 7.371 5.781 6.871 C6.571 6.201 7.041 5.071 7.041 3.881 C7.041 1.53 5.651 0 3.511 0 Z M3.511 0.82 C5.091 0.82 6.111 2.02 6.111 3.86 C6.111 5.621 5.06 6.821 3.52 6.821 C1.971 6.821 0.931 5.621 0.931 3.82 C0.931 2.02 1.971 0.82 3.511 0.82 Z" />
 </g>
 <g transform="translate(181.631, 108.222)" style="fill:none; stroke:#000000; stroke-width:0.59904; stroke-linecap:round; stroke-linejoin:round; stroke-dasharray:none;" >
  <path d="M4.44 7.68 C4.44 7.68 0 0 0 0 " />
 </g>
 <g transform="translate(179.471, 109.542)" style="fill:none; stroke:#000000; stroke-width:0.59904; stroke-linecap:round; stroke-linejoin:round; stroke-dasharray:none;" >
  <path d="M4.32 7.68 C4.32 7.68 0 0 0 0 " />
 </g>
 <g transform="translate(199.031, 115.902)" style="fill:none; stroke:#000000; stroke-width:0.59904; stroke-linecap:round; stroke-linejoin:round; stroke-dasharray:none;" >
  <path d="M0 0 C0 0 7.201 12.48 7.201 12.48 " />
 </g>
 <g transform="translate(202.031, 116.022)" style="fill:none; stroke:#000000; stroke-width:0.59904; stroke-linecap:round; stroke-linejoin:round; stroke-dasharray:none;" >
  <path d="M0 0 C0 0 5.52 9.6 5.52 9.6 " />
 </g>
 <g transform="translate(206.232, 128.382)" style="fill:none; stroke:#000000; stroke-width:0.59904; stroke-linecap:round; stroke-linejoin:round; stroke-dasharray:none;" >
  <path d="M0 0 C0 0 14.399 0 14.399 0 " />
 </g>
 <g transform="translate(220.631, 115.902)" style="fill:none; stroke:#000000; stroke-width:0.59904; stroke-linecap:round; stroke-linejoin:round; stroke-dasharray:none;" >
  <path d="M0 12.48 C0 12.48 7.2 0 7.2 0 " />
 </g>
 <g transform="translate(219.312, 116.022)" style="fill:none; stroke:#000000; stroke-width:0.59904; stroke-linecap:round; stroke-linejoin:round; stroke-dasharray:none;" >
  <path d="M0 9.6 C0 9.6 5.519 0 5.519 0 " />
 </g>
 <g transform="translate(220.511, 103.422)" style="fill:none; stroke:#000000; stroke-width:0.59904; stroke-linecap:round; stroke-linejoin:round; stroke-dasharray:none;" >
  <path d="M7.32 12.48 C7.32 12.48 0 0 0 0 " />
 </g>
 <g transform="translate(206.232, 103.422)" style="fill:none; stroke:#000000; stroke-width:0.59904; stroke-linecap:round; stroke-linejoin:round; stroke-dasharray:none;" >
  <path d="M14.279 0 C14.279 0 0 0 0 0 " />
 </g>
 <g transform="translate(207.911, 105.942)" style="fill:none; stroke:#000000; stroke-width:0.59904; stroke-linecap:round; stroke-linejoin:round; stroke-dasharray:none;" >
  <path d="M10.92 0 C10.92 0 0 0 0 0 " />
 </g>
 <g transform="translate(199.031, 103.422)" style="fill:none; stroke:#000000; stroke-width:0.59904; stroke-linecap:round; stroke-linejoin:round; stroke-dasharray:none;" >
  <path d="M7.201 0 C7.201 0 0 12.48 0 12.48 " />
 </g>
 <g transform="translate(238.55, 112)" style="fill:#000000; fill-rule:evenodd; stroke:none; stroke-width:0.59904; stroke-linecap:butt; stroke-linejoin:miter; stroke-dasharray:none;" >
  <path d="M3.511 0 C1.42 0 0 1.54 0 3.82 C0 6.1 1.42 7.641 3.52 7.641 C4.4 7.641 5.19 7.371 5.781 6.871 C6.571 6.201 7.041 5.071 7.041 3.881 C7.041 1.53 5.651 0 3.511 0 Z M3.511 0.82 C5.091 0.82 6.111 2.02 6.111 3.86 C6.111 5.621 5.06 6.821 3.52 6.821 C1.971 6.821 0.931 5.621 0.931 3.82 C0.931 2.02 1.971 0.82 3.511 0.82 Z" />
 </g>
 <g transform="translate(247, 112.12)" style="fill:#000000; fill-rule:evenodd; stroke:none; stroke-width:0.59904; stroke-linecap:butt; stroke-linejoin:miter; stroke-dasharray:none;" >
  <path d="M4.681 3.971 C4.681 3.971 4.681 7.291 4.681 7.291 C4.681 7.291 5.61 7.291 5.61 7.291 C5.61 7.291 5.61 0 5.61 0 C5.61 0 4.681 0 4.681 0 C4.681 0 4.681 3.15 4.681 3.15 C4.681 3.15 0.93 3.15 0.93 3.15 C0.93 3.15 0.93 0 0.93 0 C0.93 0 0 0 0 0 C0 0 0 7.291 0 7.291 C0 7.291 0.941 7.291 0.941 7.291 C0.941 7.291 0.941 3.971 0.941 3.971 C0.941 3.971 4.681 3.971 4.681 3.971 Z" />
 </g>
 <g transform="translate(227.831, 115.902)" style="fill:none; stroke:#000000; stroke-width:0.59904; stroke-linecap:round; stroke-linejoin:round; stroke-dasharray:none;" >
  <path d="M0 0 C0 0 9 0 9 0 " />
 </g>
 <g transform="translate(224.05, 137)" style="fill:#000000; fill-rule:evenodd; stroke:none; stroke-width:0.59904; stroke-linecap:butt; stroke-linejoin:miter; stroke-dasharray:none;" >
  <path d="M3.511 0 C1.42 0 0 1.54 0 3.82 C0 6.1 1.42 7.641 3.52 7.641 C4.4 7.641 5.19 7.371 5.781 6.871 C6.571 6.201 7.041 5.071 7.041 3.881 C7.041 1.53 5.651 0 3.511 0 Z M3.511 0.82 C5.091 0.82 6.111 2.02 6.111 3.86 C6.111 5.621 5.06 6.821 3.52 6.821 C1.971 6.821 0.931 5.621 0.931 3.82 C0.931 2.02 1.971 0.82 3.511 0.82 Z" />
 </g>
 <g transform="translate(220.631, 128.382)" style="fill:none; stroke:#000000; stroke-width:0.59904; stroke-linecap:round; stroke-linejoin:round; stroke-dasharray:none;" >
  <path d="M0 0 C0 0 4.08 7.32 4.08 7.32 " />
 </g>
 <g transform="translate(224.05, 87.0001)" style="fill:#000000; fill-rule:evenodd; stroke:none; stroke-width:0.59904; stroke-linecap:butt; stroke-linejoin:miter; stroke-dasharray:none;" >
  <path d="M3.511 0 C1.42 0 0 1.54 0 3.82 C0 6.1 1.42 7.641 3.52 7.641 C4.4 7.641 5.19 7.371 5.781 6.871 C6.571 6.201 7.041 5.071 7.041 3.881 C7.041 1.53 5.651 0 3.511 0 Z M3.511 0.82 C5.091 0.82 6.111 2.02 6.111 3.86 C6.111 5.621 5.06 6.821 3.52 6.821 C1.971 6.821 0.931 5.621 0.931 3.82 C0.931 2.02 1.971 0.82 3.511 0.82 Z" />
 </g>
 <g transform="translate(232.5, 87.1201)" style="fill:#000000; fill-rule:evenodd; stroke:none; stroke-width:0.59904; stroke-linecap:butt; stroke-linejoin:miter; stroke-dasharray:none;" >
  <path d="M4.681 3.971 C4.681 3.971 4.681 7.291 4.681 7.291 C4.681 7.291 5.61 7.291 5.61 7.291 C5.61 7.291 5.61 0 5.61 0 C5.61 0 4.681 0 4.681 0 C4.681 0 4.681 3.15 4.681 3.15 C4.681 3.15 0.93 3.15 0.93 3.15 C0.93 3.15 0.93 0 0.93 0 C0.93 0 0 0 0 0 C0 0 0 7.291 0 7.291 C0 7.291 0.941 7.291 0.941 7.291 C0.941 7.291 0.941 3.971 0.941 3.971 C0.941 3.971 4.681 3.971 4.681 3.971 Z" />
 </g>
 <g transform="translate(220.511, 96.3421)" style="fill:none; stroke:#000000; stroke-width:0.59904; stroke-linecap:round; stroke-linejoin:round; stroke-dasharray:none;" >
  <path d="M0 7.08 C0 7.08 4.08 0 4.08 0 " />
 </g>
 <g transform="translate(155.951, 158.382)" style="fill:none; stroke:#000000; stroke-width:0.59904; stroke-linecap:round; stroke-linejoin:round; stroke-dasharray:none;" >
  <path d="M3.96 0 C3.96 0 0 7.08 0 7.08 " />
 </g>
 <g transform="translate(155.951, 165.462)" style="fill:none; stroke:#000000; stroke-width:0.59904; stroke-linecap:round; stroke-linejoin:round; stroke-dasharray:none;" >
  <path d="M0 0 C0 0 7.2 12.48 7.2 12.48 " />
 </g>
 <g transform="translate(138.05, 161.5)" style="fill:#000000; fill-rule:evenodd; stroke:none; stroke-width:0.59904; stroke-linecap:butt; stroke-linejoin:miter; stroke-dasharray:none;" >
  <path d="M3.511 0 C1.42 0 0 1.54 0 3.82 C0 6.1 1.42 7.641 3.52 7.641 C4.4 7.641 5.19 7.371 5.781 6.871 C6.571 6.201 7.041 5.071 7.041 3.881 C7.041 1.53 5.651 0 3.511 0 Z M3.511 0.82 C5.091 0.82 6.111 2.02 6.111 3.86 C6.111 5.621 5.06 6.821 3.52 6.821 C1.971 6.821 0.931 5.621 0.931 3.82 C0.931 2.02 1.971 0.82 3.511 0.82 Z" />
 </g>
 <g transform="translate(146.951, 164.262)" style="fill:none; stroke:#000000; stroke-width:0.59904; stroke-linecap:round; stroke-linejoin:round; stroke-dasharray:none;" >
  <path d="M9.72 0 C9.72 0 0 0 0 0 " />
 </g>
 <g transform="translate(146.951, 166.782)" style="fill:none; stroke:#000000; stroke-width:0.59904; stroke-linecap:round; stroke-linejoin:round; stroke-dasharray:none;" >
  <path d="M9.84 0 C9.84 0 0 0 0 0 " />
 </g>
 <g transform="translate(155.831, 177.942)" style="fill:none; stroke:#000000; stroke-width:0.59904; stroke-linecap:round; stroke-linejoin:round; stroke-dasharray:none;" >
  <path d="M7.32 0 C7.32 0 0 12.48 0 12.48 " />
 </g>
 <g transform="translate(158.831, 180.702)" style="fill:none; stroke:#000000; stroke-width:0.59904; stroke-linecap:round; stroke-linejoin:round; stroke-dasharray:none;" >
  <path d="M5.64 0 C5.64 0 0 9.6 0 9.6 " />
 </g>
 <g transform="translate(155.831, 190.422)" style="fill:none; stroke:#000000; stroke-width:0.59904; stroke-linecap:round; stroke-linejoin:round; stroke-dasharray:none;" >
  <path d="M0 0 C0 0 7.08 12.48 7.08 12.48 " />
 </g>
 <g transform="translate(162.911, 202.902)" style="fill:none; stroke:#000000; stroke-width:0.59904; stroke-linecap:round; stroke-linejoin:round; stroke-dasharray:none;" >
  <path d="M0 0 C0 0 14.52 0 14.52 0 " />
 </g>
 <g transform="translate(164.591, 200.382)" style="fill:none; stroke:#000000; stroke-width:0.59904; stroke-linecap:round; stroke-linejoin:round; stroke-dasharray:none;" >
  <path d="M0 0 C0 0 11.16 0 11.16 0 " />
 </g>
 <g transform="translate(177.431, 190.422)" style="fill:none; stroke:#000000; stroke-width:0.59904; stroke-linecap:round; stroke-linejoin:round; stroke-dasharray:none;" >
  <path d="M0 12.48 C0 12.48 7.2 0 7.2 0 " />
 </g>
 <g transform="translate(177.431, 177.942)" style="fill:none; stroke:#000000; stroke-width:0.59904; stroke-linecap:round; stroke-linejoin:round; stroke-dasharray:none;" >
  <path d="M7.2 12.48 C7.2 12.48 0 0 0 0 " />
 </g>
 <g transform="translate(176.111, 180.702)" style="fill:none; stroke:#000000; stroke-width:0.59904; stroke-linecap:round; stroke-linejoin:round; stroke-dasharray:none;" >
  <path d="M5.52 9.6 C5.52 9.6 0 0 0 0 " />
 </g>
 <g transform="translate(163.151, 177.942)" style="fill:none; stroke:#000000; stroke-width:0.59904; stroke-linecap:round; stroke-linejoin:round; stroke-dasharray:none;" >
  <path d="M14.28 0 C14.28 0 0 0 0 0 " />
 </g>
 <g transform="translate(152.05, 211.5)" style="fill:#000000; fill-rule:evenodd; stroke:none; stroke-width:0.59904; stroke-linecap:butt; stroke-linejoin:miter; stroke-dasharray:none;" >
  <path d="M3.511 0 C1.42 0 0 1.54 0 3.82 C0 6.1 1.42 7.641 3.52 7.641 C4.4 7.641 5.19 7.371 5.781 6.871 C6.571 6.201 7.041 5.071 7.041 3.881 C7.041 1.53 5.651 0 3.511 0 Z M3.511 0.82 C5.091 0.82 6.111 2.02 6.111 3.86 C6.111 5.621 5.06 6.821 3.52 6.821 C1.971 6.821 0.931 5.621 0.931 3.82 C0.931 2.02 1.971 0.82 3.511 0.82 Z" />
 </g>
 <g transform="translate(158.591, 202.902)" style="fill:none; stroke:#000000; stroke-width:0.59904; stroke-linecap:round; stroke-linejoin:round; stroke-dasharray:none;" >
  <path d="M4.32 0 C4.32 0 0 7.32 0 7.32 " />
 </g>
 <g transform="translate(181.05, 211.5)" style="fill:#000000; fill-rule:evenodd; stroke:none; stroke-width:0.59904; stroke-linecap:butt; stroke-linejoin:miter; stroke-dasharray:none;" >
  <path d="M3.511 0 C1.42 0 0 1.54 0 3.82 C0 6.1 1.42 7.641 3.52 7.641 C4.4 7.641 5.19 7.371 5.781 6.871 C6.571 6.201 7.041 5.071 7.041 3.881 C7.041 1.53 5.651 0 3.511 0 Z M3.511 0.82 C5.091 0.82 6.111 2.02 6.111 3.86 C6.111 5.621 5.06 6.821 3.52 6.821 C1.971 6.821 0.931 5.621 0.931 3.82 C0.931 2.02 1.971 0.82 3.511 0.82 Z" />
 </g>
 <g transform="translate(189.25, 211.62)" style="fill:#000000; fill-rule:evenodd; stroke:none; stroke-width:0.59904; stroke-linecap:butt; stroke-linejoin:miter; stroke-dasharray:none;" >
  <path d="M4.681 3.971 C4.681 3.971 4.681 7.291 4.681 7.291 C4.681 7.291 5.61 7.291 5.61 7.291 C5.61 7.291 5.61 0 5.61 0 C5.61 0 4.681 0 4.681 0 C4.681 0 4.681 3.15 4.681 3.15 C4.681 3.15 0.93 3.15 0.93 3.15 C0.93 3.15 0.93 0 0.93 0 C0.93 0 0 0 0 0 C0 0 0 7.291 0 7.291 C0 7.291 0.941 7.291 0.941 7.291 C0.941 7.291 0.941 3.971 0.941 3.971 C0.941 3.971 4.681 3.971 4.681 3.971 Z" />
 </g>
 <g transform="translate(177.431, 202.902)" style="fill:none; stroke:#000000; stroke-width:0.59904; stroke-linecap:round; stroke-linejoin:round; stroke-dasharray:none;" >
  <path d="M0 0 C0 0 4.08 7.32 4.08 7.32 " />
 </g>
 <g transform="translate(195.55, 186.5)" style="fill:#000000; fill-rule:evenodd; stroke:none; stroke-width:0.59904; stroke-linecap:butt; stroke-linejoin:miter; stroke-dasharray:none;" >
  <path d="M3.511 0 C1.42 0 0 1.54 0 3.82 C0 6.1 1.42 7.641 3.52 7.641 C4.4 7.641 5.19 7.371 5.781 6.871 C6.571 6.201 7.041 5.071 7.041 3.881 C7.041 1.53 5.651 0 3.511 0 Z M3.511 0.82 C5.091 0.82 6.111 2.02 6.111 3.86 C6.111 5.621 5.06 6.821 3.52 6.821 C1.971 6.821 0.931 5.621 0.931 3.82 C0.931 2.02 1.971 0.82 3.511 0.82 Z" />
 </g>
 <g transform="translate(203.75, 186.62)" style="fill:#000000; fill-rule:evenodd; stroke:none; stroke-width:0.59904; stroke-linecap:butt; stroke-linejoin:miter; stroke-dasharray:none;" >
  <path d="M4.681 3.971 C4.681 3.971 4.681 7.291 4.681 7.291 C4.681 7.291 5.61 7.291 5.61 7.291 C5.61 7.291 5.61 0 5.61 0 C5.61 0 4.681 0 4.681 0 C4.681 0 4.681 3.15 4.681 3.15 C4.681 3.15 0.93 3.15 0.93 3.15 C0.93 3.15 0.93 0 0.93 0 C0.93 0 0 0 0 0 C0 0 0 7.291 0 7.291 C0 7.291 0.941 7.291 0.941 7.291 C0.941 7.291 0.941 3.971 0.941 3.971 C0.941 3.971 4.681 3.971 4.681 3.971 Z" />
 </g>
 <g transform="translate(184.631, 190.422)" style="fill:none; stroke:#000000; stroke-width:0.59904; stroke-linecap:round; stroke-linejoin:round; stroke-dasharray:none;" >
  <path d="M0 0 C0 0 9 0 9 0 " />
 </g>
 <g transform="translate(158.831, 220.662)" style="fill:none; stroke:#000000; stroke-width:0.59904; stroke-linecap:round; stroke-linejoin:round; stroke-dasharray:none;" >
  <path d="M0 0 C0 0 4.08 7.2 4.08 7.2 " />
 </g>
 <g transform="translate(155.591, 227.862)" style="fill:none; stroke:#000000; stroke-width:0.59904; stroke-linecap:round; stroke-linejoin:round; stroke-dasharray:none;" >
  <path d="M7.32 0 C7.32 0 0 12.48 0 12.48 " />
 </g>
 <g transform="translate(173.8, 224)" style="fill:#000000; fill-rule:evenodd; stroke:none; stroke-width:0.59904; stroke-linecap:butt; stroke-linejoin:miter; stroke-dasharray:none;" >
  <path d="M3.511 0 C1.42 0 0 1.54 0 3.82 C0 6.1 1.42 7.641 3.52 7.641 C4.4 7.641 5.19 7.371 5.781 6.871 C6.571 6.201 7.041 5.071 7.041 3.881 C7.041 1.53 5.651 0 3.511 0 Z M3.511 0.82 C5.091 0.82 6.111 2.02 6.111 3.86 C6.111 5.621 5.06 6.821 3.52 6.821 C1.971 6.821 0.931 5.621 0.931 3.82 C0.931 2.02 1.971 0.82 3.511 0.82 Z" />
 </g>
 <g transform="translate(162.191, 229.062)" style="fill:none; stroke:#000000; stroke-width:0.59904; stroke-linecap:round; stroke-linejoin:round; stroke-dasharray:none;" >
  <path d="M0 0 C0 0 9.72 0 9.72 0 " />
 </g>
 <g transform="translate(162.191, 226.542)" style="fill:none; stroke:#000000; stroke-width:0.59904; stroke-linecap:round; stroke-linejoin:round; stroke-dasharray:none;" >
  <path d="M0 0 C0 0 9.72 0 9.72 0 " />
 </g>
 <g transform="translate(141.191, 240.342)" style="fill:none; stroke:#000000; stroke-width:0.59904; stroke-linecap:round; stroke-linejoin:round; stroke-dasharray:none;" >
  <path d="M14.4 0 C14.4 0 0 0 0 0 " />
 </g>
 <g transform="translate(142.871, 242.862)" style="fill:none; stroke:#000000; stroke-width:0.59904; stroke-linecap:round; stroke-linejoin:round; stroke-dasharray:none;" >
  <path d="M11.04 0 C11.04 0 0 0 0 0 " />
 </g>
 <g transform="translate(133.991, 240.342)" style="fill:none; stroke:#000000; stroke-width:0.59904; stroke-linecap:round; stroke-linejoin:round; stroke-dasharray:none;" >
  <path d="M7.2 0 C7.2 0 0 12.24 0 12.24 " />
 </g>
 <g transform="translate(133.991, 252.582)" style="fill:none; stroke:#000000; stroke-width:0.59904; stroke-linecap:round; stroke-linejoin:round; stroke-dasharray:none;" >
  <path d="M0 0 C0 0 7.08 12.48 7.08 12.48 " />
 </g>
 <g transform="translate(136.991, 252.822)" style="fill:none; stroke:#000000; stroke-width:0.59904; stroke-linecap:round; stroke-linejoin:round; stroke-dasharray:none;" >
  <path d="M0 0 C0 0 5.401 9.6 5.401 9.6 " />
 </g>
 <g transform="translate(141.071, 265.062)" style="fill:none; stroke:#000000; stroke-width:0.59904; stroke-linecap:round; stroke-linejoin:round; stroke-dasharray:none;" >
  <path d="M0 0 C0 0 14.52 0 14.52 0 " />
 </g>
 <g transform="translate(155.591, 252.702)" style="fill:none; stroke:#000000; stroke-width:0.59904; stroke-linecap:round; stroke-linejoin:round; stroke-dasharray:none;" >
  <path d="M0 12.36 C0 12.36 7.2 0 7.2 0 " />
 </g>
 <g transform="translate(154.272, 252.822)" style="fill:none; stroke:#000000; stroke-width:0.59904; stroke-linecap:round; stroke-linejoin:round; stroke-dasharray:none;" >
  <path d="M0 9.48 C0 9.48 5.519 0 5.519 0 " />
 </g>
 <g transform="translate(155.591, 240.342)" style="fill:none; stroke:#000000; stroke-width:0.59904; stroke-linecap:round; stroke-linejoin:round; stroke-dasharray:none;" >
  <path d="M7.2 12.36 C7.2 12.36 0 0 0 0 " />
 </g>
 <g transform="translate(116.05, 248.75)" style="fill:#000000; fill-rule:evenodd; stroke:none; stroke-width:0.59904; stroke-linecap:butt; stroke-linejoin:miter; stroke-dasharray:none;" >
  <path d="M3.511 0 C1.42 0 0 1.54 0 3.82 C0 6.1 1.42 7.641 3.52 7.641 C4.4 7.641 5.19 7.371 5.781 6.871 C6.571 6.201 7.041 5.071 7.041 3.881 C7.041 1.53 5.651 0 3.511 0 Z M3.511 0.82 C5.091 0.82 6.111 2.02 6.111 3.86 C6.111 5.621 5.06 6.821 3.52 6.821 C1.971 6.821 0.931 5.621 0.931 3.82 C0.931 2.02 1.971 0.82 3.511 0.82 Z" />
 </g>
 <g transform="translate(109.5, 248.87)" style="fill:#000000; fill-rule:evenodd; stroke:none; stroke-width:0.59904; stroke-linecap:butt; stroke-linejoin:miter; stroke-dasharray:none;" >
  <path d="M4.681 3.971 C4.681 3.971 4.681 7.291 4.681 7.291 C4.681 7.291 5.61 7.291 5.61 7.291 C5.61 7.291 5.61 0 5.61 0 C5.61 0 4.681 0 4.681 0 C4.681 0 4.681 3.15 4.681 3.15 C4.681 3.15 0.93 3.15 0.93 3.15 C0.93 3.15 0.93 0 0.93 0 C0.93 0 0 0 0 0 C0 0 0 7.291 0 7.291 C0 7.291 0.941 7.291 0.941 7.291 C0.941 7.291 0.941 3.971 0.941 3.971 C0.941 3.971 4.681 3.971 4.681 3.971 Z" />
 </g>
 <g transform="translate(124.991, 252.582)" style="fill:none; stroke:#000000; stroke-width:0.59904; stroke-linecap:round; stroke-linejoin:round; stroke-dasharray:none;" >
  <path d="M9 0 C9 0 0 0 0 0 " />
 </g>
 <g transform="translate(130.3, 273.75)" style="fill:#000000; fill-rule:evenodd; stroke:none; stroke-width:0.59904; stroke-linecap:butt; stroke-linejoin:miter; stroke-dasharray:none;" >
  <path d="M3.511 0 C1.42 0 0 1.54 0 3.82 C0 6.1 1.42 7.641 3.52 7.641 C4.4 7.641 5.19 7.371 5.781 6.871 C6.571 6.201 7.041 5.071 7.041 3.881 C7.041 1.53 5.651 0 3.511 0 Z M3.511 0.82 C5.091 0.82 6.111 2.02 6.111 3.86 C6.111 5.621 5.06 6.821 3.52 6.821 C1.971 6.821 0.931 5.621 0.931 3.82 C0.931 2.02 1.971 0.82 3.511 0.82 Z" />
 </g>
 <g transform="translate(123.75, 273.87)" style="fill:#000000; fill-rule:evenodd; stroke:none; stroke-width:0.59904; stroke-linecap:butt; stroke-linejoin:miter; stroke-dasharray:none;" >
  <path d="M4.681 3.971 C4.681 3.971 4.681 7.291 4.681 7.291 C4.681 7.291 5.61 7.291 5.61 7.291 C5.61 7.291 5.61 0 5.61 0 C5.61 0 4.681 0 4.681 0 C4.681 0 4.681 3.15 4.681 3.15 C4.681 3.15 0.93 3.15 0.93 3.15 C0.93 3.15 0.93 0 0.93 0 C0.93 0 0 0 0 0 C0 0 0 7.291 0 7.291 C0 7.291 0.941 7.291 0.941 7.291 C0.941 7.291 0.941 3.971 0.941 3.971 C0.941 3.971 4.681 3.971 4.681 3.971 Z" />
 </g>
 <g transform="translate(136.871, 265.062)" style="fill:none; stroke:#000000; stroke-width:0.59904; stroke-linecap:round; stroke-linejoin:round; stroke-dasharray:none;" >
  <path d="M4.2 0 C4.2 0 0 7.32 0 7.32 " />
 </g>
 <g transform="translate(159.3, 273.75)" style="fill:#000000; fill-rule:evenodd; stroke:none; stroke-width:0.59904; stroke-linecap:butt; stroke-linejoin:miter; stroke-dasharray:none;" >
  <path d="M3.511 0 C1.42 0 0 1.54 0 3.82 C0 6.1 1.42 7.641 3.52 7.641 C4.4 7.641 5.19 7.371 5.781 6.871 C6.571 6.201 7.041 5.071 7.041 3.881 C7.041 1.53 5.651 0 3.511 0 Z M3.511 0.82 C5.091 0.82 6.111 2.02 6.111 3.86 C6.111 5.621 5.06 6.821 3.52 6.821 C1.971 6.821 0.931 5.621 0.931 3.82 C0.931 2.02 1.971 0.82 3.511 0.82 Z" />
 </g>
 <g transform="translate(167.5, 273.87)" style="fill:#000000; fill-rule:evenodd; stroke:none; stroke-width:0.59904; stroke-linecap:butt; stroke-linejoin:miter; stroke-dasharray:none;" >
  <path d="M4.681 3.971 C4.681 3.971 4.681 7.291 4.681 7.291 C4.681 7.291 5.61 7.291 5.61 7.291 C5.61 7.291 5.61 0 5.61 0 C5.61 0 4.681 0 4.681 0 C4.681 0 4.681 3.15 4.681 3.15 C4.681 3.15 0.93 3.15 0.93 3.15 C0.93 3.15 0.93 0 0.93 0 C0.93 0 0 0 0 0 C0 0 0 7.291 0 7.291 C0 7.291 0.941 7.291 0.941 7.291 C0.941 7.291 0.941 3.971 0.941 3.971 C0.941 3.971 4.681 3.971 4.681 3.971 Z" />
 </g>
 <g transform="translate(155.591, 265.062)" style="fill:none; stroke:#000000; stroke-width:0.59904; stroke-linecap:round; stroke-linejoin:round; stroke-dasharray:none;" >
  <path d="M0 0 C0 0 4.2 7.32 4.2 7.32 " />
 </g>
 <g transform="translate(238.3, 38.0001)" style="fill:#000000; fill-rule:evenodd; stroke:none; stroke-width:0.59904; stroke-linecap:butt; stroke-linejoin:miter; stroke-dasharray:none;" >
  <path d="M3.511 0 C1.42 0 0 1.54 0 3.82 C0 6.1 1.42 7.641 3.52 7.641 C4.4 7.641 5.19 7.371 5.781 6.871 C6.571 6.201 7.041 5.071 7.041 3.881 C7.041 1.53 5.651 0 3.511 0 Z M3.511 0.82 C5.091 0.82 6.111 2.02 6.111 3.86 C6.111 5.621 5.06 6.821 3.52 6.821 C1.971 6.821 0.931 5.621 0.931 3.82 C0.931 2.02 1.971 0.82 3.511 0.82 Z" />
 </g>
 <g transform="translate(246.75, 38.1201)" style="fill:#000000; fill-rule:evenodd; stroke:none; stroke-width:0.59904; stroke-linecap:butt; stroke-linejoin:miter; stroke-dasharray:none;" >
  <path d="M4.681 3.971 C4.681 3.971 4.681 7.291 4.681 7.291 C4.681 7.291 5.61 7.291 5.61 7.291 C5.61 7.291 5.61 0 5.61 0 C5.61 0 4.681 0 4.681 0 C4.681 0 4.681 3.15 4.681 3.15 C4.681 3.15 0.93 3.15 0.93 3.15 C0.93 3.15 0.93 0 0.93 0 C0.93 0 0 0 0 0 C0 0 0 7.291 0 7.291 C0 7.291 0.941 7.291 0.941 7.291 C0.941 7.291 0.941 3.971 0.941 3.971 C0.941 3.971 4.681 3.971 4.681 3.971 Z" />
 </g>
 <g transform="translate(227.591, 41.7421)" style="fill:none; stroke:#000000; stroke-width:0.59904; stroke-linecap:round; stroke-linejoin:round; stroke-dasharray:none;" >
  <path d="M0 0 C0 0 9 0 9 0 " />
 </g>
 <g transform="translate(233.111, 140.862)" style="fill:none; stroke:#000000; stroke-width:0.59904; stroke-linecap:round; stroke-linejoin:round; stroke-dasharray:none;" >
  <path d="M0 0 C0 0 9 0 9 0 " />
 </g>
 <g transform="translate(242.111, 140.862)" style="fill:none; stroke:#000000; stroke-width:0.59904; stroke-linecap:round; stroke-linejoin:round; stroke-dasharray:none;" >
  <path d="M0 0 C0 0 7.201 12.48 7.201 12.48 " />
 </g>
 <g transform="translate(245.8, 124.5)" style="fill:#000000; fill-rule:evenodd; stroke:none; stroke-width:0.59904; stroke-linecap:butt; stroke-linejoin:miter; stroke-dasharray:none;" >
  <path d="M3.511 0 C1.42 0 0 1.54 0 3.82 C0 6.1 1.42 7.641 3.52 7.641 C4.4 7.641 5.19 7.371 5.781 6.871 C6.571 6.201 7.041 5.071 7.041 3.881 C7.041 1.53 5.651 0 3.511 0 Z M3.511 0.82 C5.091 0.82 6.111 2.02 6.111 3.86 C6.111 5.621 5.06 6.821 3.52 6.821 C1.971 6.821 0.931 5.621 0.931 3.82 C0.931 2.02 1.971 0.82 3.511 0.82 Z" />
 </g>
 <g transform="translate(242.831, 134.502)" style="fill:none; stroke:#000000; stroke-width:0.59904; stroke-linecap:round; stroke-linejoin:round; stroke-dasharray:none;" >
  <path d="M0 7.56 C0 7.56 4.441 0 4.441 0 " />
 </g>
 <g transform="translate(240.671, 133.182)" style="fill:none; stroke:#000000; stroke-width:0.59904; stroke-linecap:round; stroke-linejoin:round; stroke-dasharray:none;" >
  <path d="M0 7.68 C0 7.68 4.44 0 4.44 0 " />
 </g>
 <g transform="translate(241.991, 153.342)" style="fill:none; stroke:#000000; stroke-width:0.59904; stroke-linecap:round; stroke-linejoin:round; stroke-dasharray:none;" >
  <path d="M7.321 0 C7.321 0 0 12.48 0 12.48 " />
 </g>
 <g transform="translate(244.991, 156.102)" style="fill:none; stroke:#000000; stroke-width:0.59904; stroke-linecap:round; stroke-linejoin:round; stroke-dasharray:none;" >
  <path d="M5.64 0 C5.64 0 0 9.6 0 9.6 " />
 </g>
 <g transform="translate(241.991, 165.822)" style="fill:none; stroke:#000000; stroke-width:0.59904; stroke-linecap:round; stroke-linejoin:round; stroke-dasharray:none;" >
  <path d="M0 0 C0 0 7.2 12.48 7.2 12.48 " />
 </g>
 <g transform="translate(249.191, 178.302)" style="fill:none; stroke:#000000; stroke-width:0.59904; stroke-linecap:round; stroke-linejoin:round; stroke-dasharray:none;" >
  <path d="M0 0 C0 0 14.4 0 14.4 0 " />
 </g>
 <g transform="translate(250.871, 175.782)" style="fill:none; stroke:#000000; stroke-width:0.59904; stroke-linecap:round; stroke-linejoin:round; stroke-dasharray:none;" >
  <path d="M0 0 C0 0 11.04 0 11.04 0 " />
 </g>
 <g transform="translate(263.711, 165.822)" style="fill:none; stroke:#000000; stroke-width:0.59904; stroke-linecap:round; stroke-linejoin:round; stroke-dasharray:none;" >
  <path d="M0 12.48 C0 12.48 7.2 0 7.2 0 " />
 </g>
 <g transform="translate(263.591, 153.342)" style="fill:none; stroke:#000000; stroke-width:0.59904; stroke-linecap:round; stroke-linejoin:round; stroke-dasharray:none;" >
  <path d="M7.32 12.48 C7.32 12.48 0 0 0 0 " />
 </g>
 <g transform="translate(262.272, 156.102)" style="fill:none; stroke:#000000; stroke-width:0.59904; stroke-linecap:round; stroke-linejoin:round; stroke-dasharray:none;" >
  <path d="M5.639 9.6 C5.639 9.6 0 0 0 0 " />
 </g>
 <g transform="translate(249.312, 153.342)" style="fill:none; stroke:#000000; stroke-width:0.59904; stroke-linecap:round; stroke-linejoin:round; stroke-dasharray:none;" >
  <path d="M14.399 0 C14.399 0 0 0 0 0 " />
 </g>
 <g transform="translate(238.3, 186.75)" style="fill:#000000; fill-rule:evenodd; stroke:none; stroke-width:0.59904; stroke-linecap:butt; stroke-linejoin:miter; stroke-dasharray:none;" >
  <path d="M3.511 0 C1.42 0 0 1.54 0 3.82 C0 6.1 1.42 7.641 3.52 7.641 C4.4 7.641 5.19 7.371 5.781 6.871 C6.571 6.201 7.041 5.071 7.041 3.881 C7.041 1.53 5.651 0 3.511 0 Z M3.511 0.82 C5.091 0.82 6.111 2.02 6.111 3.86 C6.111 5.621 5.06 6.821 3.52 6.821 C1.971 6.821 0.931 5.621 0.931 3.82 C0.931 2.02 1.971 0.82 3.511 0.82 Z" />
 </g>
 <g transform="translate(231.75, 186.87)" style="fill:#000000; fill-rule:evenodd; stroke:none; stroke-width:0.59904; stroke-linecap:butt; stroke-linejoin:miter; stroke-dasharray:none;" >
  <path d="M4.681 3.971 C4.681 3.971 4.681 7.291 4.681 7.291 C4.681 7.291 5.61 7.291 5.61 7.291 C5.61 7.291 5.61 0 5.61 0 C5.61 0 4.681 0 4.681 0 C4.681 0 4.681 3.15 4.681 3.15 C4.681 3.15 0.93 3.15 0.93 3.15 C0.93 3.15 0.93 0 0.93 0 C0.93 0 0 0 0 0 C0 0 0 7.291 0 7.291 C0 7.291 0.941 7.291 0.941 7.291 C0.941 7.291 0.941 3.971 0.941 3.971 C0.941 3.971 4.681 3.971 4.681 3.971 Z" />
 </g>
 <g transform="translate(244.991, 178.302)" style="fill:none; stroke:#000000; stroke-width:0.59904; stroke-linecap:round; stroke-linejoin:round; stroke-dasharray:none;" >
  <path d="M4.2 0 C4.2 0 0 7.32 0 7.32 " />
 </g>
 <g transform="translate(267.3, 186.75)" style="fill:#000000; fill-rule:evenodd; stroke:none; stroke-width:0.59904; stroke-linecap:butt; stroke-linejoin:miter; stroke-dasharray:none;" >
  <path d="M3.511 0 C1.42 0 0 1.54 0 3.82 C0 6.1 1.42 7.641 3.52 7.641 C4.4 7.641 5.19 7.371 5.781 6.871 C6.571 6.201 7.041 5.071 7.041 3.881 C7.041 1.53 5.651 0 3.511 0 Z M3.511 0.82 C5.091 0.82 6.111 2.02 6.111 3.86 C6.111 5.621 5.06 6.821 3.52 6.821 C1.971 6.821 0.931 5.621 0.931 3.82 C0.931 2.02 1.971 0.82 3.511 0.82 Z" />
 </g>
 <g transform="translate(275.5, 186.87)" style="fill:#000000; fill-rule:evenodd; stroke:none; stroke-width:0.59904; stroke-linecap:butt; stroke-linejoin:miter; stroke-dasharray:none;" >
  <path d="M4.681 3.971 C4.681 3.971 4.681 7.291 4.681 7.291 C4.681 7.291 5.61 7.291 5.61 7.291 C5.61 7.291 5.61 0 5.61 0 C5.61 0 4.681 0 4.681 0 C4.681 0 4.681 3.15 4.681 3.15 C4.681 3.15 0.93 3.15 0.93 3.15 C0.93 3.15 0.93 0 0.93 0 C0.93 0 0 0 0 0 C0 0 0 7.291 0 7.291 C0 7.291 0.941 7.291 0.941 7.291 C0.941 7.291 0.941 3.971 0.941 3.971 C0.941 3.971 4.681 3.971 4.681 3.971 Z" />
 </g>
 <g transform="translate(263.711, 178.302)" style="fill:none; stroke:#000000; stroke-width:0.59904; stroke-linecap:round; stroke-linejoin:round; stroke-dasharray:none;" >
  <path d="M0 0 C0 0 4.2 7.32 4.2 7.32 " />
 </g>
 <g transform="translate(281.8, 162)" style="fill:#000000; fill-rule:evenodd; stroke:none; stroke-width:0.59904; stroke-linecap:butt; stroke-linejoin:miter; stroke-dasharray:none;" >
  <path d="M3.511 0 C1.42 0 0 1.54 0 3.82 C0 6.1 1.42 7.641 3.52 7.641 C4.4 7.641 5.19 7.371 5.781 6.871 C6.571 6.201 7.041 5.071 7.041 3.881 C7.041 1.53 5.651 0 3.511 0 Z M3.511 0.82 C5.091 0.82 6.111 2.02 6.111 3.86 C6.111 5.621 5.06 6.821 3.52 6.821 C1.971 6.821 0.931 5.621 0.931 3.82 C0.931 2.02 1.971 0.82 3.511 0.82 Z" />
 </g>
 <g transform="translate(290, 162.12)" style="fill:#000000; fill-rule:evenodd; stroke:none; stroke-width:0.59904; stroke-linecap:butt; stroke-linejoin:miter; stroke-dasharray:none;" >
  <path d="M4.681 3.971 C4.681 3.971 4.681 7.291 4.681 7.291 C4.681 7.291 5.61 7.291 5.61 7.291 C5.61 7.291 5.61 0 5.61 0 C5.61 0 4.681 0 4.681 0 C4.681 0 4.681 3.15 4.681 3.15 C4.681 3.15 0.93 3.15 0.93 3.15 C0.93 3.15 0.93 0 0.93 0 C0.93 0 0 0 0 0 C0 0 0 7.291 0 7.291 C0 7.291 0.941 7.291 0.941 7.291 C0.941 7.291 0.941 3.971 0.941 3.971 C0.941 3.971 4.681 3.971 4.681 3.971 Z" />
 </g>
 <g transform="translate(270.911, 165.822)" style="fill:none; stroke:#000000; stroke-width:0.59904; stroke-linecap:round; stroke-linejoin:round; stroke-dasharray:none;" >
  <path d="M0 0 C0 0 9 0 9 0 " />
 </g>
 <g transform="translate(120.191, 152.982)" style="fill:none; stroke:#000000; stroke-width:0.59904; stroke-linecap:round; stroke-linejoin:round; stroke-dasharray:none;" >
  <path d="M9 0 C9 0 0 0 0 0 " />
 </g>
 <g transform="translate(112.991, 152.982)" style="fill:none; stroke:#000000; stroke-width:0.59904; stroke-linecap:round; stroke-linejoin:round; stroke-dasharray:none;" >
  <path d="M7.2 0 C7.2 0 0 12.48 0 12.48 " />
 </g>
 <g transform="translate(109.3, 136.5)" style="fill:#000000; fill-rule:evenodd; stroke:none; stroke-width:0.59904; stroke-linecap:butt; stroke-linejoin:miter; stroke-dasharray:none;" >
  <path d="M3.511 0 C1.42 0 0 1.54 0 3.82 C0 6.1 1.42 7.641 3.52 7.641 C4.4 7.641 5.19 7.371 5.781 6.871 C6.571 6.201 7.041 5.071 7.041 3.881 C7.041 1.53 5.651 0 3.511 0 Z M3.511 0.82 C5.091 0.82 6.111 2.02 6.111 3.86 C6.111 5.621 5.06 6.821 3.52 6.821 C1.971 6.821 0.931 5.621 0.931 3.82 C0.931 2.02 1.971 0.82 3.511 0.82 Z" />
 </g>
 <g transform="translate(117.191, 145.302)" style="fill:none; stroke:#000000; stroke-width:0.59904; stroke-linecap:round; stroke-linejoin:round; stroke-dasharray:none;" >
  <path d="M4.44 7.68 C4.44 7.68 0 0 0 0 " />
 </g>
 <g transform="translate(115.031, 146.622)" style="fill:none; stroke:#000000; stroke-width:0.59904; stroke-linecap:round; stroke-linejoin:round; stroke-dasharray:none;" >
  <path d="M4.44 7.68 C4.44 7.68 0 0 0 0 " />
 </g>
 <g transform="translate(98.591, 165.462)" style="fill:none; stroke:#000000; stroke-width:0.59904; stroke-linecap:round; stroke-linejoin:round; stroke-dasharray:none;" >
  <path d="M14.4 0 C14.4 0 0 0 0 0 " />
 </g>
 <g transform="translate(100.272, 167.982)" style="fill:none; stroke:#000000; stroke-width:0.59904; stroke-linecap:round; stroke-linejoin:round; stroke-dasharray:none;" >
  <path d="M11.04 0 C11.04 0 0 0 0 0 " />
 </g>
 <g transform="translate(91.392, 165.462)" style="fill:none; stroke:#000000; stroke-width:0.59904; stroke-linecap:round; stroke-linejoin:round; stroke-dasharray:none;" >
  <path d="M7.199 0 C7.199 0 0 12.48 0 12.48 " />
 </g>
 <g transform="translate(91.392, 177.942)" style="fill:none; stroke:#000000; stroke-width:0.59904; stroke-linecap:round; stroke-linejoin:round; stroke-dasharray:none;" >
  <path d="M0 0 C0 0 7.079 12.48 7.079 12.48 " />
 </g>
 <g transform="translate(94.392, 178.182)" style="fill:none; stroke:#000000; stroke-width:0.59904; stroke-linecap:round; stroke-linejoin:round; stroke-dasharray:none;" >
  <path d="M0 0 C0 0 5.399 9.6 5.399 9.6 " />
 </g>
 <g transform="translate(98.471, 190.422)" style="fill:none; stroke:#000000; stroke-width:0.59904; stroke-linecap:round; stroke-linejoin:round; stroke-dasharray:none;" >
  <path d="M0 0 C0 0 14.52 0 14.52 0 " />
 </g>
 <g transform="translate(112.991, 177.942)" style="fill:none; stroke:#000000; stroke-width:0.59904; stroke-linecap:round; stroke-linejoin:round; stroke-dasharray:none;" >
  <path d="M0 12.48 C0 12.48 7.2 0 7.2 0 " />
 </g>
 <g transform="translate(111.671, 178.062)" style="fill:none; stroke:#000000; stroke-width:0.59904; stroke-linecap:round; stroke-linejoin:round; stroke-dasharray:none;" >
  <path d="M0 9.6 C0 9.6 5.52 0 5.52 0 " />
 </g>
 <g transform="translate(112.991, 165.462)" style="fill:none; stroke:#000000; stroke-width:0.59904; stroke-linecap:round; stroke-linejoin:round; stroke-dasharray:none;" >
  <path d="M7.2 12.48 C7.2 12.48 0 0 0 0 " />
 </g>
 <g transform="translate(116.8, 198.75)" style="fill:#000000; fill-rule:evenodd; stroke:none; stroke-width:0.59904; stroke-linecap:butt; stroke-linejoin:miter; stroke-dasharray:none;" >
  <path d="M3.511 0 C1.42 0 0 1.54 0 3.82 C0 6.1 1.42 7.641 3.52 7.641 C4.4 7.641 5.19 7.371 5.781 6.871 C6.571 6.201 7.041 5.071 7.041 3.881 C7.041 1.53 5.651 0 3.511 0 Z M3.511 0.82 C5.091 0.82 6.111 2.02 6.111 3.86 C6.111 5.621 5.06 6.821 3.52 6.821 C1.971 6.821 0.931 5.621 0.931 3.82 C0.931 2.02 1.971 0.82 3.511 0.82 Z" />
 </g>
 <g transform="translate(125, 198.87)" style="fill:#000000; fill-rule:evenodd; stroke:none; stroke-width:0.59904; stroke-linecap:butt; stroke-linejoin:miter; stroke-dasharray:none;" >
  <path d="M4.681 3.971 C4.681 3.971 4.681 7.291 4.681 7.291 C4.681 7.291 5.61 7.291 5.61 7.291 C5.61 7.291 5.61 0 5.61 0 C5.61 0 4.681 0 4.681 0 C4.681 0 4.681 3.15 4.681 3.15 C4.681 3.15 0.93 3.15 0.93 3.15 C0.93 3.15 0.93 0 0.93 0 C0.93 0 0 0 0 0 C0 0 0 7.291 0 7.291 C0 7.291 0.941 7.291 0.941 7.291 C0.941 7.291 0.941 3.971 0.941 3.971 C0.941 3.971 4.681 3.971 4.681 3.971 Z" />
 </g>
 <g transform="translate(112.991, 190.422)" style="fill:none; stroke:#000000; stroke-width:0.59904; stroke-linecap:round; stroke-linejoin:round; stroke-dasharray:none;" >
  <path d="M0 0 C0 0 4.2 7.2 4.2 7.2 " />
 </g>
 <g transform="translate(88.8, 199.25)" style="fill:#000000; fill-rule:evenodd; stroke:none; stroke-width:0.59904; stroke-linecap:butt; stroke-linejoin:miter; stroke-dasharray:none;" >
  <path d="M3.511 0 C1.42 0 0 1.54 0 3.82 C0 6.1 1.42 7.641 3.52 7.641 C4.4 7.641 5.19 7.371 5.781 6.871 C6.571 6.201 7.041 5.071 7.041 3.881 C7.041 1.53 5.651 0 3.511 0 Z M3.511 0.82 C5.091 0.82 6.111 2.02 6.111 3.86 C6.111 5.621 5.06 6.821 3.52 6.821 C1.971 6.821 0.931 5.621 0.931 3.82 C0.931 2.02 1.971 0.82 3.511 0.82 Z" />
 </g>
 <g transform="translate(82.25, 199.37)" style="fill:#000000; fill-rule:evenodd; stroke:none; stroke-width:0.59904; stroke-linecap:butt; stroke-linejoin:miter; stroke-dasharray:none;" >
  <path d="M4.681 3.971 C4.681 3.971 4.681 7.291 4.681 7.291 C4.681 7.291 5.61 7.291 5.61 7.291 C5.61 7.291 5.61 0 5.61 0 C5.61 0 4.681 0 4.681 0 C4.681 0 4.681 3.15 4.681 3.15 C4.681 3.15 0.93 3.15 0.93 3.15 C0.93 3.15 0.93 0 0.93 0 C0.93 0 0 0 0 0 C0 0 0 7.291 0 7.291 C0 7.291 0.941 7.291 0.941 7.291 C0.941 7.291 0.941 3.971 0.941 3.971 C0.941 3.971 4.681 3.971 4.681 3.971 Z" />
 </g>
 <g transform="translate(94.871, 190.422)" style="fill:none; stroke:#000000; stroke-width:0.59904; stroke-linecap:round; stroke-linejoin:round; stroke-dasharray:none;" >
  <path d="M3.6 0 C3.6 0 0 7.56 0 7.56 " />
 </g>
 <g transform="translate(73.3, 174)" style="fill:#000000; fill-rule:evenodd; stroke:none; stroke-width:0.59904; stroke-linecap:butt; stroke-linejoin:miter; stroke-dasharray:none;" >
  <path d="M3.511 0 C1.42 0 0 1.54 0 3.82 C0 6.1 1.42 7.641 3.52 7.641 C4.4 7.641 5.19 7.371 5.781 6.871 C6.571 6.201 7.041 5.071 7.041 3.881 C7.041 1.53 5.651 0 3.511 0 Z M3.511 0.82 C5.091 0.82 6.111 2.02 6.111 3.86 C6.111 5.621 5.06 6.821 3.52 6.821 C1.971 6.821 0.931 5.621 0.931 3.82 C0.931 2.02 1.971 0.82 3.511 0.82 Z" />
 </g>
 <g transform="translate(82.392, 177.942)" style="fill:none; stroke:#000000; stroke-width:0.59904; stroke-linecap:round; stroke-linejoin:round; stroke-dasharray:none;" >
  <path d="M9 0 C9 0 0 0 0 0 " />
 </g>
 <g transform="translate(69.671, 183.222)" style="fill:none; stroke:#000000; stroke-width:0.59904; stroke-linecap:round; stroke-linejoin:round; stroke-dasharray:none;" >
  <path d="M4.08 0 C4.08 0 0 7.08 0 7.08 " />
 </g>
 <g transform="translate(55.272, 190.302)" style="fill:none; stroke:#000000; stroke-width:0.59904; stroke-linecap:round; stroke-linejoin:round; stroke-dasharray:none;" >
  <path d="M14.399 0 C14.399 0 0 0 0 0 " />
 </g>
 <g transform="translate(70.05, 199.25)" style="fill:#000000; fill-rule:evenodd; stroke:none; stroke-width:0.59904; stroke-linecap:butt; stroke-linejoin:miter; stroke-dasharray:none;" >
  <path d="M3.511 0 C1.42 0 0 1.54 0 3.82 C0 6.1 1.42 7.641 3.52 7.641 C4.4 7.641 5.19 7.371 5.781 6.871 C6.571 6.201 7.041 5.071 7.041 3.881 C7.041 1.53 5.651 0 3.511 0 Z M3.511 0.82 C5.091 0.82 6.111 2.02 6.111 3.86 C6.111 5.621 5.06 6.821 3.52 6.821 C1.971 6.821 0.931 5.621 0.931 3.82 C0.931 2.02 1.971 0.82 3.511 0.82 Z" />
 </g>
 <g transform="translate(68.471, 190.302)" style="fill:none; stroke:#000000; stroke-width:0.59904; stroke-linecap:round; stroke-linejoin:round; stroke-dasharray:none;" >
  <path d="M0 0 C0 0 2.4 7.92 2.4 7.92 " />
 </g>
 <g transform="translate(70.511, 188.862)" style="fill:none; stroke:#000000; stroke-width:0.59904; stroke-linecap:round; stroke-linejoin:round; stroke-dasharray:none;" >
  <path d="M0 0 C0 0 2.64 8.64 2.64 8.64 " />
 </g>
 <g transform="translate(48.191, 177.822)" style="fill:none; stroke:#000000; stroke-width:0.59904; stroke-linecap:round; stroke-linejoin:round; stroke-dasharray:none;" >
  <path d="M7.081 12.48 C7.081 12.48 0 0 0 0 " />
 </g>
 <g transform="translate(46.871, 180.462)" style="fill:none; stroke:#000000; stroke-width:0.59904; stroke-linecap:round; stroke-linejoin:round; stroke-dasharray:none;" >
  <path d="M5.401 9.6 C5.401 9.6 0 0 0 0 " />
 </g>
 <g transform="translate(33.791, 177.822)" style="fill:none; stroke:#000000; stroke-width:0.59904; stroke-linecap:round; stroke-linejoin:round; stroke-dasharray:none;" >
  <path d="M14.4 0 C14.4 0 0 0 0 0 " />
 </g>
 <g transform="translate(26.591, 177.822)" style="fill:none; stroke:#000000; stroke-width:0.59904; stroke-linecap:round; stroke-linejoin:round; stroke-dasharray:none;" >
  <path d="M7.2 0 C7.2 0 0 12.36 0 12.36 " />
 </g>
 <g transform="translate(29.591, 180.582)" style="fill:none; stroke:#000000; stroke-width:0.59904; stroke-linecap:round; stroke-linejoin:round; stroke-dasharray:none;" >
  <path d="M5.52 0 C5.52 0 0 9.48 0 9.48 " />
 </g>
 <g transform="translate(26.591, 190.182)" style="fill:none; stroke:#000000; stroke-width:0.59904; stroke-linecap:round; stroke-linejoin:round; stroke-dasharray:none;" >
  <path d="M0 0 C0 0 7.2 12.48 7.2 12.48 " />
 </g>
 <g transform="translate(33.791, 202.662)" style="fill:none; stroke:#000000; stroke-width:0.59904; stroke-linecap:round; stroke-linejoin:round; stroke-dasharray:none;" >
  <path d="M0 0 C0 0 14.4 0 14.4 0 " />
 </g>
 <g transform="translate(35.471, 200.141)" style="fill:none; stroke:#000000; stroke-width:0.59904; stroke-linecap:round; stroke-linejoin:round; stroke-dasharray:none;" >
  <path d="M0 0 C0 0 11.04 0 11.04 0 " />
 </g>
 <g transform="translate(48.191, 190.302)" style="fill:none; stroke:#000000; stroke-width:0.59904; stroke-linecap:round; stroke-linejoin:round; stroke-dasharray:none;" >
  <path d="M0 12.36 C0 12.36 7.081 0 7.081 0 " />
 </g>
 <g transform="translate(23.05, 211.25)" style="fill:#000000; fill-rule:evenodd; stroke:none; stroke-width:0.59904; stroke-linecap:butt; stroke-linejoin:miter; stroke-dasharray:none;" >
  <path d="M3.511 0 C1.42 0 0 1.54 0 3.82 C0 6.1 1.42 7.641 3.52 7.641 C4.4 7.641 5.19 7.371 5.781 6.871 C6.571 6.201 7.041 5.071 7.041 3.881 C7.041 1.53 5.651 0 3.511 0 Z M3.511 0.82 C5.091 0.82 6.111 2.02 6.111 3.86 C6.111 5.621 5.06 6.821 3.52 6.821 C1.971 6.821 0.931 5.621 0.931 3.82 C0.931 2.02 1.971 0.82 3.511 0.82 Z" />
 </g>
 <g transform="translate(16.5, 211.37)" style="fill:#000000; fill-rule:evenodd; stroke:none; stroke-width:0.59904; stroke-linecap:butt; stroke-linejoin:miter; stroke-dasharray:none;" >
  <path d="M4.681 3.971 C4.681 3.971 4.681 7.291 4.681 7.291 C4.681 7.291 5.61 7.291 5.61 7.291 C5.61 7.291 5.61 0 5.61 0 C5.61 0 4.681 0 4.681 0 C4.681 0 4.681 3.15 4.681 3.15 C4.681 3.15 0.93 3.15 0.93 3.15 C0.93 3.15 0.93 0 0.93 0 C0.93 0 0 0 0 0 C0 0 0 7.291 0 7.291 C0 7.291 0.941 7.291 0.941 7.291 C0.941 7.291 0.941 3.971 0.941 3.971 C0.941 3.971 4.681 3.971 4.681 3.971 Z" />
 </g>
 <g transform="translate(29.471, 202.662)" style="fill:none; stroke:#000000; stroke-width:0.59904; stroke-linecap:round; stroke-linejoin:round; stroke-dasharray:none;" >
  <path d="M4.32 0 C4.32 0 0 7.32 0 7.32 " />
 </g>
 <g transform="translate(8.55, 186.25)" style="fill:#000000; fill-rule:evenodd; stroke:none; stroke-width:0.59904; stroke-linecap:butt; stroke-linejoin:miter; stroke-dasharray:none;" >
  <path d="M3.511 0 C1.42 0 0 1.54 0 3.82 C0 6.1 1.42 7.641 3.52 7.641 C4.4 7.641 5.19 7.371 5.781 6.871 C6.571 6.201 7.041 5.071 7.041 3.881 C7.041 1.53 5.651 0 3.511 0 Z M3.511 0.82 C5.091 0.82 6.111 2.02 6.111 3.86 C6.111 5.621 5.06 6.821 3.52 6.821 C1.971 6.821 0.931 5.621 0.931 3.82 C0.931 2.02 1.971 0.82 3.511 0.82 Z" />
 </g>
 <g transform="translate(2, 186.37)" style="fill:#000000; fill-rule:evenodd; stroke:none; stroke-width:0.59904; stroke-linecap:butt; stroke-linejoin:miter; stroke-dasharray:none;" >
  <path d="M4.681 3.971 C4.681 3.971 4.681 7.291 4.681 7.291 C4.681 7.291 5.61 7.291 5.61 7.291 C5.61 7.291 5.61 0 5.61 0 C5.61 0 4.681 0 4.681 0 C4.681 0 4.681 3.15 4.681 3.15 C4.681 3.15 0.93 3.15 0.93 3.15 C0.93 3.15 0.93 0 0.93 0 C0.93 0 0 0 0 0 C0 0 0 7.291 0 7.291 C0 7.291 0.941 7.291 0.941 7.291 C0.941 7.291 0.941 3.971 0.941 3.971 C0.941 3.971 4.681 3.971 4.681 3.971 Z" />
 </g>
 <g transform="translate(17.591, 190.182)" style="fill:none; stroke:#000000; stroke-width:0.59904; stroke-linecap:round; stroke-linejoin:round; stroke-dasharray:none;" >
  <path d="M9 0 C9 0 0 0 0 0 " />
 </g>
 <g transform="translate(23.05, 161.5)" style="fill:#000000; fill-rule:evenodd; stroke:none; stroke-width:0.59904; stroke-linecap:butt; stroke-linejoin:miter; stroke-dasharray:none;" >
  <path d="M3.511 0 C1.42 0 0 1.54 0 3.82 C0 6.1 1.42 7.641 3.52 7.641 C4.4 7.641 5.19 7.371 5.781 6.871 C6.571 6.201 7.041 5.071 7.041 3.881 C7.041 1.53 5.651 0 3.511 0 Z M3.511 0.82 C5.091 0.82 6.111 2.02 6.111 3.86 C6.111 5.621 5.06 6.821 3.52 6.821 C1.971 6.821 0.931 5.621 0.931 3.82 C0.931 2.02 1.971 0.82 3.511 0.82 Z" />
 </g>
 <g transform="translate(16.5, 161.62)" style="fill:#000000; fill-rule:evenodd; stroke:none; stroke-width:0.59904; stroke-linecap:butt; stroke-linejoin:miter; stroke-dasharray:none;" >
  <path d="M4.681 3.971 C4.681 3.971 4.681 7.291 4.681 7.291 C4.681 7.291 5.61 7.291 5.61 7.291 C5.61 7.291 5.61 0 5.61 0 C5.61 0 4.681 0 4.681 0 C4.681 0 4.681 3.15 4.681 3.15 C4.681 3.15 0.93 3.15 0.93 3.15 C0.93 3.15 0.93 0 0.93 0 C0.93 0 0 0 0 0 C0 0 0 7.291 0 7.291 C0 7.291 0.941 7.291 0.941 7.291 C0.941 7.291 0.941 3.971 0.941 3.971 C0.941 3.971 4.681 3.971 4.681 3.971 Z" />
 </g>
 <g transform="translate(29.711, 170.742)" style="fill:none; stroke:#000000; stroke-width:0.59904; stroke-linecap:round; stroke-linejoin:round; stroke-dasharray:none;" >
  <path d="M4.08 7.08 C4.08 7.08 0 0 0 0 " />
 </g>
 <g transform="translate(112.991, 115.902)" style="fill:none; stroke:#000000; stroke-width:0.59904; stroke-linecap:round; stroke-linejoin:round; stroke-dasharray:none;" >
  <path d="M4.2 7.32 C4.2 7.32 0 0 0 0 " />
 </g>
 <g transform="translate(98.591, 115.902)" style="fill:none; stroke:#000000; stroke-width:0.59904; stroke-linecap:round; stroke-linejoin:round; stroke-dasharray:none;" >
  <path d="M14.4 0 C14.4 0 0 0 0 0 " />
 </g>
 <g transform="translate(116.55, 99.5001)" style="fill:#000000; fill-rule:evenodd; stroke:none; stroke-width:0.59904; stroke-linecap:butt; stroke-linejoin:miter; stroke-dasharray:none;" >
  <path d="M3.511 0 C1.42 0 0 1.54 0 3.82 C0 6.1 1.42 7.641 3.52 7.641 C4.4 7.641 5.19 7.371 5.781 6.871 C6.571 6.201 7.041 5.071 7.041 3.881 C7.041 1.53 5.651 0 3.511 0 Z M3.511 0.82 C5.091 0.82 6.111 2.02 6.111 3.86 C6.111 5.621 5.06 6.821 3.52 6.821 C1.971 6.821 0.931 5.621 0.931 3.82 C0.931 2.02 1.971 0.82 3.511 0.82 Z" />
 </g>
 <g transform="translate(113.711, 109.422)" style="fill:none; stroke:#000000; stroke-width:0.59904; stroke-linecap:round; stroke-linejoin:round; stroke-dasharray:none;" >
  <path d="M0 7.68 C0 7.68 4.44 0 4.44 0 " />
 </g>
 <g transform="translate(111.551, 108.102)" style="fill:none; stroke:#000000; stroke-width:0.59904; stroke-linecap:round; stroke-linejoin:round; stroke-dasharray:none;" >
  <path d="M0 7.8 C0 7.8 4.44 0 4.44 0 " />
 </g>
 <g transform="translate(91.511, 103.542)" style="fill:none; stroke:#000000; stroke-width:0.59904; stroke-linecap:round; stroke-linejoin:round; stroke-dasharray:none;" >
  <path d="M7.08 12.36 C7.08 12.36 0 0 0 0 " />
 </g>
 <g transform="translate(90.191, 106.302)" style="fill:none; stroke:#000000; stroke-width:0.59904; stroke-linecap:round; stroke-linejoin:round; stroke-dasharray:none;" >
  <path d="M5.4 9.48 C5.4 9.48 0 0 0 0 " />
 </g>
 <g transform="translate(77.111, 103.542)" style="fill:none; stroke:#000000; stroke-width:0.59904; stroke-linecap:round; stroke-linejoin:round; stroke-dasharray:none;" >
  <path d="M14.4 0 C14.4 0 0 0 0 0 " />
 </g>
 <g transform="translate(69.911, 103.542)" style="fill:none; stroke:#000000; stroke-width:0.59904; stroke-linecap:round; stroke-linejoin:round; stroke-dasharray:none;" >
  <path d="M7.2 0 C7.2 0 0 12.48 0 12.48 " />
 </g>
 <g transform="translate(72.911, 106.302)" style="fill:none; stroke:#000000; stroke-width:0.59904; stroke-linecap:round; stroke-linejoin:round; stroke-dasharray:none;" >
  <path d="M5.521 0 C5.521 0 0 9.6 0 9.6 " />
 </g>
 <g transform="translate(69.911, 116.022)" style="fill:none; stroke:#000000; stroke-width:0.59904; stroke-linecap:round; stroke-linejoin:round; stroke-dasharray:none;" >
  <path d="M0 0 C0 0 7.321 12.48 7.321 12.48 " />
 </g>
 <g transform="translate(77.232, 128.502)" style="fill:none; stroke:#000000; stroke-width:0.59904; stroke-linecap:round; stroke-linejoin:round; stroke-dasharray:none;" >
  <path d="M0 0 C0 0 14.279 0 14.279 0 " />
 </g>
 <g transform="translate(78.911, 125.982)" style="fill:none; stroke:#000000; stroke-width:0.59904; stroke-linecap:round; stroke-linejoin:round; stroke-dasharray:none;" >
  <path d="M0 0 C0 0 10.92 0 10.92 0 " />
 </g>
 <g transform="translate(91.511, 115.902)" style="fill:none; stroke:#000000; stroke-width:0.59904; stroke-linecap:round; stroke-linejoin:round; stroke-dasharray:none;" >
  <path d="M0 12.6 C0 12.6 7.08 0 7.08 0 " />
 </g>
 <g transform="translate(66.55, 137)" style="fill:#000000; fill-rule:evenodd; stroke:none; stroke-width:0.59904; stroke-linecap:butt; stroke-linejoin:miter; stroke-dasharray:none;" >
  <path d="M3.511 0 C1.42 0 0 1.54 0 3.82 C0 6.1 1.42 7.641 3.52 7.641 C4.4 7.641 5.19 7.371 5.781 6.871 C6.571 6.201 7.041 5.071 7.041 3.881 C7.041 1.53 5.651 0 3.511 0 Z M3.511 0.82 C5.091 0.82 6.111 2.02 6.111 3.86 C6.111 5.621 5.06 6.821 3.52 6.821 C1.971 6.821 0.931 5.621 0.931 3.82 C0.931 2.02 1.971 0.82 3.511 0.82 Z" />
 </g>
 <g transform="translate(59.75, 137.12)" style="fill:#000000; fill-rule:evenodd; stroke:none; stroke-width:0.59904; stroke-linecap:butt; stroke-linejoin:miter; stroke-dasharray:none;" >
  <path d="M4.681 3.971 C4.681 3.971 4.681 7.291 4.681 7.291 C4.681 7.291 5.61 7.291 5.61 7.291 C5.61 7.291 5.61 0 5.61 0 C5.61 0 4.681 0 4.681 0 C4.681 0 4.681 3.15 4.681 3.15 C4.681 3.15 0.93 3.15 0.93 3.15 C0.93 3.15 0.93 0 0.93 0 C0.93 0 0 0 0 0 C0 0 0 7.291 0 7.291 C0 7.291 0.941 7.291 0.941 7.291 C0.941 7.291 0.941 3.971 0.941 3.971 C0.941 3.971 4.681 3.971 4.681 3.971 Z" />
 </g>
 <g transform="translate(72.911, 128.502)" style="fill:none; stroke:#000000; stroke-width:0.59904; stroke-linecap:round; stroke-linejoin:round; stroke-dasharray:none;" >
  <path d="M4.321 0 C4.321 0 0 7.32 0 7.32 " />
 </g>
 <g transform="translate(52.05, 112)" style="fill:#000000; fill-rule:evenodd; stroke:none; stroke-width:0.59904; stroke-linecap:butt; stroke-linejoin:miter; stroke-dasharray:none;" >
  <path d="M3.511 0 C1.42 0 0 1.54 0 3.82 C0 6.1 1.42 7.641 3.52 7.641 C4.4 7.641 5.19 7.371 5.781 6.871 C6.571 6.201 7.041 5.071 7.041 3.881 C7.041 1.53 5.651 0 3.511 0 Z M3.511 0.82 C5.091 0.82 6.111 2.02 6.111 3.86 C6.111 5.621 5.06 6.821 3.52 6.821 C1.971 6.821 0.931 5.621 0.931 3.82 C0.931 2.02 1.971 0.82 3.511 0.82 Z" />
 </g>
 <g transform="translate(45.25, 112.12)" style="fill:#000000; fill-rule:evenodd; stroke:none; stroke-width:0.59904; stroke-linecap:butt; stroke-linejoin:miter; stroke-dasharray:none;" >
  <path d="M4.681 3.971 C4.681 3.971 4.681 7.291 4.681 7.291 C4.681 7.291 5.61 7.291 5.61 7.291 C5.61 7.291 5.61 0 5.61 0 C5.61 0 4.681 0 4.681 0 C4.681 0 4.681 3.15 4.681 3.15 C4.681 3.15 0.93 3.15 0.93 3.15 C0.93 3.15 0.93 0 0.93 0 C0.93 0 0 0 0 0 C0 0 0 7.291 0 7.291 C0 7.291 0.941 7.291 0.941 7.291 C0.941 7.291 0.941 3.971 0.941 3.971 C0.941 3.971 4.681 3.971 4.681 3.971 Z" />
 </g>
 <g transform="translate(60.911, 116.022)" style="fill:none; stroke:#000000; stroke-width:0.59904; stroke-linecap:round; stroke-linejoin:round; stroke-dasharray:none;" >
  <path d="M9 0 C9 0 0 0 0 0 " />
 </g>
 <g transform="translate(66.3, 87.2501)" style="fill:#000000; fill-rule:evenodd; stroke:none; stroke-width:0.59904; stroke-linecap:butt; stroke-linejoin:miter; stroke-dasharray:none;" >
  <path d="M3.511 0 C1.42 0 0 1.54 0 3.82 C0 6.1 1.42 7.641 3.52 7.641 C4.4 7.641 5.19 7.371 5.781 6.871 C6.571 6.201 7.041 5.071 7.041 3.881 C7.041 1.53 5.651 0 3.511 0 Z M3.511 0.82 C5.091 0.82 6.111 2.02 6.111 3.86 C6.111 5.621 5.06 6.821 3.52 6.821 C1.971 6.821 0.931 5.621 0.931 3.82 C0.931 2.02 1.971 0.82 3.511 0.82 Z" />
 </g>
 <g transform="translate(73.031, 96.3421)" style="fill:none; stroke:#000000; stroke-width:0.59904; stroke-linecap:round; stroke-linejoin:round; stroke-dasharray:none;" >
  <path d="M4.08 7.2 C4.08 7.2 0 0 0 0 " />
 </g>
 <g transform="translate(72.791, 78.4621)" style="fill:none; stroke:#000000; stroke-width:0.59904; stroke-linecap:round; stroke-linejoin:round; stroke-dasharray:none;" >
  <path d="M0 7.32 C0 7.32 4.32 0 4.32 0 " />
 </g>
 <g transform="translate(69.791, 66.1021)" style="fill:none; stroke:#000000; stroke-width:0.59904; stroke-linecap:round; stroke-linejoin:round; stroke-dasharray:none;" >
  <path d="M7.32 12.36 C7.32 12.36 0 0 0 0 " />
 </g>
 <g transform="translate(88.05, 74.5001)" style="fill:#000000; fill-rule:evenodd; stroke:none; stroke-width:0.59904; stroke-linecap:butt; stroke-linejoin:miter; stroke-dasharray:none;" >
  <path d="M3.511 0 C1.42 0 0 1.54 0 3.82 C0 6.1 1.42 7.641 3.52 7.641 C4.4 7.641 5.19 7.371 5.781 6.871 C6.571 6.201 7.041 5.071 7.041 3.881 C7.041 1.53 5.651 0 3.511 0 Z M3.511 0.82 C5.091 0.82 6.111 2.02 6.111 3.86 C6.111 5.621 5.06 6.821 3.52 6.821 C1.971 6.821 0.931 5.621 0.931 3.82 C0.931 2.02 1.971 0.82 3.511 0.82 Z" />
 </g>
 <g transform="translate(76.392, 79.6621)" style="fill:none; stroke:#000000; stroke-width:0.59904; stroke-linecap:round; stroke-linejoin:round; stroke-dasharray:none;" >
  <path d="M0 0 C0 0 9.719 0 9.719 0 " />
 </g>
 <g transform="translate(76.272, 77.1411)" style="fill:none; stroke:#000000; stroke-width:0.59904; stroke-linecap:round; stroke-linejoin:round; stroke-dasharray:none;" >
  <path d="M0 0 C0 0 9.839 0 9.839 0 " />
 </g>
 <g transform="translate(69.791, 53.6221)" style="fill:none; stroke:#000000; stroke-width:0.59904; stroke-linecap:round; stroke-linejoin:round; stroke-dasharray:none;" >
  <path d="M0 12.48 C0 12.48 7.32 0 7.32 0 " />
 </g>
 <g transform="translate(68.471, 53.7421)" style="fill:none; stroke:#000000; stroke-width:0.59904; stroke-linecap:round; stroke-linejoin:round; stroke-dasharray:none;" >
  <path d="M0 9.6 C0 9.6 5.64 0 5.64 0 " />
 </g>
 <g transform="translate(69.911, 41.1411)" style="fill:none; stroke:#000000; stroke-width:0.59904; stroke-linecap:round; stroke-linejoin:round; stroke-dasharray:none;" >
  <path d="M7.2 12.481 C7.2 12.481 0 0 0 0 " />
 </g>
 <g transform="translate(55.511, 41.1411)" style="fill:none; stroke:#000000; stroke-width:0.59904; stroke-linecap:round; stroke-linejoin:round; stroke-dasharray:none;" >
  <path d="M14.4 0 C14.4 0 0 0 0 0 " />
 </g>
 <g transform="translate(57.191, 43.6621)" style="fill:none; stroke:#000000; stroke-width:0.59904; stroke-linecap:round; stroke-linejoin:round; stroke-dasharray:none;" >
  <path d="M11.041 0 C11.041 0 0 0 0 0 " />
 </g>
 <g transform="translate(48.312, 41.1411)" style="fill:none; stroke:#000000; stroke-width:0.59904; stroke-linecap:round; stroke-linejoin:round; stroke-dasharray:none;" >
  <path d="M7.199 0 C7.199 0 0 12.601 0 12.601 " />
 </g>
 <g transform="translate(48.312, 53.6221)" style="fill:none; stroke:#000000; stroke-width:0.59904; stroke-linecap:round; stroke-linejoin:round; stroke-dasharray:none;" >
  <path d="M0 0 C0 0 7.199 12.48 7.199 12.48 " />
 </g>
 <g transform="translate(51.312, 53.7421)" style="fill:none; stroke:#000000; stroke-width:0.59904; stroke-linecap:round; stroke-linejoin:round; stroke-dasharray:none;" >
  <path d="M0 0 C0 0 5.519 9.6 5.519 9.6 " />
 </g>
 <g transform="translate(55.511, 66.1021)" style="fill:none; stroke:#000000; stroke-width:0.59904; stroke-linecap:round; stroke-linejoin:round; stroke-dasharray:none;" >
  <path d="M0 0 C0 0 14.28 0 14.28 0 " />
 </g>
 <g transform="translate(30.3, 49.7501)" style="fill:#000000; fill-rule:evenodd; stroke:none; stroke-width:0.59904; stroke-linecap:butt; stroke-linejoin:miter; stroke-dasharray:none;" >
  <path d="M3.511 0 C1.42 0 0 1.54 0 3.82 C0 6.1 1.42 7.641 3.52 7.641 C4.4 7.641 5.19 7.371 5.781 6.871 C6.571 6.201 7.041 5.071 7.041 3.881 C7.041 1.53 5.651 0 3.511 0 Z M3.511 0.82 C5.091 0.82 6.111 2.02 6.111 3.86 C6.111 5.621 5.06 6.821 3.52 6.821 C1.971 6.821 0.931 5.621 0.931 3.82 C0.931 2.02 1.971 0.82 3.511 0.82 Z" />
 </g>
 <g transform="translate(23.5, 49.8701)" style="fill:#000000; fill-rule:evenodd; stroke:none; stroke-width:0.59904; stroke-linecap:butt; stroke-linejoin:miter; stroke-dasharray:none;" >
  <path d="M4.681 3.971 C4.681 3.971 4.681 7.291 4.681 7.291 C4.681 7.291 5.61 7.291 5.61 7.291 C5.61 7.291 5.61 0 5.61 0 C5.61 0 4.681 0 4.681 0 C4.681 0 4.681 3.15 4.681 3.15 C4.681 3.15 0.93 3.15 0.93 3.15 C0.93 3.15 0.93 0 0.93 0 C0.93 0 0 0 0 0 C0 0 0 7.291 0 7.291 C0 7.291 0.941 7.291 0.941 7.291 C0.941 7.291 0.941 3.971 0.941 3.971 C0.941 3.971 4.681 3.971 4.681 3.971 Z" />
 </g>
 <g transform="translate(39.312, 53.7421)" style="fill:none; stroke:#000000; stroke-width:0.59904; stroke-linecap:round; stroke-linejoin:round; stroke-dasharray:none;" >
  <path d="M9 0 C9 0 0 0 0 0 " />
 </g>
 <g transform="translate(44.55, 24.75)" style="fill:#000000; fill-rule:evenodd; stroke:none; stroke-width:0.59904; stroke-linecap:butt; stroke-linejoin:miter; stroke-dasharray:none;" >
  <path d="M3.511 0 C1.42 0 0 1.54 0 3.8203 C0 6.1001 1.42 7.6411 3.52 7.6411 C4.4 7.6411 5.19 7.3711 5.781 6.8711 C6.571 6.2011 7.041 5.0711 7.041 3.8808 C7.041 1.5302 5.651 0 3.511 0 Z M3.511 0.8203 C5.091 0.8203 6.111 2.0205 6.111 3.8603 C6.111 5.6211 5.06 6.8211 3.52 6.8211 C1.971 6.8211 0.931 5.6211 0.931 3.8203 C0.931 2.0205 1.971 0.8203 3.511 0.8203 Z" />
 </g>
 <g transform="translate(38, 24.8701)" style="fill:#000000; fill-rule:evenodd; stroke:none; stroke-width:0.59904; stroke-linecap:butt; stroke-linejoin:miter; stroke-dasharray:none;" >
  <path d="M4.681 3.9707 C4.681 3.9707 4.681 7.291 4.681 7.291 C4.681 7.291 5.61 7.291 5.61 7.291 C5.61 7.291 5.61 0 5.61 0 C5.61 0 4.681 0 4.681 0 C4.681 0 4.681 3.1504 4.681 3.1504 C4.681 3.1504 0.93 3.1504 0.93 3.1504 C0.93 3.1504 0.93 0 0.93 0 C0.93 0 0 0 0 0 C0 0 0 7.291 0 7.291 C0 7.291 0.941 7.291 0.941 7.291 C0.941 7.291 0.941 3.9707 0.941 3.9707 C0.941 3.9707 4.681 3.9707 4.681 3.9707 Z" />
 </g>
 <g transform="translate(51.312, 34.0621)" style="fill:none; stroke:#000000; stroke-width:0.59904; stroke-linecap:round; stroke-linejoin:round; stroke-dasharray:none;" >
  <path d="M4.199 7.079 C4.199 7.079 0 0 0 0 " />
 </g>
 <g transform="translate(73.55, 24.75)" style="fill:#000000; fill-rule:evenodd; stroke:none; stroke-width:0.59904; stroke-linecap:butt; stroke-linejoin:miter; stroke-dasharray:none;" >
  <path d="M3.511 0 C1.42 0 0 1.54 0 3.8203 C0 6.1001 1.42 7.6411 3.52 7.6411 C4.4 7.6411 5.19 7.3711 5.781 6.8711 C6.571 6.2011 7.041 5.0711 7.041 3.8808 C7.041 1.5302 5.651 0 3.511 0 Z M3.511 0.8203 C5.091 0.8203 6.111 2.0205 6.111 3.8603 C6.111 5.6211 5.06 6.8211 3.52 6.8211 C1.971 6.8211 0.931 5.6211 0.931 3.8203 C0.931 2.0205 1.971 0.8203 3.511 0.8203 Z" />
 </g>
 <g transform="translate(82, 24.8701)" style="fill:#000000; fill-rule:evenodd; stroke:none; stroke-width:0.59904; stroke-linecap:butt; stroke-linejoin:miter; stroke-dasharray:none;" >
  <path d="M4.681 3.9707 C4.681 3.9707 4.681 7.291 4.681 7.291 C4.681 7.291 5.61 7.291 5.61 7.291 C5.61 7.291 5.61 0 5.61 0 C5.61 0 4.681 0 4.681 0 C4.681 0 4.681 3.1504 4.681 3.1504 C4.681 3.1504 0.93 3.1504 0.93 3.1504 C0.93 3.1504 0.93 0 0.93 0 C0.93 0 0 0 0 0 C0 0 0 7.291 0 7.291 C0 7.291 0.941 7.291 0.941 7.291 C0.941 7.291 0.941 3.9707 0.941 3.9707 C0.941 3.9707 4.681 3.9707 4.681 3.9707 Z" />
 </g>
 <g transform="translate(69.911, 34.0621)" style="fill:none; stroke:#000000; stroke-width:0.59904; stroke-linecap:round; stroke-linejoin:round; stroke-dasharray:none;" >
  <path d="M0 7.079 C0 7.079 3.96 0 3.96 0 " />
 </g>
</svg>
