<?xml version="1.0" encoding="UTF-8" standalone="no"?>
<svg
   width="500"
   height="375"
   viewBox="0 0 500 375"
   fill="none"
   version="1.1"
   id="svg27"
   sodipodi:docname="practice.svg"
   inkscape:export-filename="practice.webp"
   inkscape:export-xdpi="96"
   inkscape:export-ydpi="96"
   inkscape:version="1.3.2 (091e20e, 2023-11-25)"
   xmlns:inkscape="http://www.inkscape.org/namespaces/inkscape"
   xmlns:sodipodi="http://sodipodi.sourceforge.net/DTD/sodipodi-0.dtd"
   xmlns="http://www.w3.org/2000/svg"
   xmlns:svg="http://www.w3.org/2000/svg">
  <defs
     id="defs27" />
  <sodipodi:namedview
     id="namedview27"
     pagecolor="#ffffff"
     bordercolor="#000000"
     borderopacity="0.25"
     inkscape:showpageshadow="2"
     inkscape:pageopacity="0.0"
     inkscape:pagecheckerboard="0"
     inkscape:deskcolor="#d1d1d1"
     inkscape:zoom="1.2586667"
     inkscape:cx="230.0053"
     inkscape:cy="206.5678"
     inkscape:window-width="1920"
     inkscape:window-height="1027"
     inkscape:window-x="0"
     inkscape:window-y="25"
     inkscape:window-maximized="1"
     inkscape:current-layer="svg27" />
  <style
     id="style1">
          .text { font: 400 11px 'Segoe UI', Ubuntu, Sans-Serif; fill: #fffefe }
          .title {fill: #fffefe}
          .line { stroke:#666666; stroke-width:1 }
          
	  text.gray { fill: #aaa; }
        </style>
  <rect
     x="-2.6659575"
     y="-2.6659575"
     rx="4.6008992"
     height="101.53595%"
     stroke="#444444"
     width="101.2198%"
     fill="#444444"
     stroke-opacity="1"
     id="rect1"
     style="stroke-width:1.02402" />
  <g
     transform="translate(25, 35)"
     id="g4">
    <g
       transform="translate(0, 0)"
       font-family="Verdana, Microsoft Yahei"
       text-rendering="geometricPrecision"
       font-size="18"
       id="g3">
      <text
         x="0"
         y="0"
         fill="#e67e22"
         font-weight="bold"
         textLength="50.09940000000001"
         id="text1">
      q779
    </text>
      <svg
         x="55.09940000000001"
         y="-14"
         width="18"
         height="18"
         viewBox="0 0 18 18"
         fill="#5eb95e"
         style="margin-bottom: -3px;"
         version="1.1"
         id="svg1">
        <path
           d="M16 8C16 6.84375 15.25 5.84375 14.1875 5.4375C14.6562 4.4375 14.4688 3.1875 13.6562 2.34375C12.8125 1.53125 11.5625 1.34375 10.5625 1.8125C10.1562 0.75 9.15625 0 8 0C6.8125 0 5.8125 0.75 5.40625 1.8125C4.40625 1.34375 3.15625 1.53125 2.34375 2.34375C1.5 3.1875 1.3125 4.4375 1.78125 5.4375C0.71875 5.84375 0 6.84375 0 8C0 9.1875 0.71875 10.1875 1.78125 10.5938C1.3125 11.5938 1.5 12.8438 2.34375 13.6562C3.15625 14.5 4.40625 14.6875 5.40625 14.2188C5.8125 15.2812 6.8125 16 8 16C9.15625 16 10.1562 15.2812 10.5625 14.2188C11.5938 14.6875 12.8125 14.5 13.6562 13.6562C14.4688 12.8438 14.6562 11.5938 14.1875 10.5938C15.25 10.1875 16 9.1875 16 8ZM11.4688 6.625L7.375 10.6875C7.21875 10.8438 7 10.8125 6.875 10.6875L4.5 8.3125C4.375 8.1875 4.375 7.96875 4.5 7.8125L5.3125 7C5.46875 6.875 5.6875 6.875 5.8125 7.03125L7.125 8.34375L10.1562 5.34375C10.3125 5.1875 10.5312 5.1875 10.6562 5.34375L11.4688 6.15625C11.5938 6.28125 11.5938 6.5 11.4688 6.625Z"
           id="path1" />
      </svg>
      <text
         x="78.0994"
         y="0"
         class="title"
         font-weight="normal"
         id="text2">
      的练习情况
    </text>
      <text
         x="290"
         y="0"
         class="title"
         font-weight="normal"
         font-size="13px"
         id="text3">
      已通过1813题, 被4755人吊打
    </text>
    </g>
  </g>
  <g
     transform="translate(25, 60)"
     id="g27">
    <line
       x1="90"
       y1="0"
       x2="90"
       y2="270"
       class="line"
       id="line4" />
    <text
       x="87"
       y="280"
       class="text"
       id="text4">0</text>
    <line
       x1="165"
       y1="0"
       x2="165"
       y2="270"
       class="line"
       id="line5" />
    <text
       x="160"
       y="280"
       class="text"
       id="text5">100</text>
    <line
       x1="240"
       y1="0"
       x2="240"
       y2="270"
       class="line"
       id="line6" />
    <text
       x="235"
       y="280"
       class="text"
       id="text6">200</text>
    <line
       x1="315"
       y1="0"
       x2="315"
       y2="270"
       class="line"
       id="line7" />
    <text
       x="310"
       y="280"
       class="text"
       id="text7">300</text>
    <line
       x1="390"
       y1="0"
       x2="390"
       y2="270"
       class="line"
       id="line8" />
    <text
       x="385"
       y="280"
       class="text"
       id="text8">400</text>
    <g
       transform="translate(0, 0)"
       id="g10">
      <text
         x="0"
         y="15"
         class="text"
         id="text9">未评定</text>
      <text
         x="107.48129675810473"
         y="15"
         class="text"
         id="text10">9题</text>
      <rect
         height="11"
         fill="#bfbfbf"
         rx="5"
         ry="5"
         x="90"
         y="5"
         width="7.4812967581047385"
         id="rect10" />
    </g>
    <g
       transform="translate(0, 30)"
       id="g12">
      <text
         x="0"
         y="15"
         class="text"
         id="text11">入门</text>
      <text
         x="299.75062344139656"
         y="15"
         class="text"
         id="text12">266题</text>
      <rect
         height="11"
         fill="#fe4c61"
         rx="5"
         ry="5"
         x="90"
         y="5"
         width="199.75062344139653"
         id="rect12" />
    </g>
    <g
       transform="translate(0, 60)"
       id="g14">
      <text
         x="0"
         y="15"
         class="text"
         id="text13">普及-</text>
      <text
         x="343.8902743142145"
         y="15"
         class="text"
         id="text14">325题</text>
      <rect
         height="11"
         fill="#f39c11"
         rx="5"
         ry="5"
         x="90"
         y="5"
         width="243.89027431421445"
         id="rect14" />
    </g>
    <g
       transform="translate(0, 90)"
       id="g16">
      <text
         x="0"
         y="15"
         class="text"
         id="text15">普及/提高-</text>
      <text
         x="304.9875311720698"
         y="15"
         class="text"
         id="text16">273题</text>
      <rect
         height="11"
         fill="#ffc116"
         rx="5"
         ry="5"
         x="90"
         y="5"
         width="204.98753117206982"
         id="rect16" />
    </g>
    <g
       transform="translate(0, 120)"
       id="g18">
      <text
         x="0"
         y="15"
         class="text"
         id="text17">普及+/提高</text>
      <text
         x="326.68329177057353"
         y="15"
         class="text"
         id="text18">302题</text>
      <rect
         height="11"
         fill="#52c41a"
         rx="5"
         ry="5"
         x="90"
         y="5"
         width="226.68329177057356"
         id="rect18" />
    </g>
    <g
       transform="translate(0, 150)"
       id="g20">
      <text
         x="0"
         y="15"
         class="text"
         id="text19">提高+/省选-</text>
      <text
         x="355.1122194513716"
         y="15"
         class="text"
         id="text20">340题</text>
      <rect
         height="11"
         fill="#3498db"
         rx="5"
         ry="5"
         x="90"
         y="5"
         width="255.11221945137157"
         id="rect20" />
    </g>
    <g
       transform="translate(0, 180)"
       id="g22">
      <text
         x="0"
         y="15"
         class="text"
         id="text21">省选/NOI-</text>
      <text
         x="300.498753117207"
         y="15"
         class="text"
         id="text22">267题</text>
      <rect
         height="11"
         fill="#9d3dcf"
         rx="5"
         ry="5"
         x="90"
         y="5"
         width="200.49875311720697"
         id="rect22" />
    </g>
    <g
       transform="translate(0, 210)"
       id="g24">
      <text
         x="0"
         y="15"
         class="text"
         id="text23">NOI/NOI+/CTSC</text>
      <text
         x="123.94014962593516"
         y="15"
         class="text"
         id="text24">31题</text>
      <rect
         height="11"
         fill="#0e1d69"
         rx="5"
         ry="5"
         x="90"
         y="5"
         width="23.940149625935163"
         id="rect24" />
    </g>
    <g
       transform="translate(0, 240)"
       id="g26">
      <text
         x="0"
         y="15"
         class="text"
         id="text25">尝试过</text>
      <text
         x="111.97007481296758"
         y="15"
         class="text"
         id="text26">15题</text>
      <rect
         height="11"
         fill="#996600"
         rx="5"
         ry="5"
         x="90"
         y="5"
         width="11.970074812967582"
         id="rect26" />
    </g>
    <text
       x="0"
       y="295"
       class="text gray"
       id="text27">更新于 2024-06-12 16:31:48 UTC+8:00</text>
  </g>
</svg>
