<?xml version="1.0" encoding="UTF-8" standalone="no"?>
<!-- Created with Inkscape (http://www.inkscape.org/) -->

<svg
   xmlns:dc="http://purl.org/dc/elements/1.1/"
   xmlns:cc="http://creativecommons.org/ns#"
   xmlns:rdf="http://www.w3.org/1999/02/22-rdf-syntax-ns#"
   xmlns:svg="http://www.w3.org/2000/svg"
   xmlns="http://www.w3.org/2000/svg"
   xmlns:sodipodi="http://sodipodi.sourceforge.net/DTD/sodipodi-0.dtd"
   xmlns:inkscape="http://www.inkscape.org/namespaces/inkscape"
   width="230"
   height="435"
   id="svg2"
   inkscape:label="Pozadí"
   sodipodi:version="0.32"
   inkscape:version="0.48.2 r9819"
   version="1.0"
   sodipodi:docname="HLA[1].svg"
   inkscape:output_extension="org.inkscape.output.svg.inkscape">
  <defs
     id="defs3265">
    <marker
       inkscape:stockid="TriangleOutL"
       orient="auto"
       refY="0"
       refX="0"
       id="TriangleOutL"
       style="overflow:visible">
      <path
         id="path3894"
         d="M 5.77,0 L -2.88,5 L -2.88,-5 L 5.77,0 z"
         style="fill-rule:evenodd;stroke:#000000;stroke-width:1pt;marker-start:none"
         transform="scale(0.8,0.8)" />
    </marker>
    <inkscape:perspective
       sodipodi:type="inkscape:persp3d"
       inkscape:vp_x="0 : 526.18109 : 1"
       inkscape:vp_y="0 : 1000 : 0"
       inkscape:vp_z="744.09448 : 526.18109 : 1"
       inkscape:persp3d-origin="372.04724 : 350.78739 : 1"
       id="perspective3271" />
  </defs>
  <sodipodi:namedview
     id="base"
     pagecolor="#ffffff"
     bordercolor="#666666"
     borderopacity="1.0"
     inkscape:pageopacity="0.0"
     inkscape:pageshadow="2"
     inkscape:zoom="1"
     inkscape:cx="145.38253"
     inkscape:cy="199.72004"
     inkscape:document-units="px"
     inkscape:current-layer="layer1"
     showgrid="false"
     inkscape:window-width="1280"
     inkscape:window-height="746"
     inkscape:window-x="0"
     inkscape:window-y="22"
     showguides="true"
     inkscape:guide-bbox="true"
     inkscape:window-maximized="0" />
  <metadata
     id="metadata3268">
    <rdf:RDF>
      <cc:Work
         rdf:about="">
        <dc:format>image/svg+xml</dc:format>
        <dc:type
           rdf:resource="http://purl.org/dc/dcmitype/StillImage" />
        <dc:title></dc:title>
      </cc:Work>
    </rdf:RDF>
  </metadata>
  <g
     inkscape:label="Vrstva 1"
     inkscape:groupmode="layer"
     id="layer1">
    <path
       style="fill:none;fill-rule:evenodd;stroke:#000000;stroke-width:0.43077138px;stroke-linecap:butt;stroke-linejoin:miter;stroke-opacity:1"
       d="M 90.178537,66.309704 L 90.178537,383.02658"
       id="path5686" />
    <g
       style="font-size:17.23085785px;font-style:normal;font-weight:bold;fill:#000000;fill-opacity:1;stroke:none;font-family:Bitstream Vera Sans"
       id="text5688">
      <path
         d="m 97.323868,33.020157 0,-12.884766 1.705078,0 0,5.291016 6.697264,0 0,-5.291016 1.70508,0 0,12.884766 -1.70508,0 0,-6.073242 -6.697264,0 0,6.073242 z"
         style="font-size:18px;text-align:center;text-anchor:middle"
         id="path3315" />
      <path
         d="m 110.20863,33.020157 0,-12.884766 1.70508,0 0,11.364258 6.3457,0 0,1.520508 z"
         style="font-size:18px;text-align:center;text-anchor:middle"
         id="path3317" />
      <path
         d="m 118.88344,33.020157 4.94824,-12.884766 1.83691,0 5.27344,12.884766 -1.94238,0 -1.50293,-3.902344 -5.3877,0 -1.41504,3.902344 z m 3.71777,-5.291016 4.36817,0 -1.34473,-3.568359 c -0.41016,-1.083975 -0.71485,-1.974599 -0.91406,-2.671875 -0.16407,0.826182 -0.39552,1.646494 -0.69434,2.460937 z"
         style="font-size:18px;text-align:center;text-anchor:middle"
         id="path3319" />
      <path
         d="m 56.191055,55.520157 0,-12.884766 2.566407,0 3.049804,9.123047 c 0.281243,0.849612 0.486321,1.485354 0.615235,1.907227 0.146476,-0.468748 0.374992,-1.157224 0.685546,-2.06543 l 3.084961,-8.964844 2.293946,0 0,12.884766 -1.643555,0 0,-10.78418 -3.744141,10.78418 -1.538086,0 -3.726562,-10.96875 0,10.96875 z"
         style="font-size:18px;text-align:center;text-anchor:middle"
         id="path3321" />
      <path
         d="m 71.308243,55.520157 0,-12.884766 1.705078,0 0,5.291016 6.697266,0 0,-5.291016 1.705078,0 0,12.884766 -1.705078,0 0,-6.073242 -6.697266,0 0,6.073242 z"
         style="font-size:18px;text-align:center;text-anchor:middle"
         id="path3323" />
      <path
         d="m 93.45668,51.002579 1.705078,0.430664 c -0.357433,1.400393 -1.000499,2.468263 -1.929199,3.203613 -0.92872,0.735352 -2.063973,1.103027 -3.405762,1.103027 -1.388677,0 -2.51807,-0.282714 -3.388183,-0.848144 -0.87012,-0.565429 -1.532229,-1.384275 -1.986328,-2.456543 -0.454103,-1.072262 -0.681153,-2.223628 -0.681153,-3.454102 0,-1.341789 0.256347,-2.512198 0.769043,-3.51123 0.512694,-0.999012 1.242185,-1.757801 2.188477,-2.276367 0.946284,-0.518542 1.987787,-0.777819 3.124512,-0.777832 1.289054,1.3e-5 2.373037,0.328137 3.251953,0.984375 0.878895,0.656261 1.491199,1.579112 1.836914,2.768554 l -1.678711,0.395508 c -0.298838,-0.93749 -0.732432,-1.620106 -1.300781,-2.047851 -0.568368,-0.427723 -1.283211,-0.64159 -2.144532,-0.641602 -0.99024,1.2e-5 -1.817876,0.237316 -2.48291,0.711914 -0.665043,0.47462 -1.132327,1.111826 -1.401855,1.911621 -0.269534,0.799813 -0.4043,1.624519 -0.404297,2.474121 -3e-6,1.095709 0.159665,2.052251 0.479004,2.869629 0.319332,0.817386 0.815914,1.428225 1.489746,1.83252 0.673823,0.404298 1.403314,0.606446 2.188476,0.606445 0.955071,1e-6 1.763664,-0.275389 2.425782,-0.826172 0.662099,-0.550778 1.110341,-1.36816 1.344726,-2.452148 z"
         style="font-size:18px;text-align:center;text-anchor:middle"
         id="path3325" />
      <path
         d="m 111.45668,51.002579 1.70508,0.430664 c -0.35744,1.400393 -1.0005,2.468263 -1.9292,3.203613 -0.92872,0.735352 -2.06397,1.103027 -3.40576,1.103027 -1.38868,0 -2.51807,-0.282714 -3.38819,-0.848144 -0.87012,-0.565429 -1.53222,-1.384275 -1.98632,-2.456543 -0.45411,-1.072262 -0.68116,-2.223628 -0.68116,-3.454102 0,-1.341789 0.25635,-2.512198 0.76905,-3.51123 0.51269,-0.999012 1.24218,-1.757801 2.18847,-2.276367 0.94629,-0.518542 1.98779,-0.777819 3.12451,-0.777832 1.28906,1.3e-5 2.37304,0.328137 3.25196,0.984375 0.87889,0.656261 1.4912,1.579112 1.83691,2.768554 l -1.67871,0.395508 c -0.29884,-0.93749 -0.73243,-1.620106 -1.30078,-2.047851 -0.56837,-0.427723 -1.28321,-0.64159 -2.14453,-0.641602 -0.99024,1.2e-5 -1.81788,0.237316 -2.48291,0.711914 -0.66504,0.47462 -1.13233,1.111826 -1.40186,1.911621 -0.26953,0.799813 -0.4043,1.624519 -0.40429,2.474121 -10e-6,1.095709 0.15966,2.052251 0.479,2.869629 0.31933,0.817386 0.81591,1.428225 1.48975,1.83252 0.67382,0.404298 1.40331,0.606446 2.18847,0.606445 0.95507,1e-6 1.76367,-0.275389 2.42578,-0.826172 0.6621,-0.550778 1.11034,-1.36816 1.34473,-2.452148 z"
         style="font-size:18px;text-align:center;text-anchor:middle"
         id="path3327" />
      <path
         d="m 114.48012,50.853165 c 0,-1.72851 0.48047,-3.008782 1.4414,-3.840821 0.80274,-0.691397 1.78125,-1.037099 2.93555,-1.037109 1.2832,1e-5 2.33202,0.420419 3.14649,1.26123 0.81444,0.840828 1.22167,2.002448 1.22167,3.484864 0,1.201175 -0.18018,2.145998 -0.54052,2.834472 -0.36036,0.688478 -0.88478,1.223146 -1.57324,1.604004 -0.68849,0.38086 -1.43995,0.571289 -2.2544,0.571289 -1.30664,0 -2.36279,-0.418945 -3.16846,-1.256836 -0.80566,-0.837888 -1.20849,-2.044918 -1.20849,-3.621093 z m 1.62597,0 c 0,1.195316 0.26074,2.090334 0.78223,2.685058 0.52148,0.594728 1.17773,0.892091 1.96875,0.89209 0.78515,1e-6 1.43847,-0.298827 1.95996,-0.896484 0.52148,-0.597654 0.78222,-1.508786 0.78223,-2.733399 -1e-5,-1.154291 -0.26222,-2.028802 -0.78662,-2.623535 -0.52442,-0.594718 -1.17628,-0.892081 -1.95557,-0.89209 -0.79102,9e-6 -1.44727,0.295907 -1.96875,0.887696 -0.52149,0.591803 -0.78223,1.485357 -0.78223,2.680664 z"
         style="font-size:18px;text-align:center;text-anchor:middle"
         id="path3329" />
      <path
         d="m 125.08852,55.520157 0,-9.333985 1.41504,0 0,1.309571 c 0.29296,-0.457023 0.68261,-0.824698 1.16894,-1.103028 0.48632,-0.27831 1.04003,-0.41747 1.66113,-0.41748 0.6914,1e-5 1.2583,0.143564 1.70069,0.430664 0.44237,0.287118 0.75438,0.688485 0.93603,1.204102 0.73827,-1.089835 1.69921,-1.634756 2.88281,-1.634766 0.92577,1e-5 1.63769,0.256357 2.13575,0.769043 0.49803,0.512704 0.74705,1.302254 0.74707,2.368652 l 0,6.407227 -1.57325,0 0,-5.879883 c -1e-5,-0.632806 -0.0513,-1.088372 -0.1538,-1.366699 -0.10255,-0.278313 -0.28859,-0.502434 -0.55811,-0.672363 -0.26954,-0.169914 -0.58595,-0.254875 -0.94922,-0.254883 -0.65626,8e-6 -1.20118,0.218269 -1.63476,0.654785 -0.43361,0.43653 -0.6504,1.13526 -0.65039,2.096191 l 0,5.422852 -1.58204,0 0,-6.064453 c 0,-0.703118 -0.12891,-1.230462 -0.38671,-1.582032 -0.25782,-0.351554 -0.6797,-0.527335 -1.26563,-0.527343 -0.44532,8e-6 -0.85694,0.117195 -1.23486,0.351562 -0.37794,0.234383 -0.65186,0.577156 -0.82178,1.028321 -0.16992,0.451178 -0.25489,1.101568 -0.25488,1.951171 l 0,4.842774 z"
         style="font-size:18px;text-align:center;text-anchor:middle"
         id="path3331" />
      <path
         d="m 140.10023,59.097305 0,-12.911133 1.44141,0 0,1.212891 c 0.33984,-0.474601 0.72363,-0.830557 1.15137,-1.067871 0.42773,-0.237295 0.94628,-0.355947 1.55566,-0.355957 0.79687,1e-5 1.5,0.205087 2.10938,0.615234 0.60936,0.410165 1.06932,0.988778 1.37988,1.73584 0.31054,0.747077 0.46581,1.565924 0.46582,2.456543 -1e-5,0.955082 -0.1714,1.814945 -0.51416,2.57959 -0.34278,0.76465 -0.84083,1.350587 -1.49414,1.757813 -0.65333,0.407226 -1.34034,0.610839 -2.06104,0.610839 -0.52734,0 -1.00049,-0.111328 -1.41943,-0.333984 -0.41895,-0.222656 -0.76319,-0.503906 -1.03271,-0.84375 l 0,4.543945 z m 1.43262,-8.191406 c 0,1.201175 0.24316,2.08887 0.72949,2.663086 0.48633,0.57422 1.0752,0.861329 1.76661,0.861328 0.70312,1e-6 1.30517,-0.297362 1.80615,-0.89209 0.50097,-0.594724 0.75146,-1.51611 0.75146,-2.76416 0,-1.189447 -0.24463,-2.080071 -0.73388,-2.671875 -0.48927,-0.591789 -1.07374,-0.887687 -1.75342,-0.887695 -0.67383,8e-6 -1.27003,0.314949 -1.78858,0.944824 -0.51855,0.62989 -0.77783,1.545416 -0.77783,2.746582 z"
         style="font-size:18px;text-align:center;text-anchor:middle"
         id="path3333" />
      <path
         d="m 150.08461,55.520157 0,-12.884766 1.58203,0 0,12.884766 z"
         style="font-size:18px;text-align:center;text-anchor:middle"
         id="path3335" />
      <path
         d="m 160.51723,52.514297 1.63476,0.202149 c -0.25782,0.95508 -0.73536,1.69629 -1.43261,2.223633 -0.69728,0.527344 -1.5879,0.791015 -2.67188,0.791015 -1.36524,0 -2.44776,-0.42041 -3.24756,-1.26123 -0.7998,-0.840819 -1.19971,-2.020017 -1.19971,-3.537598 0,-1.570306 0.4043,-2.789055 1.2129,-3.65625 0.80859,-0.867178 1.85741,-1.300771 3.14648,-1.300781 1.24804,1e-5 2.26757,0.424814 3.05859,1.274414 0.79101,0.849617 1.18652,2.044928 1.18653,3.585938 -1e-5,0.09375 -0.003,0.234379 -0.009,0.421875 l -6.96094,0 c 0.0586,1.025393 0.34863,1.810549 0.87012,2.355468 0.52148,0.544924 1.17187,0.817384 1.95117,0.817383 0.58007,1e-6 1.07519,-0.152342 1.48535,-0.457031 0.41015,-0.304686 0.73535,-0.791013 0.97559,-1.458985 z m -5.19434,-2.557617 5.21192,0 c -0.0703,-0.78515 -0.26954,-1.374016 -0.59766,-1.766601 -0.50391,-0.609367 -1.15723,-0.914055 -1.95996,-0.914063 -0.72657,8e-6 -1.33741,0.243172 -1.83252,0.729492 -0.49512,0.486336 -0.76905,1.136726 -0.82178,1.951172 z"
         style="font-size:18px;text-align:center;text-anchor:middle"
         id="path3337" />
      <path
         d="m 163.09242,55.520157 3.41016,-4.851563 -3.15527,-4.482422 1.97753,0 1.43262,2.188477 c 0.26953,0.416022 0.48633,0.764655 0.65039,1.045898 0.25781,-0.386712 0.49511,-0.729485 0.71192,-1.02832 l 1.57324,-2.206055 1.88965,0 -3.22559,4.394532 3.47168,4.939453 -1.94238,0 -1.91602,-2.900391 -0.50976,-0.782226 -2.45215,3.682617 z"
         style="font-size:18px;text-align:center;text-anchor:middle"
         id="path3339" />
    </g>
    <g
       style="font-size:17.23085785px;font-style:normal;font-weight:bold;fill:#000000;fill-opacity:1;stroke:none;font-family:Bitstream Vera Sans"
       id="text5694">
      <path
         d="m 34.287529,409.28955 0,-11.45312 1.40625,0 0,4.10937 c 0.656247,-0.76041 1.484371,-1.14062 2.484375,-1.14062 0.614578,0 1.148431,0.1211 1.601562,0.36328 0.453118,0.24219 0.777337,0.57683 0.972657,1.0039 0.195305,0.42709 0.292961,1.04688 0.292968,1.85938 l 0,5.25781 -1.40625,0 0,-5.25781 c -6e-6,-0.70312 -0.15235,-1.21484 -0.457031,-1.53516 -0.304693,-0.3203 -0.735682,-0.48046 -1.292969,-0.48047 -0.41667,10e-6 -0.808597,0.10808 -1.175781,0.32422 -0.36719,0.21615 -0.628909,0.50912 -0.785156,0.87891 -0.156253,0.3698 -0.234377,0.88021 -0.234375,1.53125 l 0,4.53906 z"
         style="font-size:16px;text-align:center;text-anchor:middle"
         id="path3282" />
      <path
         d="m 48.631279,409.28955 0,-1.21875 c -0.645839,0.9375 -1.523442,1.40625 -2.632813,1.40625 -0.489586,0 -0.946617,-0.0937 -1.371093,-0.28125 -0.424481,-0.1875 -0.739585,-0.42318 -0.945313,-0.70703 -0.20573,-0.28385 -0.350261,-0.63151 -0.433594,-1.04297 -0.05729,-0.27604 -0.08594,-0.71354 -0.08594,-1.3125 l 0,-5.14062 1.40625,0 0,4.60156 c -2e-6,0.73438 0.02864,1.22917 0.08594,1.48437 0.08854,0.3698 0.276039,0.66016 0.5625,0.8711 0.286455,0.21094 0.640622,0.3164 1.0625,0.3164 0.421871,0 0.817704,-0.10807 1.1875,-0.32422 0.369786,-0.21614 0.631505,-0.51041 0.785157,-0.88281 0.153639,-0.37239 0.230462,-0.91276 0.230468,-1.62109 l 0,-4.44531 1.40625,0 0,8.29687 z"
         style="font-size:16px;text-align:center;text-anchor:middle"
         id="path3284" />
      <path
         d="m 52.100029,409.28955 0,-8.29687 1.257812,0 0,1.16406 c 0.260415,-0.40624 0.606768,-0.73307 1.039063,-0.98047 0.432288,-0.24739 0.924475,-0.37109 1.476562,-0.37109 0.614578,0 1.118484,0.12761 1.511719,0.38281 0.393223,0.25521 0.670566,0.61198 0.832031,1.07031 0.656243,-0.96874 1.510408,-1.45312 2.5625,-1.45312 0.822907,0 1.455718,0.22787 1.898438,0.68359 0.442696,0.45574 0.66405,1.15756 0.664062,2.10547 l 0,5.69531 -1.398437,0 0,-5.22656 c -1.1e-5,-0.5625 -0.04558,-0.96744 -0.136719,-1.21485 -0.09116,-0.24738 -0.256521,-0.4466 -0.496094,-0.59765 -0.239593,-0.15104 -0.520843,-0.22656 -0.84375,-0.22656 -0.583342,0 -1.067716,0.19401 -1.453125,0.58203 -0.385424,0.38802 -0.578132,1.00912 -0.578125,1.86328 l 0,4.82031 -1.40625,0 0,-5.39062 c -5e-6,-0.625 -0.114589,-1.09375 -0.34375,-1.40625 -0.229172,-0.3125 -0.604171,-0.46875 -1.125,-0.46875 -0.395837,0 -0.761722,0.10417 -1.097656,0.3125 -0.33594,0.20834 -0.57943,0.51302 -0.730469,0.91406 -0.151044,0.40105 -0.226564,0.97917 -0.226562,1.73437 l 0,4.30469 z"
         style="font-size:16px;text-align:center;text-anchor:middle"
         id="path3286" />
      <path
         d="m 70.857841,408.26611 c -0.520839,0.44271 -1.02214,0.75521 -1.503906,0.9375 -0.481775,0.18229 -0.998702,0.27344 -1.550781,0.27344 -0.911461,0 -1.611981,-0.22266 -2.101563,-0.66797 -0.489584,-0.44531 -0.734375,-1.01432 -0.734375,-1.70703 0,-0.40625 0.09245,-0.77734 0.277344,-1.11328 0.184895,-0.33593 0.427082,-0.60547 0.726563,-0.80859 0.299477,-0.20312 0.636716,-0.35677 1.011718,-0.46094 0.276039,-0.0729 0.692706,-0.14323 1.25,-0.21094 1.135412,-0.13541 1.971349,-0.29687 2.507813,-0.48437 0.0052,-0.19271 0.0078,-0.3151 0.0078,-0.36719 -6e-6,-0.57291 -0.132818,-0.97656 -0.398437,-1.21094 -0.359381,-0.3177 -0.893234,-0.47655 -1.601563,-0.47656 -0.661462,10e-6 -1.149742,0.11589 -1.464843,0.34765 -0.315107,0.23178 -0.54818,0.64194 -0.699219,1.23047 l -1.375,-0.1875 c 0.124999,-0.58853 0.330728,-1.06379 0.617187,-1.42578 0.286457,-0.36197 0.700519,-0.64061 1.242188,-0.83594 0.541663,-0.1953 1.169267,-0.29296 1.882812,-0.29296 0.708329,0 1.283849,0.0833 1.726563,0.25 0.442702,0.16667 0.768222,0.37631 0.976562,0.6289 0.208326,0.25261 0.35416,0.57162 0.4375,0.95703 0.04687,0.23959 0.07031,0.67188 0.07031,1.29688 l 0,1.875 c -8e-6,1.30729 0.02994,2.13411 0.08984,2.48047 0.05989,0.34635 0.178377,0.67838 0.355468,0.99609 l -1.46875,0 c -0.145839,-0.29167 -0.239589,-0.63281 -0.28125,-1.02344 z m -0.117187,-3.14062 c -0.510423,0.20834 -1.276047,0.38542 -2.296875,0.53125 -0.578128,0.0833 -0.986982,0.17709 -1.226563,0.28125 -0.239585,0.10417 -0.424481,0.25651 -0.554687,0.45703 -0.13021,0.20052 -0.195315,0.42318 -0.195313,0.66797 -2e-6,0.375 0.141925,0.6875 0.425782,0.9375 0.283851,0.25 0.699215,0.375 1.246093,0.375 0.541663,0 1.023433,-0.11849 1.445313,-0.35547 0.421869,-0.23698 0.731765,-0.5612 0.929687,-0.97266 0.151036,-0.3177 0.226557,-0.78645 0.226563,-1.40625 z"
         style="font-size:16px;text-align:center;text-anchor:middle"
         id="path3288" />
      <path
         d="m 74.350029,409.28955 0,-8.29687 1.265625,0 0,1.17968 c 0.609372,-0.91145 1.48958,-1.36718 2.640625,-1.36718 0.499995,0 0.959629,0.0899 1.378906,0.26953 0.419264,0.17969 0.733066,0.41537 0.941406,0.70703 0.208326,0.29167 0.35416,0.63803 0.4375,1.03906 0.05208,0.26042 0.07812,0.71615 0.07813,1.36719 l 0,5.10156 -1.40625,0 0,-5.04687 c -6e-6,-0.57292 -0.05469,-1.0013 -0.164062,-1.28516 -0.109381,-0.28385 -0.303391,-0.51041 -0.582031,-0.67969 -0.278651,-0.16926 -0.605474,-0.2539 -0.980469,-0.2539 -0.598962,0 -1.115889,0.19011 -1.550781,0.57031 -0.434899,0.38021 -0.652346,1.10157 -0.652344,2.16406 l 0,4.53125 z"
         style="font-size:16px;text-align:center;text-anchor:middle"
         id="path3290" />
      <path
         d="m 93.107841,406.25049 1.382813,0.17969 c -0.151049,0.95312 -0.537768,1.69922 -1.160156,2.23828 -0.622402,0.53906 -1.386724,0.80859 -2.292969,0.80859 -1.13542,0 -2.048179,-0.37109 -2.738281,-1.11328 -0.690105,-0.74219 -1.035157,-1.80599 -1.035157,-3.19141 0,-0.89583 0.148437,-1.67968 0.445313,-2.35156 0.296874,-0.67187 0.748696,-1.17577 1.355469,-1.51172 0.606768,-0.33593 1.266923,-0.5039 1.980468,-0.5039 0.901037,0 1.638015,0.22787 2.210938,0.68359 0.572909,0.45574 0.940097,1.10287 1.101562,1.94141 l -1.367187,0.21093 c -0.130215,-0.55728 -0.360683,-0.97655 -0.691406,-1.25781 -0.330735,-0.28124 -0.730474,-0.42187 -1.199219,-0.42187 -0.708337,0 -1.283857,0.25391 -1.726563,0.76171 -0.44271,0.50782 -0.664064,1.31121 -0.664062,2.41016 -2e-6,1.11459 0.213539,1.92448 0.640625,2.42969 0.42708,0.50521 0.984371,0.75781 1.671875,0.75781 0.552078,0 1.013015,-0.16927 1.382812,-0.50781 0.369786,-0.33854 0.604161,-0.85937 0.703125,-1.5625 z"
         style="font-size:16px;text-align:center;text-anchor:middle"
         id="path3292" />
      <path
         d="m 95.693779,409.28955 0,-11.45312 1.40625,0 0,4.10937 c 0.656247,-0.76041 1.484371,-1.14062 2.484375,-1.14062 0.614576,0 1.148436,0.1211 1.601566,0.36328 0.45311,0.24219 0.77733,0.57683 0.97265,1.0039 0.19531,0.42709 0.29296,1.04688 0.29297,1.85938 l 0,5.25781 -1.40625,0 0,-5.25781 c 0,-0.70312 -0.15235,-1.21484 -0.45703,-1.53516 -0.30469,-0.3203 -0.735682,-0.48046 -1.292969,-0.48047 -0.41667,10e-6 -0.808597,0.10808 -1.175781,0.32422 -0.36719,0.21615 -0.628909,0.50912 -0.785156,0.87891 -0.156253,0.3698 -0.234377,0.88021 -0.234375,1.53125 l 0,4.53906 z"
         style="font-size:16px;text-align:center;text-anchor:middle"
         id="path3294" />
      <path
         d="m 104.5844,409.28955 0,-8.29687 1.26563,0 0,1.25781 c 0.32291,-0.58854 0.62109,-0.97656 0.89453,-1.16406 0.27343,-0.1875 0.57422,-0.28125 0.90234,-0.28125 0.47396,0 0.95573,0.15105 1.44532,0.45312 l -0.48438,1.30469 c -0.34375,-0.20312 -0.6875,-0.30468 -1.03125,-0.30469 -0.30729,10e-6 -0.58334,0.0925 -0.82812,0.27734 -0.2448,0.18491 -0.41928,0.44142 -0.52344,0.76954 -0.15625,0.5 -0.23438,1.04688 -0.23438,1.64062 l 0,4.34375 z"
         style="font-size:16px;text-align:center;text-anchor:middle"
         id="path3296" />
      <path
         d="m 109.42034,405.14111 c 0,-1.53645 0.42708,-2.67447 1.28125,-3.41406 0.71354,-0.61457 1.58333,-0.92187 2.60938,-0.92187 1.14062,0 2.07291,0.3737 2.79687,1.12109 0.72395,0.7474 1.08593,1.77995 1.08594,3.09766 -1e-5,1.06771 -0.16017,1.90755 -0.48047,2.51953 -0.32032,0.61198 -0.78647,1.08724 -1.39844,1.42578 -0.61198,0.33854 -1.27995,0.50781 -2.0039,0.50781 -1.16147,0 -2.10027,-0.37239 -2.81641,-1.11719 -0.71615,-0.74479 -1.07422,-1.8177 -1.07422,-3.21875 z m 1.44531,0 c 0,1.06251 0.23177,1.85808 0.69532,2.38672 0.46354,0.52865 1.04687,0.79297 1.75,0.79297 0.69791,0 1.27864,-0.26562 1.74218,-0.79687 0.46354,-0.53125 0.69531,-1.34115 0.69532,-2.42969 -1e-5,-1.02604 -0.23308,-1.80338 -0.69922,-2.33203 -0.46615,-0.52864 -1.04558,-0.79296 -1.73828,-0.79297 -0.70313,10e-6 -1.28646,0.26303 -1.75,0.78906 -0.46355,0.52605 -0.69532,1.32032 -0.69532,2.38281 z"
         style="font-size:16px;text-align:center;text-anchor:middle"
         id="path3298" />
      <path
         d="m 118.85003,409.28955 0,-8.29687 1.25781,0 0,1.16406 c 0.26042,-0.40624 0.60677,-0.73307 1.03906,-0.98047 0.43229,-0.24739 0.92448,-0.37109 1.47657,-0.37109 0.61457,0 1.11848,0.12761 1.51172,0.38281 0.39322,0.25521 0.67056,0.61198 0.83203,1.07031 0.65624,-0.96874 1.5104,-1.45312 2.5625,-1.45312 0.8229,0 1.45571,0.22787 1.89843,0.68359 0.4427,0.45574 0.66405,1.15756 0.66407,2.10547 l 0,5.69531 -1.39844,0 0,-5.22656 c -1e-5,-0.5625 -0.0456,-0.96744 -0.13672,-1.21485 -0.0912,-0.24738 -0.25652,-0.4466 -0.49609,-0.59765 -0.2396,-0.15104 -0.52085,-0.22656 -0.84375,-0.22656 -0.58335,0 -1.06772,0.19401 -1.45313,0.58203 -0.38542,0.38802 -0.57813,1.00912 -0.57812,1.86328 l 0,4.82031 -1.40625,0 0,-5.39062 c -1e-5,-0.625 -0.11459,-1.09375 -0.34375,-1.40625 -0.22918,-0.3125 -0.60418,-0.46875 -1.125,-0.46875 -0.39584,0 -0.76173,0.10417 -1.09766,0.3125 -0.33594,0.20834 -0.57943,0.51302 -0.73047,0.91406 -0.15104,0.40105 -0.22656,0.97917 -0.22656,1.73437 l 0,4.30469 z"
         style="font-size:16px;text-align:center;text-anchor:middle"
         id="path3300" />
      <path
         d="m 131.67034,405.14111 c 0,-1.53645 0.42708,-2.67447 1.28125,-3.41406 0.71354,-0.61457 1.58333,-0.92187 2.60938,-0.92187 1.14062,0 2.07291,0.3737 2.79687,1.12109 0.72395,0.7474 1.08593,1.77995 1.08594,3.09766 -1e-5,1.06771 -0.16017,1.90755 -0.48047,2.51953 -0.32032,0.61198 -0.78647,1.08724 -1.39844,1.42578 -0.61198,0.33854 -1.27995,0.50781 -2.0039,0.50781 -1.16147,0 -2.10027,-0.37239 -2.81641,-1.11719 -0.71615,-0.74479 -1.07422,-1.8177 -1.07422,-3.21875 z m 1.44531,0 c 0,1.06251 0.23177,1.85808 0.69532,2.38672 0.46354,0.52865 1.04687,0.79297 1.75,0.79297 0.69791,0 1.27864,-0.26562 1.74218,-0.79687 0.46354,-0.53125 0.69531,-1.34115 0.69532,-2.42969 -1e-5,-1.02604 -0.23308,-1.80338 -0.69922,-2.33203 -0.46615,-0.52864 -1.04558,-0.79296 -1.73828,-0.79297 -0.70313,10e-6 -1.28646,0.26303 -1.75,0.78906 -0.46355,0.52605 -0.69532,1.32032 -0.69532,2.38281 z"
         style="font-size:16px;text-align:center;text-anchor:middle"
         id="path3302" />
      <path
         d="m 140.53753,406.81299 1.39062,-0.21875 c 0.0781,0.55729 0.29557,0.98437 0.65235,1.28125 0.35677,0.29687 0.85546,0.44531 1.49609,0.44531 0.64583,0 1.125,-0.13151 1.4375,-0.39453 0.3125,-0.26302 0.46875,-0.57161 0.46875,-0.92578 0,-0.31771 -0.13803,-0.56771 -0.41406,-0.75 -0.19271,-0.125 -0.67188,-0.28385 -1.4375,-0.47656 -1.03125,-0.26042 -1.7461,-0.48568 -2.14453,-0.67579 -0.39844,-0.1901 -0.70052,-0.45312 -0.90625,-0.78906 -0.20573,-0.33593 -0.3086,-0.70702 -0.3086,-1.11328 0,-0.36978 0.0846,-0.71223 0.25391,-1.02734 0.16927,-0.3151 0.39974,-0.57682 0.69141,-0.78516 0.21874,-0.16145 0.51692,-0.29817 0.89453,-0.41016 0.3776,-0.11197 0.78255,-0.16796 1.21484,-0.16796 0.65104,0 1.22265,0.0937 1.71485,0.28125 0.49218,0.1875 0.85546,0.44141 1.08984,0.76171 0.23437,0.32032 0.39583,0.74871 0.48437,1.28516 l -1.375,0.1875 c -0.0625,-0.42708 -0.24349,-0.76041 -0.54296,-1 -0.29949,-0.23958 -0.72267,-0.35937 -1.26954,-0.35937 -0.64583,0 -1.10677,0.10677 -1.38281,0.32031 -0.27604,0.21355 -0.41406,0.46355 -0.41406,0.75 0,0.1823 0.0573,0.34636 0.17187,0.49219 0.11458,0.15104 0.29427,0.27604 0.53907,0.375 0.14062,0.0521 0.55468,0.17188 1.24218,0.35937 0.99479,0.26563 1.6888,0.48308 2.08204,0.65234 0.39322,0.16928 0.70181,0.41537 0.92578,0.73829 0.22395,0.32292 0.33593,0.72396 0.33593,1.20312 0,0.46875 -0.13672,0.91016 -0.41015,1.32422 -0.27345,0.41406 -0.66798,0.73437 -1.1836,0.96094 -0.51563,0.22656 -1.09896,0.33984 -1.75,0.33984 -1.07812,0 -1.89974,-0.22396 -2.46484,-0.67187 -0.5651,-0.44792 -0.92578,-1.11198 -1.08203,-1.99219 z"
         style="font-size:16px;text-align:center;text-anchor:middle"
         id="path3304" />
      <path
         d="m 148.57659,405.14111 c 0,-1.53645 0.42708,-2.67447 1.28125,-3.41406 0.71354,-0.61457 1.58333,-0.92187 2.60938,-0.92187 1.14062,0 2.07291,0.3737 2.79687,1.12109 0.72395,0.7474 1.08593,1.77995 1.08594,3.09766 -1e-5,1.06771 -0.16017,1.90755 -0.48047,2.51953 -0.32032,0.61198 -0.78647,1.08724 -1.39844,1.42578 -0.61198,0.33854 -1.27995,0.50781 -2.0039,0.50781 -1.16147,0 -2.10027,-0.37239 -2.81641,-1.11719 -0.71615,-0.74479 -1.07422,-1.8177 -1.07422,-3.21875 z m 1.44531,0 c 0,1.06251 0.23177,1.85808 0.69532,2.38672 0.46354,0.52865 1.04687,0.79297 1.75,0.79297 0.69791,0 1.27864,-0.26562 1.74218,-0.79687 0.46354,-0.53125 0.69531,-1.34115 0.69532,-2.42969 -1e-5,-1.02604 -0.23308,-1.80338 -0.69922,-2.33203 -0.46615,-0.52864 -1.04558,-0.79296 -1.73828,-0.79297 -0.70313,10e-6 -1.28646,0.26303 -1.75,0.78906 -0.46355,0.52605 -0.69532,1.32032 -0.69532,2.38281 z"
         style="font-size:16px;text-align:center;text-anchor:middle"
         id="path3306" />
      <path
         d="m 158.00628,409.28955 0,-8.29687 1.25781,0 0,1.16406 c 0.26042,-0.40624 0.60677,-0.73307 1.03906,-0.98047 0.43229,-0.24739 0.92448,-0.37109 1.47657,-0.37109 0.61457,0 1.11848,0.12761 1.51172,0.38281 0.39322,0.25521 0.67056,0.61198 0.83203,1.07031 0.65624,-0.96874 1.5104,-1.45312 2.5625,-1.45312 0.8229,0 1.45571,0.22787 1.89843,0.68359 0.4427,0.45574 0.66405,1.15756 0.66407,2.10547 l 0,5.69531 -1.39844,0 0,-5.22656 c -1e-5,-0.5625 -0.0456,-0.96744 -0.13672,-1.21485 -0.0912,-0.24738 -0.25652,-0.4466 -0.49609,-0.59765 -0.2396,-0.15104 -0.52085,-0.22656 -0.84375,-0.22656 -0.58335,0 -1.06772,0.19401 -1.45313,0.58203 -0.38542,0.38802 -0.57813,1.00912 -0.57812,1.86328 l 0,4.82031 -1.40625,0 0,-5.39062 c -1e-5,-0.625 -0.11459,-1.09375 -0.34375,-1.40625 -0.22918,-0.3125 -0.60418,-0.46875 -1.125,-0.46875 -0.39584,0 -0.76173,0.10417 -1.09766,0.3125 -0.33594,0.20834 -0.57943,0.51302 -0.73047,0.91406 -0.15104,0.40105 -0.22656,0.97917 -0.22656,1.73437 l 0,4.30469 z"
         style="font-size:16px;text-align:center;text-anchor:middle"
         id="path3308" />
      <path
         d="m 177.02972,406.61768 1.45312,0.17968 c -0.22917,0.84896 -0.65365,1.50782 -1.27344,1.97657 -0.61979,0.46875 -1.41146,0.70312 -2.375,0.70312 -1.21354,0 -2.17578,-0.3737 -2.88671,-1.12109 -0.71094,-0.7474 -1.06641,-1.79557 -1.06641,-3.14453 0,-1.39583 0.35937,-2.47916 1.07812,-3.25 0.71875,-0.77083 1.65104,-1.15625 2.79688,-1.15625 1.10937,0 2.01562,0.37761 2.71875,1.13281 0.70312,0.75521 1.05468,1.81771 1.05469,3.1875 -1e-5,0.0833 -0.003,0.20834 -0.008,0.375 l -6.1875,0 c 0.0521,0.91146 0.3099,1.60938 0.77344,2.09375 0.46354,0.48437 1.04166,0.72656 1.73438,0.72656 0.51562,0 0.95572,-0.13541 1.32031,-0.40625 0.36458,-0.27083 0.65364,-0.70312 0.86719,-1.29687 z m -4.61719,-2.27344 4.63281,0 c -0.0625,-0.69791 -0.23959,-1.22135 -0.53125,-1.57031 -0.44792,-0.54166 -1.02865,-0.8125 -1.74219,-0.8125 -0.64583,0 -1.1888,0.21615 -1.6289,0.64843 -0.44011,0.4323 -0.6836,1.01043 -0.73047,1.73438 z"
         style="font-size:16px;text-align:center;text-anchor:middle"
         id="path3310" />
      <path
         d="m 191.60003,400.64111 -1.39844,0.10938 c -0.125,-0.55208 -0.30209,-0.95312 -0.53125,-1.20313 -0.38021,-0.40103 -0.84896,-0.60155 -1.40625,-0.60156 -0.44792,10e-6 -0.84115,0.12501 -1.17969,0.375 -0.44271,0.32293 -0.79167,0.79428 -1.04687,1.41406 -0.25521,0.6198 -0.38802,1.50261 -0.39844,2.64844 0.33854,-0.51562 0.7526,-0.89843 1.24219,-1.14844 0.48958,-0.24999 1.0026,-0.37499 1.53906,-0.375 0.9375,10e-6 1.73567,0.34506 2.39453,1.03516 0.65885,0.69011 0.98828,1.58204 0.98828,2.67578 0,0.71875 -0.15495,1.38672 -0.46484,2.00391 -0.3099,0.61719 -0.73568,1.08984 -1.27734,1.41797 -0.54168,0.32812 -1.15626,0.49218 -1.84375,0.49218 -1.17188,0 -2.12761,-0.43099 -2.86719,-1.29297 -0.73959,-0.86197 -1.10938,-2.28254 -1.10938,-4.26171 0,-2.21354 0.40886,-3.82291 1.22657,-4.82813 0.71354,-0.87499 1.67447,-1.31249 2.88281,-1.3125 0.90104,10e-6 1.63932,0.25262 2.21484,0.75781 0.57552,0.50522 0.92057,1.20314 1.03516,2.09375 z m -5.74219,4.9375 c 0,0.48438 0.10286,0.94792 0.3086,1.39063 0.20572,0.44271 0.49348,0.77995 0.86328,1.01172 0.36978,0.23177 0.7578,0.34765 1.16406,0.34765 0.59374,0 1.10416,-0.23958 1.53125,-0.71875 0.42708,-0.47916 0.64062,-1.1302 0.64062,-1.95312 0,-0.79166 -0.21094,-1.41536 -0.63281,-1.8711 -0.42188,-0.45572 -0.95313,-0.68358 -1.59375,-0.68359 -0.63542,10e-6 -1.17448,0.22787 -1.61719,0.68359 -0.44271,0.45574 -0.66406,1.05339 -0.66406,1.79297 z"
         style="font-size:16px;text-align:center;text-anchor:middle"
         id="path3312" />
    </g>
    <path
       style="fill:#000000;fill-opacity:1;stroke:none"
       d="m 119.11103,231.38683 13.67291,0 0,11.25343 -13.67291,0 z"
       id="rect5718" />
    <path
       style="fill:#000000;fill-opacity:1;stroke:none"
       d="m 119.11103,245.39951 13.67291,0 0,8.41179 -13.67291,0 z"
       id="rect5720" />
    <path
       style="fill:#404040;fill-opacity:1;stroke:none"
       d="m 119.14188,270.47513 13.6729,0 0,6.5636 -13.6729,0 z"
       id="rect5722" />
    <path
       style="fill:#000000;fill-opacity:1;stroke:none"
       d="m 119.14188,280.6655 13.6729,0 0,8.45291 -13.6729,0 z"
       id="rect5724" />
    <path
       style="fill:#404040;fill-opacity:1;stroke:none"
       d="m 119.14188,294.71158 13.6729,0 0,9.29723 -13.6729,0 z"
       id="rect5726" />
    <path
       style="fill:#808080;fill-opacity:1;stroke:none"
       d="m 119.17278,313.33163 13.67291,0 0,5.48774 -13.67291,0 z"
       id="rect5728" />
    <path
       style="fill:#404040;fill-opacity:1;stroke:none"
       d="m 119.17281,325.40872 13.67291,0 0,6.4916 -13.67291,0 z"
       id="rect5730" />
    <path
       style="fill:#404040;fill-opacity:1;stroke:none"
       d="m 119.20368,336.56934 13.4876,0 0,4.71559 -13.4876,0 z"
       id="rect5732" />
    <path
       style="fill:#808080;fill-opacity:1;stroke:none"
       d="m 119.20368,347.69922 13.45671,0 0,3.78903 -13.45671,0 z"
       id="rect5734" />
    <path
       style="fill:#808080;fill-opacity:1;stroke:none"
       d="m 119.62554,363.48279 12.70598,0 0,4.65382 -12.70598,0 z"
       id="rect5736" />
    <path
       style="fill:#000000;fill-opacity:1;stroke:none"
       d="m 120.95222,186.79549 9.98978,0 0,11.19166 -9.98978,0 z"
       id="rect5738" />
    <path
       style="fill:#808080;fill-opacity:1;stroke:none"
       d="m 119.29633,204.53008 13.39494,0 0,7.34103 -13.39494,0 z"
       id="rect5740" />
    <path
       style="fill:#808080;fill-opacity:1;stroke:none"
       d="m 119.14188,215.65996 13.6729,0 0,5.61657 -13.6729,0 z"
       id="rect5742" />
    <path
       style="fill:#404040;fill-opacity:1;stroke:none"
       d="m 119.08012,99.342278 13.6729,0 0,9.333412 -13.6729,0 z"
       id="rect5744" />
    <path
       style="fill:#808080;fill-opacity:1;stroke:none"
       d="m 119.08013,114.30746 13.67291,0 0,6.46583 -13.67291,0 z"
       id="rect5746" />
    <path
       style="fill:#bbbdbc;fill-opacity:1;stroke:none"
       d="m 119.14188,125.44247 13.6729,0 0,3.65507 -13.6729,0 z"
       id="rect5748" />
    <path
       style="fill:#bbbdbc;fill-opacity:1;stroke:none"
       d="m 119.08012,139.3676 13.6729,0 0,3.63461 -13.6729,0 z"
       id="rect5750" />
    <path
       style="fill:#000000;fill-opacity:1;stroke:none"
       d="m 119.17278,157.00952 13.67291,0 0,9.33324 -13.67291,0 z"
       id="rect5752" />
    <path
       style="fill:#000000;fill-opacity:1;stroke:none"
       d="m 120.47651,168.17542 10.97706,0 0,6.49671 -10.97706,0 z"
       id="rect5754" />
    <path
       style="fill:#bbbdbc;fill-opacity:1;stroke:none"
       d="m 119.20367,92.016777 13.6729,0 0,3.619073 -13.6729,0 z"
       id="rect5756" />
    <path
       style="fill:#808080;fill-opacity:1;stroke:none"
       d="m 119.23454,84.547272 13.51848,0 0,4.586755 -13.51848,0 z"
       id="rect5758" />
    <path
       style="fill:#bbbdbc;fill-opacity:1;stroke:none"
       d="m 120.82794,77.036461 10.18922,0 0,2.697628 -10.18922,0 z"
       id="rect5760" />
    <rect
       style="opacity:0.69166667;fill:#000000;fill-opacity:1;stroke:none;stroke-width:1.153;stroke-linecap:round;stroke-linejoin:round;stroke-miterlimit:4;stroke-dasharray:none;stroke-opacity:1"
       id="rect5762"
       width="20.936642"
       height="0"
       x="87.250443"
       y="76.91803"
       rx="8.431076"
       ry="0" />
    <g
       style="font-size:17.23085785px;font-style:normal;font-weight:bold;fill:#000000;fill-opacity:1;stroke:none;font-family:Bitstream Vera Sans"
       id="text5768">
      <path
         d="m 165.85672,137.11594 0,-7.89014 0.88086,0 0,0.74121 c 0.20768,-0.29003 0.44222,-0.50756 0.70361,-0.65259 0.26139,-0.14501 0.57829,-0.21752 0.95069,-0.21753 0.48697,1e-5 0.91666,0.12533 1.28906,0.37598 0.37239,0.25066 0.65348,0.60425 0.84326,1.06079 0.18977,0.45655 0.28466,0.95695 0.28467,1.50122 -1e-5,0.58366 -0.10474,1.10913 -0.31421,1.57642 -0.20948,0.46728 -0.51384,0.82536 -0.91309,1.07422 -0.39925,0.24886 -0.81909,0.37329 -1.25952,0.37329 -0.32227,0 -0.61141,-0.068 -0.86743,-0.2041 -0.25602,-0.13607 -0.46639,-0.30795 -0.6311,-0.51563 l 0,2.77686 z m 0.87549,-5.00586 c 0,0.73405 0.1486,1.27653 0.4458,1.62744 0.2972,0.35091 0.65706,0.52637 1.07959,0.52637 0.42968,0 0.7976,-0.18173 1.10376,-0.54517 0.30615,-0.36344 0.45922,-0.92651 0.45923,-1.68921 -1e-5,-0.72688 -0.1495,-1.27115 -0.44849,-1.63281 -0.29899,-0.36165 -0.65617,-0.54248 -1.07153,-0.54248 -0.41179,0 -0.77613,0.19247 -1.09302,0.57739 -0.3169,0.38493 -0.47534,0.94442 -0.47534,1.67847 z"
         style="font-size:11px"
         id="path3257" />
    </g>
    <g
       style="font-size:17.23085785px;font-style:normal;font-weight:bold;fill:#000000;fill-opacity:1;stroke:none;font-family:Bitstream Vera Sans"
       id="text5772">
      <path
         d="m 172.86226,280.20184 0,-2.79297 c -0.1504,0.21127 -0.36076,0.38672 -0.6311,0.52637 -0.27035,0.13965 -0.55771,0.20947 -0.86207,0.20947 -0.67676,0 -1.25952,-0.27034 -1.74829,-0.81103 -0.48877,-0.54069 -0.73315,-1.2819 -0.73315,-2.22363 0,-0.57292 0.0994,-1.08675 0.2981,-1.54151 0.19872,-0.45475 0.48697,-0.79939 0.86474,-1.03393 0.37777,-0.23454 0.79224,-0.3518 1.24341,-0.35181 0.7054,1e-5 1.26041,0.29721 1.66504,0.8916 l 0,-0.76269 0.87012,0 0,7.89013 z m -2.98096,-5.0542 c 0,0.73406 0.15397,1.28459 0.46192,1.65162 0.30794,0.36702 0.67675,0.55053 1.10644,0.55053 0.41178,0 0.76627,-0.17456 1.06348,-0.52368 0.29719,-0.34912 0.44579,-0.87996 0.4458,-1.59253 -1e-5,-0.75911 -0.15666,-1.33024 -0.46997,-1.71338 -0.31332,-0.38313 -0.68124,-0.5747 -1.10376,-0.5747 -0.41895,0 -0.77434,0.17814 -1.06616,0.53442 -0.29183,0.35629 -0.43775,0.91219 -0.43775,1.66772 z"
         style="font-size:11px;text-align:center;text-anchor:middle"
         id="path3248" />
      <path
         d="m 166.52437,291.06219 c -0.35808,0.30437 -0.70272,0.51921 -1.03394,0.64454 -0.33122,0.12532 -0.6866,0.18798 -1.06616,0.18798 -0.62663,0 -1.10824,-0.15307 -1.44482,-0.45922 -0.33659,-0.30616 -0.50489,-0.69735 -0.50489,-1.17359 0,-0.27929 0.0636,-0.53442 0.19068,-0.76538 0.12711,-0.23095 0.29362,-0.41626 0.49951,-0.55591 0.20589,-0.13964 0.43774,-0.24527 0.69556,-0.31689 0.18977,-0.0501 0.47623,-0.0985 0.85937,-0.14502 0.7806,-0.0931 1.3553,-0.2041 1.72412,-0.33301 0.004,-0.13248 0.005,-0.21663 0.005,-0.25244 0,-0.39388 -0.0913,-0.67138 -0.27392,-0.83252 -0.24708,-0.21842 -0.6141,-0.32763 -1.10108,-0.32764 -0.45475,10e-6 -0.79045,0.0797 -1.00708,0.23902 -0.21663,0.15934 -0.37687,0.44133 -0.48071,0.84594 l -0.94531,-0.1289 c 0.0859,-0.40462 0.22737,-0.73136 0.42431,-0.98023 0.19694,-0.24885 0.48161,-0.44042 0.85401,-0.5747 0.37239,-0.13428 0.80387,-0.20141 1.29443,-0.20142 0.48698,1e-5 0.88265,0.0573 1.18701,0.17188 0.30436,0.11458 0.52816,0.25871 0.67139,0.43237 0.14322,0.17367 0.24348,0.39299 0.30078,0.65796 0.0322,0.16472 0.0483,0.46192 0.0483,0.8916 l 0,1.28906 c 0,0.89877 0.0206,1.46721 0.0618,1.70532 0.0412,0.23812 0.12263,0.46639 0.24438,0.68482 l -1.00976,0 c -0.10027,-0.20052 -0.16472,-0.43506 -0.19336,-0.70362 z m -0.0806,-2.15917 c -0.35091,0.14323 -0.87728,0.26497 -1.5791,0.36523 -0.39746,0.0573 -0.67855,0.12175 -0.84326,0.19336 -0.16472,0.0716 -0.29183,0.17635 -0.38135,0.31421 -0.0895,0.13786 -0.13428,0.29093 -0.13428,0.45923 0,0.25781 0.0976,0.47265 0.29273,0.64453 0.19515,0.17187 0.48071,0.25781 0.85669,0.25781 0.37239,0 0.70361,-0.0815 0.99365,-0.24438 0.29004,-0.16293 0.50309,-0.38583 0.63916,-0.66871 0.10384,-0.21842 0.15576,-0.54068 0.15576,-0.96679 z"
         style="font-size:11px;text-align:center;text-anchor:middle"
         id="path3250" />
      <path
         d="m 168.91451,291.76581 0,-5.7041 0.87011,0 0,0.86474 c 0.22201,-0.40461 0.427,-0.67138 0.61499,-0.80029 0.18799,-0.1289 0.39478,-0.19335 0.62036,-0.19336 0.32585,1e-5 0.65706,0.10385 0.99366,0.31152 l -0.33301,0.89698 c -0.23633,-0.13965 -0.47266,-0.20947 -0.70899,-0.20948 -0.21126,10e-6 -0.40104,0.0636 -0.56933,0.19068 -0.1683,0.12712 -0.28825,0.30347 -0.35987,0.52905 -0.10742,0.34375 -0.16113,0.71973 -0.16113,1.12793 l 0,2.98633 z"
         style="font-size:11px;text-align:center;text-anchor:middle"
         id="path3252" />
      <path
         d="m 172.59908,291.76581 0,-5.7041 0.86474,0 0,0.80029 c 0.17904,-0.27929 0.41715,-0.50398 0.71436,-0.67407 0.29719,-0.17008 0.63557,-0.25512 1.01513,-0.25513 0.42253,1e-5 0.76896,0.0877 1.03931,0.26318 0.27034,0.17547 0.46101,0.42074 0.57202,0.73584 0.45117,-0.66601 1.03841,-0.99901 1.76172,-0.99902 0.56575,1e-5 1.00081,0.15666 1.30518,0.46997 0.30435,0.31332 0.45653,0.79582 0.45654,1.44751 l 0,3.91553 -0.96143,0 0,-3.59326 c 0,-0.38672 -0.0313,-0.66512 -0.094,-0.83521 -0.0627,-0.17008 -0.17636,-0.30704 -0.34107,-0.41089 -0.16472,-0.10383 -0.35807,-0.15575 -0.58007,-0.15576 -0.40105,10e-6 -0.73406,0.13339 -0.99903,0.40015 -0.26498,0.26677 -0.39746,0.69377 -0.39746,1.281 l 0,3.31397 -0.96679,0 0,-3.70606 c -1e-5,-0.42968 -0.0788,-0.75195 -0.23633,-0.96679 -0.15756,-0.21484 -0.41537,-0.32226 -0.77344,-0.32227 -0.27214,10e-6 -0.52368,0.0716 -0.75464,0.21484 -0.23096,0.14324 -0.39836,0.35271 -0.5022,0.62842 -0.10384,0.27572 -0.15576,0.67318 -0.15576,1.19239 l 0,2.95947 z"
         style="font-size:11px;text-align:center;text-anchor:middle"
         id="path3254" />
    </g>
    <g
       style="font-size:17.23085785px;font-style:normal;font-weight:bold;fill:#000000;fill-opacity:1;stroke:none;font-family:Bitstream Vera Sans"
       id="text5798">
      <path
         d="m 9.9484663,379.17596 0,-9.30566 1.2314457,0 0,3.82129 4.836914,0 0,-3.82129 1.231445,0 0,9.30566 -1.231445,0 0,-4.38623 -4.836914,0 0,4.38623 z"
         style="font-size:13px"
         id="path3234" />
      <path
         d="m 19.25413,379.17596 0,-9.30566 1.231446,0 0,8.20752 4.583007,0 0,1.09814 z"
         style="font-size:13px"
         id="path3236" />
      <path
         d="m 25.519267,379.17596 3.573731,-9.30566 1.32666,0 3.808593,9.30566 -1.402832,0 -1.085449,-2.81836 -3.891113,0 -1.021973,2.81836 z m 2.685059,-3.82128 3.154785,0 -0.971192,-2.57715 c -0.296228,-0.78287 -0.51628,-1.4261 -0.660156,-1.92969 -0.118493,0.59669 -0.285648,1.18913 -0.501465,1.77734 z"
         style="font-size:13px"
         id="path3239" />
      <path
         d="m 34.634501,376.383 0,-1.14893 3.510254,0 0,1.14893 z"
         style="font-size:13px"
         id="path3241" />
      <path
         d="m 39.56663,379.17596 0,-9.30566 3.205567,0 c 0.723628,1e-5 1.275873,0.0444 1.656738,0.1333 0.533197,0.12273 0.988112,0.3449 1.364746,0.6665 0.490878,0.41473 0.857984,0.94476 1.101319,1.59009 0.243318,0.64535 0.364981,1.38274 0.36499,2.21216 -9e-6,0.70671 -0.08253,1.33301 -0.247559,1.87891 -0.165047,0.5459 -0.376636,0.99764 -0.634765,1.35522 -0.258146,0.35759 -0.540616,0.639 -0.847413,0.84424 -0.30681,0.20524 -0.677089,0.36076 -1.110839,0.46655 -0.433762,0.1058 -0.932053,0.15869 -1.494873,0.15869 z m 1.231446,-1.09814 1.986816,0 c 0.613602,0 1.094965,-0.0571 1.444092,-0.17139 0.349115,-0.11425 0.627354,-0.27506 0.834717,-0.48242 0.291985,-0.29199 0.519443,-0.68449 0.682373,-1.17749 0.162916,-0.493 0.244377,-1.09073 0.244384,-1.79321 -7e-6,-0.9733 -0.159756,-1.72127 -0.479248,-2.2439 -0.319505,-0.52261 -0.707769,-0.87279 -1.164794,-1.05054 -0.330084,-0.12694 -0.861171,-0.19042 -1.593262,-0.19043 l -1.955078,0 z"
         style="font-size:13px"
         id="path3243" />
      <path
         d="m 48.961162,379.17596 0,-9.30566 3.510254,0 c 0.617833,1e-5 1.089675,0.0296 1.415527,0.0889 0.457025,0.0762 0.84,0.22112 1.148926,0.43481 0.308912,0.21371 0.557528,0.51311 0.745849,0.8982 0.188306,0.38509 0.282463,0.80827 0.282471,1.26953 -8e-6,0.79134 -0.251798,1.46102 -0.755371,2.00903 -0.503588,0.54802 -1.413418,0.82203 -2.729492,0.82202 l -2.386719,0 0,3.7832 z m 1.231445,-4.88134 2.405762,0 c 0.795567,0 1.360508,-0.14811 1.694824,-0.44434 0.334303,-0.29622 0.501458,-0.71305 0.501465,-1.25049 -7e-6,-0.38931 -0.0984,-0.72257 -0.295166,-0.99975 -0.196784,-0.27718 -0.45598,-0.4602 -0.777588,-0.54908 -0.207363,-0.055 -0.590337,-0.0825 -1.148926,-0.0825 l -2.380371,0 z"
         style="font-size:13px"
         id="path3245" />
    </g>
    <path
       style="fill:none;fill-rule:evenodd;stroke:#bbbbbb;stroke-width:0.43077138px;stroke-linecap:butt;stroke-linejoin:miter;stroke-opacity:1"
       d="M 90.130853,66.572302 L 90.130853,383.0243"
       id="path3201" />
    <path
       style="fill:#0800dc;fill-opacity:1;stroke:none"
       d="m 87.351379,77.044136 5.559376,0 0,2.79513 -5.559376,0 z"
       id="rect3203" />
    <path
       style="fill:#0800dc;fill-opacity:1;stroke:none"
       d="m 87.353363,196.10812 5.559376,0 0,2.78504 -5.559376,0 z"
       id="rect3205" />
    <path
       style="fill:#0800dc;fill-opacity:1;stroke:none"
       d="m 87.351685,203.54979 5.559375,0 0,2.7783 -5.559375,0 z"
       id="rect3207" />
    <path
       style="fill:#0800dc;fill-opacity:1;stroke:none"
       d="m 87.353363,304.00125 5.559376,0 0,3.71665 -5.559376,0 z"
       id="rect3209" />
    <path
       style="fill:#0800dc;fill-opacity:1;stroke:none"
       d="m 87.353363,308.65289 5.559376,0 0,1.86016 -5.559376,0 z"
       id="rect3211" />
    <path
       style="fill:#0800dc;fill-opacity:1;stroke:none"
       d="m 87.349701,311.44601 5.559376,0 0,1.85313 -5.559376,0 z"
       id="rect3213" />
    <path
       style="fill:#0800dc;fill-opacity:1;stroke:none"
       d="m 87.351685,315.16125 5.559375,0 0,1.86857 -5.559375,0 z"
       id="rect3215" />
    <path
       style="fill:#0800dc;fill-opacity:1;stroke:none"
       d="m 87.351379,317.96005 5.559376,0 0,1.86857 -5.559376,0 z"
       id="rect3217" />
    <path
       style="fill:#0800dc;fill-opacity:1;stroke:none"
       d="m 87.353058,352.34729 5.559376,0 0,1.86857 -5.559376,0 z"
       id="rect3219" />
    <path
       style="fill:#0800dc;fill-opacity:1;stroke:none"
       d="m 87.350899,355.17337 5.559376,0 0,1.82224 -5.559376,0 z"
       id="rect3221" />
    <path
       style="fill:none;fill-rule:evenodd;stroke:#000000;stroke-width:0.43077138px;stroke-linecap:butt;stroke-linejoin:miter;stroke-opacity:1"
       d="M 91.853934,68.230187 L 98.31551,68.243647 L 112.53096,131.55359 L 117.70022,131.55359"
       id="path3225" />
    <path
       style="fill:none;fill-rule:evenodd;stroke:#000000;stroke-width:0.43077138px;stroke-linecap:butt;stroke-linejoin:miter;stroke-opacity:1"
       d="M 117.70022,133.27667 L 112.53096,133.27667 L 98.319109,372.3548 L 91.853934,372.3548"
       id="path3227" />
    <path
       style="fill:none;fill-rule:evenodd;stroke:#000000;stroke-width:0.43077138px;stroke-linecap:butt;stroke-linejoin:miter;stroke-opacity:1"
       d="M 136.23686,77.720616 L 146.99268,79.861005 L 146.99268,129.39972 L 155.64597,134.39571 L 146.99268,139.39168 L 146.99268,176.78458 L 136.22339,178.93844"
       id="path3229"
       sodipodi:nodetypes="ccccccc" />
    <path
       style="fill:none;fill-rule:evenodd;stroke:#000000;stroke-width:0.59105927px;stroke-linecap:butt;stroke-linejoin:miter;stroke-opacity:1"
       d="M 136.30334,183.54843 L 146.89907,187.6389 L 146.89907,270.21783 L 155.27219,275.04249 L 146.88333,279.89307 L 146.89907,301.40729 L 146.89907,372.86843 L 136.29008,376.98463"
       id="path3231"
       sodipodi:nodetypes="cccccccc" />
    <path
       style="fill:none;fill-rule:evenodd;stroke:#000000;stroke-width:0.79151171;stroke-linecap:butt;stroke-linejoin:miter;marker-start:none;marker-end:url(#TriangleOutL);stroke-miterlimit:28;stroke-dasharray:none;stroke-opacity:1"
       d="M 61.353703,78.500167 L 80.106659,78.500167"
       id="path3237" />
    <path
       style="fill:none;fill-rule:evenodd;stroke:#000000;stroke-width:0.79151171;stroke-linecap:butt;stroke-linejoin:miter;marker-start:none;marker-end:url(#TriangleOutL);stroke-miterlimit:28;stroke-dasharray:none;stroke-opacity:1"
       d="M 65.576881,220.29248 L 80.991691,209.61274"
       id="path5572" />
    <path
       style="fill:none;fill-rule:evenodd;stroke:#000000;stroke-width:0.79151171;stroke-linecap:butt;stroke-linejoin:miter;marker-start:none;marker-end:url(#TriangleOutL);stroke-miterlimit:28;stroke-dasharray:none;stroke-opacity:1"
       d="M 65.476012,332.26286 L 80.890822,321.58311"
       id="path5574" />
    <path
       style="fill:none;fill-rule:evenodd;stroke:#000000;stroke-width:0.79151171;stroke-linecap:butt;stroke-linejoin:miter;marker-start:none;marker-end:url(#TriangleOutL);stroke-miterlimit:28;stroke-dasharray:none;stroke-opacity:1"
       d="M 65.576881,370.95502 L 80.991691,360.27528"
       id="path5576" />
    <path
       style="fill:none;fill-rule:evenodd;stroke:#000000;stroke-width:0.79151171;stroke-linecap:butt;stroke-linejoin:miter;marker-start:none;marker-end:url(#TriangleOutL);stroke-miterlimit:28;stroke-dasharray:none;stroke-opacity:1"
       d="M 65.508236,294.84703 L 80.923046,305.52677"
       id="path5578" />
    <path
       style="fill:none;fill-rule:evenodd;stroke:#000000;stroke-width:0.79151171;stroke-linecap:butt;stroke-linejoin:miter;marker-start:none;marker-end:url(#TriangleOutL);stroke-miterlimit:28;stroke-dasharray:none;stroke-opacity:1"
       d="M 65.508229,182.86795 L 80.923039,193.54769"
       id="path5580" />
    <g
       style="font-size:17.23085785px;font-style:normal;font-weight:bold;fill:#000000;fill-opacity:1;stroke:none;font-family:Bitstream Vera Sans"
       id="text5582">
      <path
         d="m 8.3407006,338.13141 0,-9.30567 1.2314453,0 0,3.82129 4.8369141,0 0,-3.82129 1.231445,0 0,9.30567 -1.231445,0 0,-4.38623 -4.8369141,0 0,4.38623 z"
         style="font-size:13px"
         id="path3211" />
      <path
         d="m 17.646365,338.13141 0,-9.30567 1.231445,0 0,8.20752 4.583008,0 0,1.09815 z"
         style="font-size:13px"
         id="path3213" />
      <path
         d="m 23.911501,338.13141 3.573731,-9.30567 1.32666,0 3.808594,9.30567 -1.402832,0 -1.085449,-2.81836 -3.891114,0 -1.021972,2.81836 z m 2.685059,-3.82129 3.154785,0 -0.971191,-2.57715 c -0.296229,-0.78287 -0.516281,-1.4261 -0.660156,-1.92969 -0.118494,0.59669 -0.285649,1.18914 -0.501465,1.77735 z"
         style="font-size:13px"
         id="path3215" />
      <path
         d="m 33.026736,335.33844 0,-1.14893 3.510254,0 0,1.14893 z"
         style="font-size:13px"
         id="path3217" />
      <path
         d="m 37.958865,338.13141 0,-9.30567 3.205566,0 c 0.723628,1e-5 1.275874,0.0444 1.656738,0.13331 0.533197,0.12273 0.988112,0.34489 1.364746,0.6665 0.490878,0.41472 0.857984,0.94475 1.101319,1.59009 0.243318,0.64535 0.364981,1.38273 0.36499,2.21216 -9e-6,0.70671 -0.08253,1.33301 -0.247559,1.8789 -0.165047,0.5459 -0.376635,0.99764 -0.634765,1.35523 -0.258146,0.35758 -0.540616,0.63899 -0.847412,0.84423 -0.30681,0.20525 -0.67709,0.36076 -1.11084,0.46656 -0.433762,0.10579 -0.932053,0.15869 -1.494873,0.15869 z m 1.231445,-1.09815 1.986816,0 c 0.613602,1e-5 1.094966,-0.0571 1.444092,-0.17138 0.349115,-0.11426 0.627354,-0.27507 0.834717,-0.48242 0.291985,-0.29199 0.519443,-0.68449 0.682373,-1.17749 0.162916,-0.493 0.244377,-1.09074 0.244385,-1.79322 -8e-6,-0.9733 -0.159757,-1.72126 -0.479248,-2.24389 -0.319506,-0.52262 -0.70777,-0.8728 -1.164795,-1.05054 -0.330084,-0.12695 -0.86117,-0.19042 -1.593262,-0.19043 l -1.955078,0 z"
         style="font-size:13px"
         id="path3219" />
      <path
         d="m 54.405642,337.13483 c 0.57128,0.39355 1.098135,0.68131 1.580566,0.86328 l -0.361816,0.85693 c -0.668628,-0.24121 -1.335132,-0.62207 -1.999512,-1.14258 -0.689785,0.38509 -1.451503,0.57764 -2.285156,0.57764 -0.842126,0 -1.60596,-0.20312 -2.291504,-0.60937 -0.685549,-0.40625 -1.213462,-0.97754 -1.58374,-1.71387 -0.370281,-0.73633 -0.555421,-1.56575 -0.55542,-2.48828 -10e-7,-0.91829 0.186197,-1.75407 0.558594,-2.50733 0.372394,-0.75324 0.902423,-1.32665 1.590088,-1.72021 0.687659,-0.39355 1.456783,-0.59032 2.307373,-0.59033 0.859043,1e-5 1.633457,0.20419 2.323242,0.61254 0.68977,0.40838 1.215567,0.97967 1.577392,1.71387 0.361808,0.73422 0.542716,1.56259 0.542725,2.48511 -9e-6,0.76595 -0.116383,1.45467 -0.349121,2.06616 -0.232756,0.61149 -0.583993,1.14364 -1.053711,1.59644 z m -2.710449,-1.57422 c 0.710931,0.19889 1.297031,0.49512 1.758301,0.88867 0.723625,-0.66015 1.085441,-1.6525 1.085449,-2.97705 -8e-6,-0.75325 -0.128019,-1.41129 -0.384033,-1.97412 -0.25603,-0.56282 -0.630541,-0.99975 -1.123536,-1.31079 -0.493007,-0.31103 -1.046311,-0.46655 -1.659912,-0.46656 -0.918298,1e-5 -1.680016,0.31422 -2.285156,0.94263 -0.605145,0.62843 -0.907717,1.56682 -0.907715,2.81519 -2e-6,1.21029 0.299396,2.13916 0.898194,2.78662 0.598792,0.64746 1.363684,0.97119 2.294677,0.97119 0.440099,0 0.854812,-0.0825 1.244141,-0.24756 -0.385097,-0.24967 -0.791347,-0.42741 -1.21875,-0.5332 z"
         style="font-size:13px"
         id="path3221" />
    </g>
    <g
       style="font-size:17.23085785px;font-style:normal;font-weight:bold;fill:#000000;fill-opacity:1;stroke:none;font-family:Bitstream Vera Sans"
       id="text5586">
      <path
         d="m 8.8796449,295.30005 0,-9.30567 1.2314451,0 0,3.82129 4.836914,0 0,-3.82129 1.231446,0 0,9.30567 -1.231446,0 0,-4.38623 -4.836914,0 0,4.38623 z"
         style="font-size:13px"
         id="path3197" />
      <path
         d="m 18.185309,295.30005 0,-9.30567 1.231445,0 0,8.20752 4.583008,0 0,1.09815 z"
         style="font-size:13px"
         id="path3199" />
      <path
         d="m 24.450446,295.30005 3.57373,-9.30567 1.32666,0 3.808594,9.30567 -1.402832,0 -1.085449,-2.81836 -3.891114,0 -1.021972,2.81836 z m 2.685058,-3.82129 3.154785,0 -0.971191,-2.57715 c -0.296229,-0.78287 -0.51628,-1.4261 -0.660156,-1.92969 -0.118494,0.59669 -0.285649,1.18914 -0.501465,1.77735 z"
         style="font-size:13px"
         id="path3202" />
      <path
         d="m 33.56568,292.50708 0,-1.14893 3.510254,0 0,1.14893 z"
         style="font-size:13px"
         id="path3204" />
      <path
         d="m 38.497809,295.30005 0,-9.30567 3.205566,0 c 0.723628,1e-5 1.275874,0.0445 1.656739,0.13331 0.533196,0.12273 0.988111,0.34489 1.364746,0.6665 0.490877,0.41472 0.857983,0.94475 1.101318,1.59009 0.243318,0.64535 0.364982,1.38273 0.36499,2.21216 -8e-6,0.70671 -0.08253,1.33301 -0.247558,1.8789 -0.165048,0.5459 -0.376636,0.99764 -0.634766,1.35523 -0.258145,0.35758 -0.540616,0.63899 -0.847412,0.84423 -0.30681,0.20525 -0.67709,0.36076 -1.11084,0.46656 -0.433762,0.10579 -0.932052,0.15869 -1.494873,0.15869 z m 1.231445,-1.09815 1.986817,0 c 0.613602,10e-6 1.094965,-0.0571 1.444091,-0.17138 0.349116,-0.11426 0.627354,-0.27507 0.834717,-0.48242 0.291986,-0.29199 0.519443,-0.68449 0.682373,-1.17749 0.162916,-0.493 0.244378,-1.09074 0.244385,-1.79322 -7e-6,-0.9733 -0.159757,-1.72126 -0.479248,-2.24389 -0.319505,-0.52262 -0.70777,-0.8728 -1.164795,-1.05054 -0.330083,-0.12695 -0.86117,-0.19042 -1.593262,-0.19043 l -1.955078,0 z"
         style="font-size:13px"
         id="path3206" />
      <path
         d="m 47.911383,295.30005 0,-9.30567 4.125977,0 c 0.829421,1e-5 1.459954,0.0836 1.891601,0.25074 0.431633,0.16716 0.776522,0.46233 1.034668,0.8855 0.25813,0.42318 0.387199,0.89079 0.387207,1.40283 -8e-6,0.66016 -0.213712,1.21664 -0.641113,1.66943 -0.427416,0.4528 -1.087572,0.74057 -1.980469,0.86328 0.32584,0.15658 0.573399,0.31104 0.742676,0.46338 0.359694,0.33008 0.700351,0.74268 1.021973,1.23779 l 1.618652,2.53272 -1.548828,0 -1.231445,-1.93604 c -0.359707,-0.55859 -0.655931,-0.986 -0.888672,-1.28222 -0.232753,-0.29622 -0.441168,-0.50358 -0.625244,-0.62207 -0.184087,-0.11849 -0.371343,-0.20101 -0.561768,-0.24756 -0.139653,-0.0296 -0.368168,-0.0444 -0.685547,-0.0444 l -1.428223,0 0,4.13233 z m 1.231445,-5.19873 2.646973,0 c 0.56282,0 1.002924,-0.0582 1.320313,-0.17456 0.317376,-0.11637 0.558587,-0.30257 0.723632,-0.5586 0.165032,-0.25601 0.247552,-0.53425 0.247559,-0.83471 -7e-6,-0.4401 -0.159756,-0.80192 -0.479248,-1.08545 -0.319505,-0.28352 -0.824143,-0.42529 -1.513916,-0.42529 l -2.945313,0 z"
         style="font-size:13px"
         id="path3208" />
    </g>
    <g
       style="font-size:17.23085785px;font-style:normal;font-weight:bold;fill:#000000;fill-opacity:1;stroke:none;font-family:Bitstream Vera Sans"
       id="text5590">
      <path
         d="m 19.911736,221.97673 0,-9.30566 1.231445,0 0,3.82129 4.836914,0 0,-3.82129 1.231445,0 0,9.30566 -1.231445,0 0,-4.38623 -4.836914,0 0,4.38623 z"
         style="font-size:13px"
         id="path3186" />
      <path
         d="m 29.2174,221.97673 0,-9.30566 1.231445,0 0,8.20752 4.583008,0 0,1.09814 z"
         style="font-size:13px"
         id="path3188" />
      <path
         d="m 35.482536,221.97673 3.573731,-9.30566 1.32666,0 3.808594,9.30566 -1.402832,0 -1.08545,-2.81836 -3.891113,0 -1.021972,2.81836 z m 2.685059,-3.82129 3.154785,0 -0.971191,-2.57715 c -0.296229,-0.78287 -0.516281,-1.4261 -0.660157,-1.92968 -0.118493,0.59668 -0.285648,1.18913 -0.501464,1.77734 z"
         style="font-size:13px"
         id="path3190" />
      <path
         d="m 44.597771,219.18376 0,-1.14892 3.510254,0 0,1.14892 z"
         style="font-size:13px"
         id="path3192" />
      <path
         d="m 49.479118,221.97673 0,-9.30566 3.491211,0 c 0.710933,1e-5 1.281163,0.0942 1.710694,0.28247 0.429518,0.18832 0.765943,0.4782 1.009277,0.86963 0.243319,0.39144 0.364983,0.80087 0.36499,1.22827 -7e-6,0.39779 -0.107917,0.7723 -0.32373,1.12353 -0.215828,0.35124 -0.541674,0.63477 -0.977539,0.85059 0.562818,0.16504 0.995517,0.44645 1.298095,0.84424 0.302564,0.39779 0.45385,0.86751 0.453858,1.40918 -8e-6,0.43587 -0.09205,0.84106 -0.276123,1.21557 -0.18409,0.37452 -0.411547,0.66333 -0.682373,0.86646 -0.27084,0.20312 -0.61044,0.35652 -1.018799,0.4602 -0.408372,0.10368 -0.908778,0.15552 -1.501221,0.15552 z m 1.231446,-5.39551 2.012207,0 c 0.545893,1e-5 0.937332,-0.036 1.174316,-0.10791 0.313145,-0.0931 0.549066,-0.24755 0.707764,-0.46338 0.158685,-0.21581 0.238031,-0.48664 0.238037,-0.8125 -6e-6,-0.30891 -0.07406,-0.5808 -0.222168,-0.81567 -0.148118,-0.23486 -0.359706,-0.39566 -0.634766,-0.48242 -0.27507,-0.0867 -0.746912,-0.13012 -1.415527,-0.13013 l -1.859863,0 z m 0,4.29737 2.316894,0 c 0.397782,0 0.677078,-0.0148 0.837891,-0.0444 0.283523,-0.0508 0.520502,-0.13541 0.710937,-0.2539 0.190424,-0.11849 0.346999,-0.29094 0.469727,-0.51734 0.122715,-0.2264 0.184075,-0.48771 0.184082,-0.78393 -7e-6,-0.34701 -0.08887,-0.64852 -0.266602,-0.90454 -0.17774,-0.25602 -0.424241,-0.43587 -0.739502,-0.53956 -0.315272,-0.10367 -0.769129,-0.15551 -1.361572,-0.15551 l -2.151855,0 z"
         style="font-size:13px"
         id="path3194" />
    </g>
    <g
       style="font-size:17.23085785px;font-style:normal;font-weight:bold;fill:#000000;fill-opacity:1;stroke:none;font-family:Bitstream Vera Sans"
       id="text5594">
      <path
         d="m 19.155521,185.36935 0,-9.30566 1.231446,0 0,3.82129 4.836914,0 0,-3.82129 1.231445,0 0,9.30566 -1.231445,0 0,-4.38623 -4.836914,0 0,4.38623 z"
         style="font-size:13px"
         id="path3175" />
      <path
         d="m 28.461185,185.36935 0,-9.30566 1.231446,0 0,8.20752 4.583008,0 0,1.09814 z"
         style="font-size:13px"
         id="path3177" />
      <path
         d="m 34.726322,185.36935 3.573731,-9.30566 1.32666,0 3.808594,9.30566 -1.402832,0 -1.08545,-2.81836 -3.891113,0 -1.021973,2.81836 z m 2.685059,-3.82128 3.154785,0 -0.971191,-2.57715 c -0.296229,-0.78287 -0.516281,-1.4261 -0.660157,-1.92969 -0.118493,0.59669 -0.285648,1.18913 -0.501465,1.77734 z"
         style="font-size:13px"
         id="path3179" />
      <path
         d="m 43.841557,182.57639 0,-1.14893 3.510253,0 0,1.14893 z"
         style="font-size:13px"
         id="path3181" />
      <path
         d="m 55.413334,182.10666 1.231445,0.31103 c -0.258146,1.0114 -0.722583,1.78264 -1.39331,2.31372 -0.670743,0.53109 -1.490648,0.79664 -2.459717,0.79664 -1.002934,0 -1.818607,-0.20419 -2.447022,-0.61255 -0.62842,-0.40837 -1.106609,-0.99976 -1.43457,-1.77417 -0.327963,-0.77441 -0.491944,-1.60596 -0.491943,-2.49463 -10e-7,-0.96907 0.185139,-1.81437 0.55542,-2.53589 0.370278,-0.72151 0.897133,-1.26952 1.580566,-1.64404 0.683428,-0.37451 1.435624,-0.56176 2.256592,-0.56177 0.930983,1e-5 1.71386,0.23699 2.348633,0.71094 0.634757,0.47396 1.076977,1.14047 1.32666,1.99951 l -1.212403,0.28564 c -0.215827,-0.67707 -0.528978,-1.17007 -0.939453,-1.479 -0.410488,-0.30891 -0.926763,-0.46337 -1.548828,-0.46338 -0.715173,1e-5 -1.31291,0.17139 -1.793213,0.51416 -0.480308,0.34278 -0.817792,0.80299 -1.012451,1.38062 -0.194663,0.57764 -0.291994,1.17326 -0.291992,1.78686 -2e-6,0.79135 0.115314,1.48218 0.345947,2.07251 0.230629,0.59033 0.589271,1.0315 1.075928,1.32349 0.48665,0.29199 1.013505,0.43799 1.580566,0.43798 0.689773,1e-5 1.273757,-0.19889 1.751953,-0.59667 0.478183,-0.39779 0.801914,-0.98812 0.971192,-1.771 z"
         style="font-size:13px"
         id="path3183" />
    </g>
    <g
       style="font-size:17.23085785px;font-style:normal;font-weight:bold;fill:#000000;fill-opacity:1;stroke:none;font-family:Bitstream Vera Sans"
       id="text5598">
      <path
         d="m 15.07283,79.47493 0,-9.305664 1.231446,0 0,3.821289 4.836914,0 0,-3.821289 1.231445,0 0,9.305664 -1.231445,0 0,-4.386231 -4.836914,0 0,4.386231 z"
         style="font-size:13px"
         id="path3164" />
      <path
         d="m 24.378494,79.47493 0,-9.305664 1.231446,0 0,8.207519 4.583007,0 0,1.098145 z"
         style="font-size:13px"
         id="path3166" />
      <path
         d="m 30.643631,79.47493 3.57373,-9.305664 1.326661,0 3.808593,9.305664 -1.402832,0 -1.085449,-2.81836 -3.891113,0 -1.021973,2.81836 z m 2.685059,-3.821289 3.154785,0 -0.971192,-2.577149 c -0.296228,-0.78287 -0.51628,-1.426099 -0.660156,-1.929687 -0.118494,0.596687 -0.285648,1.189135 -0.501465,1.777344 z"
         style="font-size:13px"
         id="path3168" />
      <path
         d="m 39.758865,76.681961 0,-1.148926 3.510254,0 0,1.148926 z"
         style="font-size:13px"
         id="path3170" />
      <path
         d="m 43.669022,79.47493 3.57373,-9.305664 1.32666,0 3.808594,9.305664 -1.402832,0 -1.085449,-2.81836 -3.891114,0 -1.021972,2.81836 z m 2.685058,-3.821289 3.154785,0 -0.971191,-2.577149 c -0.296229,-0.78287 -0.51628,-1.426099 -0.660156,-1.929687 -0.118494,0.596687 -0.285649,1.189135 -0.501465,1.777344 z"
         style="font-size:13px"
         id="path3172" />
    </g>
    <path
       style="fill:none;fill-rule:evenodd;stroke:#532e97;stroke-width:0.43077138px;stroke-linecap:butt;stroke-linejoin:miter;stroke-opacity:0.99215686"
       d="M 133.9558,180.78 L 148.52133,180.78"
       id="path3238" />
    <path
       style="fill:none;fill-rule:evenodd;stroke:#532e97;stroke-width:0.64615709;stroke-linecap:butt;stroke-linejoin:miter;stroke-miterlimit:4;stroke-dasharray:none;stroke-opacity:1"
       d="M 151.30039,92.784147 L 136.22339,92.784147 L 136.22339,127.24587 L 134.06953,127.24587"
       id="path3240" />
    <path
       style="fill:none;fill-rule:evenodd;stroke:#532e97;stroke-width:0.64615709;stroke-linecap:butt;stroke-linejoin:miter;stroke-miterlimit:4;stroke-dasharray:none;stroke-opacity:0.99019626"
       d="M 134.06953,142.37087 L 136.22339,142.37087 L 136.22339,159.55372 L 151.30039,159.55372"
       id="path3242" />
    <path
       style="fill:none;fill-rule:evenodd;stroke:#532e97;stroke-width:0.64615709;stroke-linecap:butt;stroke-linejoin:miter;stroke-miterlimit:4;stroke-dasharray:none;stroke-opacity:1"
       d="M 134.06953,129.20202 L 136.80812,133.94538 L 133.94039,138.91241"
       id="path3244" />
    <path
       style="fill:none;fill-rule:evenodd;stroke:#532e97;stroke-width:0.64615709;stroke-linecap:butt;stroke-linejoin:miter;stroke-miterlimit:4;stroke-dasharray:none;stroke-opacity:1"
       d="M 136.824,133.91588 L 139.66957,133.91588 L 139.66957,110.01502 L 151.73117,110.01502"
       id="path3246" />
    <g
       style="font-size:17.23085785px;font-style:normal;font-weight:bold;fill:#532e97;fill-opacity:1;stroke:none;font-family:Bitstream Vera Sans"
       id="text3248">
      <path
         d="m 162.33934,96.547882 0,0.929199 -5.20459,0 c -0.007,-0.232747 0.0304,-0.456542 0.11279,-0.671386 0.13249,-0.354492 0.34465,-0.703612 0.63648,-1.047364 0.29183,-0.343748 0.71346,-0.741208 1.26489,-1.192383 0.85579,-0.701819 1.43408,-1.257726 1.73486,-1.667724 0.30078,-0.409989 0.45117,-0.797602 0.45118,-1.162842 -1e-5,-0.383132 -0.13697,-0.706292 -0.41089,-0.969482 -0.27393,-0.263177 -0.63111,-0.394769 -1.07154,-0.394776 -0.46549,7e-6 -0.83789,0.139656 -1.11718,0.418946 -0.2793,0.279303 -0.42074,0.666021 -0.42432,1.160156 l -0.99365,-0.102051 c 0.068,-0.741205 0.32405,-1.306064 0.76806,-1.69458 0.44401,-0.388501 1.0402,-0.582756 1.78858,-0.582764 0.75553,8e-6 1.35351,0.209481 1.79394,0.628418 0.44043,0.418952 0.66064,0.938158 0.66065,1.557617 -1e-5,0.31511 -0.0645,0.624843 -0.19336,0.9292 -0.12891,0.304366 -0.34286,0.624841 -0.64185,0.961425 -0.29899,0.336592 -0.79582,0.798506 -1.49048,1.385743 -0.58008,0.486981 -0.95247,0.817303 -1.11718,0.990966 -0.16472,0.173667 -0.30079,0.348227 -0.40821,0.523682 z"
         style="font-size:11px;fill:#532e97"
         id="path3151" />
      <path
         d="m 167.02293,97.477081 -0.96679,0 0,-6.160644 c -0.23275,0.222011 -0.53801,0.444016 -0.91577,0.666015 -0.37777,0.222011 -0.71705,0.388515 -1.01783,0.499512 l 0,-0.93457 c 0.54069,-0.254226 1.01335,-0.562168 1.41797,-0.923828 0.40462,-0.361647 0.69108,-0.712558 0.85938,-1.052735 l 0.62304,0 z"
         style="font-size:11px;fill:#532e97"
         id="path3153" />
      <path
         d="m 170.04686,97.477081 0,-1.101074 1.10107,0 0,1.101074 z"
         style="font-size:11px;fill:#532e97"
         id="path3155" />
      <path
         d="m 172.56053,95.398468 0.9668,-0.128906 c 0.111,0.547853 0.29988,0.942628 0.56665,1.184326 0.26676,0.2417 0.59171,0.362549 0.97485,0.362549 0.45475,0 0.83878,-0.157551 1.1521,-0.472656 0.31331,-0.315103 0.46997,-0.705402 0.46997,-1.170899 0,-0.444008 -0.14502,-0.810137 -0.43506,-1.098389 -0.29004,-0.288245 -0.65885,-0.432369 -1.10644,-0.432373 -0.18262,4e-6 -0.41,0.03581 -0.68213,0.107422 l 0.10742,-0.848633 c 0.0644,0.0072 0.11637,0.01075 0.15576,0.01074 0.41178,4e-6 0.78239,-0.107418 1.11182,-0.322266 0.32942,-0.214839 0.49414,-0.546056 0.49414,-0.993652 0,-0.354486 -0.11996,-0.648106 -0.35986,-0.88086 -0.23992,-0.23274 -0.54965,-0.349114 -0.9292,-0.349121 -0.37598,7e-6 -0.68929,0.118171 -0.93994,0.354492 -0.25066,0.236335 -0.41179,0.590827 -0.4834,1.063477 l -0.9668,-0.171875 c 0.11816,-0.648106 0.38672,-1.150302 0.80567,-1.506592 0.41894,-0.356275 0.93993,-0.534416 1.56298,-0.534424 0.42969,8e-6 0.82536,0.09221 1.18702,0.276612 0.36164,0.184415 0.63826,0.435961 0.82983,0.754638 0.19156,0.318692 0.28735,0.65707 0.28735,1.015137 0,0.340175 -0.0913,0.649908 -0.27392,0.929199 -0.18262,0.279302 -0.45297,0.501307 -0.81104,0.666016 0.46549,0.107426 0.82715,0.330326 1.08496,0.668701 0.25781,0.338382 0.38672,0.761803 0.38672,1.270264 0,0.687501 -0.25065,1.270264 -0.75195,1.748291 -0.50131,0.478027 -1.1351,0.717041 -1.90137,0.717041 -0.69108,0 -1.26489,-0.205892 -1.72143,-0.617676 -0.45655,-0.411783 -0.71705,-0.945311 -0.7815,-1.600586 z"
         style="font-size:11px;fill:#532e97"
         id="path3157" />
      <path
         d="m 183.75926,96.547882 0,0.929199 -5.20459,0 c -0.007,-0.232747 0.0304,-0.456542 0.1128,-0.671386 0.13248,-0.354492 0.34464,-0.703612 0.63647,-1.047364 0.29183,-0.343748 0.71346,-0.741208 1.26489,-1.192383 0.85579,-0.701819 1.43408,-1.257726 1.73487,-1.667724 0.30077,-0.409989 0.45116,-0.797602 0.45117,-1.162842 -1e-5,-0.383132 -0.13697,-0.706292 -0.41089,-0.969482 -0.27393,-0.263177 -0.63111,-0.394769 -1.07153,-0.394776 -0.4655,7e-6 -0.8379,0.139656 -1.11719,0.418946 -0.2793,0.279303 -0.42074,0.666021 -0.42432,1.160156 l -0.99365,-0.102051 c 0.068,-0.741205 0.32405,-1.306064 0.76807,-1.69458 0.444,-0.388501 1.0402,-0.582756 1.78857,-0.582764 0.75553,8e-6 1.35351,0.209481 1.79395,0.628418 0.44042,0.418952 0.66063,0.938158 0.66064,1.557617 -1e-5,0.31511 -0.0645,0.624843 -0.19336,0.9292 -0.12891,0.304366 -0.34286,0.624841 -0.64185,0.961425 -0.29899,0.336592 -0.79582,0.798506 -1.49047,1.385743 -0.58008,0.486981 -0.95248,0.817303 -1.11719,0.990966 -0.16472,0.173667 -0.30078,0.348227 -0.4082,0.523682 z"
         style="font-size:11px;fill:#532e97"
         id="path3159" />
      <path
         d="m 185.06981,99.663116 0,-7.890136 0.88086,0 0,0.741211 c 0.20768,-0.290034 0.44222,-0.507563 0.70361,-0.652588 0.26139,-0.145014 0.57829,-0.217524 0.95069,-0.21753 0.48697,6e-6 0.91666,0.125332 1.28906,0.375977 0.37239,0.250656 0.65348,0.604253 0.84326,1.060791 0.18977,0.456547 0.28466,0.956953 0.28467,1.501221 -1e-5,0.583661 -0.10474,1.109132 -0.31421,1.576416 -0.20948,0.467286 -0.51384,0.825358 -0.91309,1.074219 -0.39925,0.24886 -0.81909,0.37329 -1.25952,0.373291 -0.32227,-10e-7 -0.61141,-0.06803 -0.86743,-0.204102 -0.25602,-0.136068 -0.46639,-0.307942 -0.6311,-0.515625 l 0,2.776855 z m 0.87549,-5.005859 c 0,0.734052 0.1486,1.276532 0.4458,1.627441 0.2972,0.350913 0.65706,0.526368 1.07959,0.526368 0.42968,0 0.7976,-0.181721 1.10376,-0.545166 0.30615,-0.363443 0.45922,-0.926512 0.45923,-1.689209 -1e-5,-0.726885 -0.1495,-1.271155 -0.44849,-1.632813 -0.299,-0.361649 -0.65617,-0.542475 -1.07153,-0.54248 -0.41179,5e-6 -0.77613,0.192469 -1.09302,0.577392 -0.3169,0.384933 -0.47534,0.944421 -0.47534,1.678467 z"
         style="font-size:11px;fill:#532e97"
         id="path3161" />
    </g>
    <g
       style="font-size:17.23085785px;font-style:normal;font-weight:bold;fill:#532e97;fill-opacity:1;stroke:none;font-family:Bitstream Vera Sans"
       id="text3252">
      <path
         d="m 162.30609,113.72243 0,0.9292 -5.20459,0 c -0.007,-0.23275 0.0304,-0.45655 0.11279,-0.67139 0.13249,-0.35449 0.34465,-0.70361 0.63648,-1.04736 0.29183,-0.34375 0.71346,-0.74121 1.26489,-1.19239 0.85579,-0.70182 1.43408,-1.25772 1.73486,-1.66772 0.30078,-0.40999 0.45117,-0.7976 0.45118,-1.16284 -1e-5,-0.38313 -0.13697,-0.7063 -0.41089,-0.96949 -0.27393,-0.26317 -0.63111,-0.39476 -1.07154,-0.39477 -0.46549,1e-5 -0.83789,0.13965 -1.11718,0.41894 -0.2793,0.27931 -0.42074,0.66603 -0.42432,1.16016 l -0.99365,-0.10205 c 0.068,-0.7412 0.32405,-1.30606 0.76807,-1.69458 0.444,-0.3885 1.04019,-0.58276 1.78857,-0.58276 0.75553,0 1.35351,0.20948 1.79394,0.62841 0.44043,0.41896 0.66064,0.93816 0.66065,1.55762 -1e-5,0.31511 -0.0645,0.62484 -0.19336,0.9292 -0.12891,0.30437 -0.34286,0.62484 -0.64185,0.96143 -0.29899,0.33659 -0.79582,0.7985 -1.49047,1.38574 -0.58009,0.48698 -0.95248,0.8173 -1.11719,0.99097 -0.16472,0.17366 -0.30079,0.34822 -0.40821,0.52368 z"
         style="font-size:11px;fill:#532e97"
         id="path3138" />
      <path
         d="m 166.98969,114.65163 -0.9668,0 0,-6.16065 c -0.23275,0.22201 -0.53801,0.44402 -0.91577,0.66602 -0.37777,0.22201 -0.71705,0.38851 -1.01783,0.49951 l 0,-0.93457 c 0.54069,-0.25423 1.01335,-0.56217 1.41797,-0.92383 0.40462,-0.36165 0.69108,-0.71256 0.85938,-1.05273 l 0.62305,0 z"
         style="font-size:11px;fill:#532e97"
         id="path3140" />
      <path
         d="m 170.01361,114.65163 0,-1.10108 1.10108,0 0,1.10108 z"
         style="font-size:11px;fill:#532e97"
         id="path3142" />
      <path
         d="m 172.52728,112.57301 0.9668,-0.1289 c 0.111,0.54785 0.29988,0.94263 0.56665,1.18432 0.26676,0.2417 0.59171,0.36255 0.97485,0.36255 0.45475,0 0.83879,-0.15755 1.1521,-0.47265 0.31331,-0.31511 0.46997,-0.70541 0.46997,-1.1709 0,-0.44401 -0.14502,-0.81014 -0.43505,-1.09839 -0.29005,-0.28825 -0.65886,-0.43237 -1.10645,-0.43237 -0.18262,0 -0.41,0.0358 -0.68213,0.10742 l 0.10742,-0.84864 c 0.0644,0.007 0.11637,0.0108 0.15576,0.0108 0.41179,0 0.78239,-0.10742 1.11182,-0.32227 0.32942,-0.21484 0.49414,-0.54605 0.49414,-0.99365 0,-0.35449 -0.11996,-0.64811 -0.35986,-0.88086 -0.23991,-0.23274 -0.54965,-0.34911 -0.9292,-0.34912 -0.37598,1e-5 -0.68929,0.11817 -0.93994,0.35449 -0.25066,0.23634 -0.41179,0.59083 -0.4834,1.06348 l -0.9668,-0.17188 c 0.11817,-0.6481 0.38672,-1.1503 0.80567,-1.50659 0.41894,-0.35627 0.93994,-0.53442 1.56298,-0.53442 0.42969,0 0.82536,0.0922 1.18702,0.27661 0.36165,0.18441 0.63826,0.43596 0.82983,0.75464 0.19156,0.31869 0.28735,0.65707 0.28735,1.01513 0,0.34018 -0.0913,0.64991 -0.27392,0.9292 -0.18262,0.2793 -0.45297,0.50131 -0.81104,0.66602 0.46549,0.10742 0.82715,0.33032 1.08496,0.6687 0.25781,0.33838 0.38672,0.7618 0.38672,1.27026 0,0.6875 -0.25065,1.27027 -0.75195,1.74829 -0.50131,0.47803 -1.1351,0.71704 -1.90137,0.71705 -0.69108,-1e-5 -1.26489,-0.2059 -1.72143,-0.61768 -0.45655,-0.41178 -0.71704,-0.94531 -0.7815,-1.60059 z"
         style="font-size:11px;fill:#532e97"
         id="path3144" />
      <path
         d="m 182.28656,114.65163 -0.9668,0 0,-6.16065 c -0.23275,0.22201 -0.538,0.44402 -0.91577,0.66602 -0.37777,0.22201 -0.71704,0.38851 -1.01782,0.49951 l 0,-0.93457 c 0.54069,-0.25423 1.01334,-0.56217 1.41797,-0.92383 0.40462,-0.36165 0.69108,-0.71256 0.85937,-1.05273 l 0.62305,0 z"
         style="font-size:11px;fill:#532e97"
         id="path3146" />
      <path
         d="m 185.03656,116.83766 0,-7.89013 0.88086,0 0,0.74121 c 0.20768,-0.29004 0.44222,-0.50757 0.70361,-0.65259 0.26139,-0.14502 0.57829,-0.21753 0.95069,-0.21753 0.48697,0 0.91666,0.12533 1.28906,0.37598 0.37239,0.25065 0.65348,0.60425 0.84326,1.06079 0.18977,0.45654 0.28466,0.95695 0.28467,1.50122 -1e-5,0.58366 -0.10474,1.10913 -0.31421,1.57641 -0.20948,0.46729 -0.51384,0.82536 -0.91309,1.07422 -0.39925,0.24886 -0.81909,0.37329 -1.25952,0.37329 -0.32227,0 -0.61141,-0.068 -0.86743,-0.2041 -0.25602,-0.13607 -0.46639,-0.30794 -0.6311,-0.51562 l 0,2.77685 z m 0.87549,-5.00586 c 0,0.73405 0.1486,1.27653 0.4458,1.62744 0.2972,0.35092 0.65706,0.52637 1.07959,0.52637 0.42968,0 0.7976,-0.18172 1.10376,-0.54517 0.30615,-0.36344 0.45922,-0.92651 0.45923,-1.6892 -1e-5,-0.72689 -0.1495,-1.27116 -0.44849,-1.63282 -0.29899,-0.36165 -0.65617,-0.54247 -1.07153,-0.54248 -0.41179,1e-5 -0.77613,0.19247 -1.09302,0.5774 -0.3169,0.38493 -0.47534,0.94442 -0.47534,1.67846 z"
         style="font-size:11px;fill:#532e97"
         id="path3148" />
    </g>
    <g
       style="font-size:17.23085785px;font-style:normal;font-weight:bold;fill:#532e97;fill-opacity:1;stroke:none;font-family:Bitstream Vera Sans"
       id="text3256">
      <path
         d="m 162.30609,165.34355 0,0.9292 -5.20459,0 c -0.007,-0.23275 0.0304,-0.45654 0.11279,-0.67139 0.13249,-0.35449 0.34465,-0.70361 0.63648,-1.04736 0.29183,-0.34375 0.71346,-0.74121 1.26489,-1.19238 0.85579,-0.70182 1.43408,-1.25773 1.73486,-1.66773 0.30078,-0.40999 0.45117,-0.7976 0.45118,-1.16284 -1e-5,-0.38313 -0.13697,-0.70629 -0.41089,-0.96948 -0.27393,-0.26318 -0.63111,-0.39477 -1.07154,-0.39478 -0.46549,1e-5 -0.83789,0.13966 -1.11718,0.41895 -0.2793,0.2793 -0.42074,0.66602 -0.42432,1.16016 l -0.99365,-0.10206 c 0.068,-0.7412 0.32405,-1.30606 0.76807,-1.69458 0.444,-0.3885 1.04019,-0.58275 1.78857,-0.58276 0.75553,1e-5 1.35351,0.20948 1.79394,0.62842 0.44043,0.41895 0.66064,0.93816 0.66065,1.55762 -1e-5,0.31511 -0.0645,0.62484 -0.19336,0.9292 -0.12891,0.30436 -0.34286,0.62484 -0.64185,0.96142 -0.29899,0.33659 -0.79582,0.79851 -1.49047,1.38574 -0.58009,0.48698 -0.95248,0.81731 -1.11719,0.99097 -0.16472,0.17367 -0.30079,0.34823 -0.40821,0.52368 z"
         style="font-size:11px;fill:#532e97"
         id="path3127" />
      <path
         d="m 166.98969,166.27275 -0.9668,0 0,-6.16064 c -0.23275,0.22201 -0.53801,0.44401 -0.91577,0.66601 -0.37777,0.22201 -0.71705,0.38852 -1.01783,0.49951 l 0,-0.93457 c 0.54069,-0.25422 1.01335,-0.56216 1.41797,-0.92382 0.40462,-0.36165 0.69108,-0.71256 0.85938,-1.05274 l 0.62305,0 z"
         style="font-size:11px;fill:#532e97"
         id="path3129" />
      <path
         d="m 170.01361,166.27275 0,-1.10107 1.10108,0 0,1.10107 z"
         style="font-size:11px;fill:#532e97"
         id="path3131" />
      <path
         d="m 177.60297,165.34355 0,0.9292 -5.20459,0 c -0.007,-0.23275 0.0304,-0.45654 0.11279,-0.67139 0.13249,-0.35449 0.34464,-0.70361 0.63647,-1.04736 0.29183,-0.34375 0.71346,-0.74121 1.2649,-1.19238 0.85579,-0.70182 1.43407,-1.25773 1.73486,-1.66773 0.30078,-0.40999 0.45117,-0.7976 0.45117,-1.16284 0,-0.38313 -0.13697,-0.70629 -0.41089,-0.96948 -0.27393,-0.26318 -0.6311,-0.39477 -1.07153,-0.39478 -0.4655,1e-5 -0.83789,0.13966 -1.11719,0.41895 -0.2793,0.2793 -0.42073,0.66602 -0.42431,1.16016 l -0.99366,-0.10206 c 0.068,-0.7412 0.32406,-1.30606 0.76807,-1.69458 0.44401,-0.3885 1.0402,-0.58275 1.78857,-0.58276 0.75553,1e-5 1.35352,0.20948 1.79395,0.62842 0.44042,0.41895 0.66064,0.93816 0.66064,1.55762 0,0.31511 -0.0644,0.62484 -0.19336,0.9292 -0.12891,0.30436 -0.34286,0.62484 -0.64184,0.96142 -0.299,0.33659 -0.79582,0.79851 -1.49048,1.38574 -0.58008,0.48698 -0.95248,0.81731 -1.11719,0.99097 -0.16471,0.17367 -0.30078,0.34823 -0.4082,0.52368 z"
         style="font-size:11px;fill:#532e97"
         id="path3133" />
      <path
         d="m 178.91351,168.45879 0,-7.89014 0.88086,0 0,0.74121 c 0.20768,-0.29003 0.44222,-0.50756 0.70362,-0.65259 0.26139,-0.14501 0.57828,-0.21752 0.95068,-0.21753 0.48697,1e-5 0.91666,0.12533 1.28906,0.37598 0.37239,0.25066 0.65348,0.60425 0.84326,1.06079 0.18978,0.45655 0.28467,0.95695 0.28467,1.50122 0,0.58366 -0.10474,1.10913 -0.31421,1.57642 -0.20948,0.46728 -0.51384,0.82536 -0.91308,1.07422 -0.39926,0.24886 -0.8191,0.37329 -1.25952,0.37329 -0.32227,0 -0.61142,-0.068 -0.86744,-0.2041 -0.25602,-0.13607 -0.46639,-0.30795 -0.6311,-0.51563 l 0,2.77686 z m 0.87549,-5.00586 c 0,0.73405 0.1486,1.27653 0.4458,1.62744 0.2972,0.35091 0.65706,0.52637 1.07959,0.52637 0.42969,0 0.79761,-0.18173 1.10376,-0.54517 0.30615,-0.36344 0.45923,-0.92651 0.45923,-1.68921 0,-0.72688 -0.1495,-1.27115 -0.44849,-1.63281 -0.29899,-0.36165 -0.65617,-0.54248 -1.07153,-0.54248 -0.41179,0 -0.77612,0.19247 -1.09302,0.57739 -0.31689,0.38493 -0.47534,0.94442 -0.47534,1.67847 z"
         style="font-size:11px;fill:#532e97"
         id="path3135" />
    </g>
    <g
       style="font-size:17.23085785px;font-style:normal;font-weight:bold;fill:#532e97;fill-opacity:1;stroke:none;font-family:Bitstream Vera Sans"
       id="text3260">
      <path
         d="m 156.59164,181.92653 0.95069,0.12353 c -0.10385,0.65528 -0.36972,1.16822 -0.79761,1.53882 -0.4279,0.37061 -0.95337,0.55591 -1.57642,0.55591 -0.7806,0 -1.40812,-0.25513 -1.88256,-0.76538 -0.47445,-0.51025 -0.71167,-1.24162 -0.71167,-2.19409 0,-0.61588 0.10205,-1.15478 0.30615,-1.6167 0.2041,-0.46191 0.51473,-0.80835 0.93188,-1.03931 0.41716,-0.23095 0.87101,-0.34643 1.36158,-0.34643 0.61946,0 1.12613,0.15666 1.52002,0.46997 0.39387,0.31332 0.64631,0.75822 0.75732,1.33471 l -0.93994,0.14502 c -0.0895,-0.38313 -0.24797,-0.67138 -0.47534,-0.86474 -0.22738,-0.19336 -0.5022,-0.29004 -0.82447,-0.29004 -0.48698,0 -0.88265,0.17456 -1.18701,0.52368 -0.30436,0.34913 -0.45654,0.90145 -0.45654,1.65698 0,0.76628 0.14681,1.32308 0.44043,1.67041 0.29362,0.34733 0.67675,0.521 1.14941,0.521 0.37956,0 0.69645,-0.11637 0.95069,-0.34912 0.25422,-0.23275 0.41536,-0.59082 0.48339,-1.07422 z"
         style="font-size:11px;fill:#532e97"
         id="path3106" />
      <path
         d="m 162.27426,182.17897 0.99902,0.12354 c -0.15755,0.58366 -0.44938,1.03662 -0.87548,1.35888 -0.42611,0.32227 -0.97038,0.4834 -1.63282,0.4834 -0.83431,0 -1.49585,-0.25692 -1.98462,-0.77075 -0.48877,-0.51383 -0.73315,-1.23446 -0.73315,-2.16187 0,-0.95963 0.24707,-1.70442 0.74121,-2.23437 0.49414,-0.52994 1.13509,-0.79492 1.92285,-0.79492 0.76269,0 1.38574,0.25961 1.86914,0.77881 0.4834,0.51921 0.7251,1.24967 0.7251,2.1914 0,0.0573 -0.002,0.14323 -0.005,0.25781 l -4.25391,0 c 0.0358,0.62663 0.21306,1.10645 0.53174,1.43946 0.31869,0.33301 0.71615,0.49951 1.19239,0.49951 0.35448,0 0.65706,-0.0931 0.90771,-0.2793 0.25065,-0.18619 0.44938,-0.4834 0.59619,-0.8916 z m -3.17431,-1.56299 3.18505,0 c -0.043,-0.47981 -0.16471,-0.83967 -0.36523,-1.07959 -0.30795,-0.37239 -0.7072,-0.55859 -1.19775,-0.55859 -0.44402,0 -0.81731,0.1486 -1.11988,0.4458 -0.30257,0.2972 -0.46997,0.69466 -0.50219,1.19238 z"
         style="font-size:11px;fill:#532e97"
         id="path3108" />
      <path
         d="m 164.49252,184.01588 0,-5.7041 0.87012,0 0,0.81104 c 0.41894,-0.62662 1.02409,-0.93994 1.81543,-0.93994 0.34375,0 0.65975,0.0618 0.948,0.1853 0.28824,0.12354 0.50398,0.28557 0.64721,0.48608 0.14323,0.20053 0.24349,0.43865 0.30079,0.71436 0.0358,0.17904 0.0537,0.49235 0.0537,0.93994 l 0,3.50732 -0.9668,0 0,-3.46972 c 0,-0.39388 -0.0376,-0.68839 -0.11279,-0.88355 -0.0752,-0.19514 -0.20858,-0.3509 -0.40015,-0.46728 -0.19157,-0.11637 -0.41626,-0.17456 -0.67407,-0.17456 -0.41179,0 -0.76718,0.1307 -1.06616,0.39209 -0.299,0.26139 -0.44849,0.75733 -0.44849,1.48779 l 0,3.11523 z"
         style="font-size:11px;fill:#532e97"
         id="path3110" />
      <path
         d="m 172.72641,183.15114 0.13965,0.854 c -0.27214,0.0573 -0.51563,0.0859 -0.73047,0.0859 -0.35091,0 -0.62305,-0.0555 -0.81641,-0.1665 -0.19336,-0.11101 -0.32942,-0.25692 -0.4082,-0.43775 -0.0788,-0.18082 -0.11816,-0.56128 -0.11816,-1.14136 l 0,-3.28173 -0.70899,0 0,-0.75196 0.70899,0 0,-1.41259 0.96142,-0.58008 0,1.99267 0.97217,0 0,0.75196 -0.97217,0 0,3.33545 c 0,0.27571 0.017,0.45296 0.051,0.53173 0.034,0.0788 0.0895,0.14144 0.1665,0.18799 0.077,0.0465 0.18709,0.0698 0.33032,0.0698 0.10742,0 0.24886,-0.0125 0.42432,-0.0376 z"
         style="font-size:11px;fill:#532e97"
         id="path3112" />
      <path
         d="m 173.65561,184.01588 0,-5.7041 0.87012,0 0,0.86475 c 0.222,-0.40462 0.427,-0.67138 0.61499,-0.80029 0.18798,-0.1289 0.39477,-0.19336 0.62036,-0.19336 0.32584,0 0.65706,0.10384 0.99365,0.31152 l -0.33301,0.89697 c -0.23633,-0.13964 -0.47266,-0.20947 -0.70898,-0.20947 -0.21127,0 -0.40105,0.0636 -0.56934,0.19067 -0.16829,0.12712 -0.28825,0.30347 -0.35986,0.52906 -0.10742,0.34375 -0.16114,0.71973 -0.16113,1.12793 l 0,2.98632 z"
         style="font-size:11px;fill:#532e97"
         id="path3114" />
      <path
         d="m 176.98032,181.16383 c 0,-1.05631 0.29362,-1.8387 0.88086,-2.34716 0.49055,-0.42252 1.08853,-0.63379 1.79394,-0.63379 0.78418,0 1.42513,0.25692 1.92285,0.77075 0.49772,0.51384 0.74658,1.22372 0.74658,2.12964 0,0.73405 -0.11011,1.31144 -0.33032,1.73217 -0.22022,0.42074 -0.54069,0.74748 -0.96142,0.98023 -0.42074,0.23275 -0.87997,0.34912 -1.37769,0.34912 -0.7985,0 -1.44393,-0.25602 -1.93628,-0.76807 -0.49235,-0.51204 -0.73852,-1.24967 -0.73852,-2.21289 z m 0.99365,0 c 0,0.73047 0.15934,1.27743 0.47803,1.64087 0.31868,0.36345 0.71972,0.54517 1.20312,0.54517 0.47982,0 0.87907,-0.18262 1.19775,-0.54785 0.31869,-0.36524 0.47803,-0.92204 0.47803,-1.67041 0,-0.7054 -0.16024,-1.23983 -0.48071,-1.60327 -0.32048,-0.36344 -0.71884,-0.54517 -1.19507,-0.54517 -0.4834,0 -0.88444,0.18083 -1.20312,0.54248 -0.31869,0.36166 -0.47803,0.90772 -0.47803,1.63818 z"
         style="font-size:11px;fill:#532e97"
         id="path3116" />
      <path
         d="m 183.46323,184.01588 0,-5.7041 0.86474,0 0,0.8003 c 0.17904,-0.2793 0.41716,-0.50399 0.71436,-0.67408 0.2972,-0.17008 0.63557,-0.25512 1.01513,-0.25512 0.42253,0 0.76896,0.0877 1.03931,0.26318 0.27034,0.17546 0.46102,0.42074 0.57202,0.73584 0.45117,-0.66601 1.03841,-0.99902 1.76172,-0.99902 0.56575,0 1.00081,0.15666 1.30518,0.46997 0.30435,0.31332 0.45653,0.79582 0.45654,1.44751 l 0,3.91552 -0.96143,0 0,-3.59326 c 0,-0.38671 -0.0313,-0.66511 -0.094,-0.8352 -0.0627,-0.17008 -0.17636,-0.30705 -0.34106,-0.41089 -0.16472,-0.10384 -0.35808,-0.15576 -0.58008,-0.15576 -0.40105,0 -0.73406,0.13338 -0.99903,0.40014 -0.26497,0.26677 -0.39746,0.69377 -0.39746,1.28101 l 0,3.31396 -0.96679,0 0,-3.70605 c -1e-5,-0.42968 -0.0788,-0.75195 -0.23633,-0.9668 -0.15756,-0.21484 -0.41537,-0.32226 -0.77344,-0.32226 -0.27214,0 -0.52368,0.0716 -0.75464,0.21484 -0.23096,0.14323 -0.39836,0.35271 -0.5022,0.62842 -0.10384,0.27572 -0.15576,0.67318 -0.15576,1.19238 l 0,2.95947 z"
         style="font-size:11px;fill:#532e97"
         id="path3118" />
      <path
         d="m 196.54184,182.17897 0.99902,0.12354 c -0.15755,0.58366 -0.44938,1.03662 -0.87549,1.35888 -0.42611,0.32227 -0.97038,0.4834 -1.63281,0.4834 -0.83431,0 -1.49585,-0.25692 -1.98462,-0.77075 -0.48877,-0.51383 -0.73315,-1.23446 -0.73315,-2.16187 0,-0.95963 0.24707,-1.70442 0.74121,-2.23437 0.49414,-0.52994 1.13509,-0.79492 1.92285,-0.79492 0.76269,0 1.38574,0.25961 1.86914,0.77881 0.48339,0.51921 0.72509,1.24967 0.7251,2.1914 -1e-5,0.0573 -0.002,0.14323 -0.005,0.25781 l -4.25391,0 c 0.0358,0.62663 0.21305,1.10645 0.53174,1.43946 0.31868,0.33301 0.71614,0.49951 1.19238,0.49951 0.35449,0 0.65706,-0.0931 0.90772,-0.2793 0.25064,-0.18619 0.44938,-0.4834 0.59619,-0.8916 z m -3.17432,-1.56299 3.18506,0 c -0.043,-0.47981 -0.16472,-0.83967 -0.36523,-1.07959 -0.30795,-0.37239 -0.7072,-0.55859 -1.19776,-0.55859 -0.44401,0 -0.8173,0.1486 -1.11987,0.4458 -0.30257,0.2972 -0.46997,0.69466 -0.5022,1.19238 z"
         style="font-size:11px;fill:#532e97"
         id="path3120" />
      <path
         d="m 198.74936,184.01588 0,-5.7041 0.87012,0 0,0.86475 c 0.222,-0.40462 0.427,-0.67138 0.61499,-0.80029 0.18798,-0.1289 0.39477,-0.19336 0.62036,-0.19336 0.32584,0 0.65706,0.10384 0.99365,0.31152 l -0.33301,0.89697 c -0.23633,-0.13964 -0.47266,-0.20947 -0.70898,-0.20947 -0.21127,0 -0.40105,0.0636 -0.56934,0.19067 -0.16829,0.12712 -0.28825,0.30347 -0.35986,0.52906 -0.10742,0.34375 -0.16114,0.71973 -0.16113,1.12793 l 0,2.98632 z"
         style="font-size:11px;fill:#532e97"
         id="path3122" />
      <path
         d="m 206.33871,182.17897 0.99903,0.12354 c -0.15756,0.58366 -0.44939,1.03662 -0.87549,1.35888 -0.42611,0.32227 -0.97038,0.4834 -1.63281,0.4834 -0.83431,0 -1.49585,-0.25692 -1.98462,-0.77075 -0.48877,-0.51383 -0.73316,-1.23446 -0.73316,-2.16187 0,-0.95963 0.24707,-1.70442 0.74121,-2.23437 0.49414,-0.52994 1.13509,-0.79492 1.92286,-0.79492 0.76269,0 1.38573,0.25961 1.86914,0.77881 0.48339,0.51921 0.72509,1.24967 0.72509,2.1914 0,0.0573 -0.002,0.14323 -0.005,0.25781 l -4.2539,0 c 0.0358,0.62663 0.21305,1.10645 0.53174,1.43946 0.31868,0.33301 0.71614,0.49951 1.19238,0.49951 0.35449,0 0.65706,-0.0931 0.90771,-0.2793 0.25065,-0.18619 0.44938,-0.4834 0.59619,-0.8916 z m -3.17431,-1.56299 3.18506,0 c -0.043,-0.47981 -0.16472,-0.83967 -0.36524,-1.07959 -0.30794,-0.37239 -0.7072,-0.55859 -1.19775,-0.55859 -0.44401,0 -0.81731,0.1486 -1.11987,0.4458 -0.30258,0.2972 -0.46998,0.69466 -0.5022,1.19238 z"
         style="font-size:11px;fill:#532e97"
         id="path3124" />
    </g>
    <path
       style="fill:#bbbdbc;fill-opacity:1;stroke:none"
       d="m 120.57783,77.856537 0.44814,0 0,1.877315 -0.44814,0 z"
       id="rect2465" />
    <path
       style="fill:#bbbdbc;fill-opacity:1;stroke:none"
       d="m 120.29546,78.678528 0.35831,0 0,1.053096 -0.35831,0 z"
       id="rect2467" />
    <path
       style="fill:#bbbdbc;fill-opacity:1;stroke:none"
       d="m 130.83061,77.647278 0.4794,0 0,2.088253 -0.4794,0 z"
       id="rect2469" />
    <path
       style="fill:#bbbdbc;fill-opacity:1;stroke:none"
       d="m 131.24272,78.559387 0.3583,0 0,1.17419 -0.3583,0 z"
       id="rect2471" />
    <path
       style="fill:#000000;fill-opacity:1;stroke:none"
       d="m 119.40209,168.17352 2.94582,0 0,1.49672 -2.94582,0 z"
       id="rect2473" />
    <path
       style="fill:#000000;fill-opacity:1;stroke:none"
       d="m 119.60522,169.42352 2.94581,0 0,1.49672 -2.94581,0 z"
       id="rect2475" />
    <path
       style="fill:#000000;fill-opacity:1;stroke:none"
       d="m 119.80834,170.62665 2.94582,0 0,1.49671 -2.94582,0 z"
       id="rect2477" />
    <path
       style="fill:#000000;fill-opacity:1;stroke:none"
       d="m 120.07397,171.61102 2.94581,0 0,1.49672 -2.94581,0 z"
       id="rect2479" />
    <path
       style="fill:#000000;fill-opacity:1;stroke:none"
       d="m 120.24584,172.43915 2.94582,0 0,1.49671 -2.94582,0 z"
       id="rect2481" />
    <path
       style="fill:#000000;fill-opacity:1;stroke:none"
       d="m 129.5896,168.17743 2.94581,0 0,1.49671 -2.94581,0 z"
       id="rect2483" />
    <path
       style="fill:#000000;fill-opacity:1;stroke:none"
       d="m 129.34351,169.48993 2.94581,0 0,1.49671 -2.94581,0 z"
       id="rect2485" />
    <path
       transform="matrix(-0.2217163,0.9751112,-0.9751112,-0.2217163,0,0)"
       style="fill:#000000;fill-opacity:1;stroke:none"
       d="m 137.41745,-166.80046 2.94581,0 0,1.49671 -2.94581,0 z"
       id="rect2487" />
    <path
       style="fill:none;stroke:#000000;stroke-width:0.28584889;stroke-linecap:round;stroke-linejoin:round;stroke-miterlimit:4;stroke-opacity:1"
       d="m 125.96387,71.569725 c 3.76769,0 6.80089,7.645714 6.80089,17.142857 l 0,75.492258 c 0,9.49714 -3.0332,17.14285 -6.80089,17.14285 -3.7677,0 -6.8009,-7.64571 -6.8009,-17.14285 l 0,-75.492258 c 0,-9.497143 3.0332,-17.142857 6.8009,-17.142857 z"
       id="rect2452" />
    <path
       style="fill:#000000;fill-opacity:1;stroke:none"
       d="m 130.06761,194.2948 2.55228,0 0,3.69166 -2.55228,0 z"
       id="rect2491" />
    <path
       transform="matrix(0.8946866,-0.4466943,0.1689603,0.9856229,0,0)"
       style="fill:#000000;fill-opacity:1;stroke:none"
       d="m 99.057602,236.13918 2.997178,0 0,7.70827 -2.997178,0 z"
       id="rect2493" />
    <path
       transform="matrix(-0.8946866,-0.4466943,-0.1689603,0.9856229,0,0)"
       style="fill:#000000;fill-opacity:1;stroke:none"
       d="m -160.34048,118.70415 2.99717,0 0,7.70828 -2.99717,0 z"
       id="rect2495" />
    <path
       style="fill:#000000;fill-opacity:1;stroke:none"
       d="m 119.31761,194.2948 2.55228,0 0,3.69166 -2.55228,0 z"
       id="rect2497" />
    <path
       style="fill:#808080;fill-opacity:1;stroke:none"
       d="m 119.36577,363.4856 0.79582,0 0,2.27882 -0.79582,0 z"
       id="rect2499" />
    <path
       style="fill:#808080;fill-opacity:1;stroke:none"
       d="m 131.77786,363.48169 0.79583,0 0,2.27882 -0.79583,0 z"
       id="rect2501" />
    <path
       style="fill:none;stroke:#000000;stroke-width:0.38159382;stroke-linecap:round;stroke-linejoin:round;stroke-miterlimit:4;stroke-opacity:1"
       d="m 125.96303,181.47043 c 3.74117,0 6.75302,7.64571 6.75302,17.14286 l 0,162.73531 c 0,9.49714 -3.01185,17.14286 -6.75302,17.14286 -3.74117,0 -6.75302,-7.64572 -6.75302,-17.14286 l 0,-162.73531 c 0,-9.49715 3.01185,-17.14286 6.75302,-17.14286 z"
       id="rect5684" />
  </g>
</svg>
